<svg xmlns="http://www.w3.org/2000/svg" xmlns:xlink="http://www.w3.org/1999/xlink" width="412" height="487.295" viewBox="0 0 412 487.295">
  <defs>
    <filter id="Trazado_54" x="0" y="108.456" width="82" height="82" filterUnits="userSpaceOnUse">
      <feOffset dy="10" input="SourceAlpha"/>
      <feGaussianBlur stdDeviation="5" result="blur"/>
      <feFlood flood-color="#fff" flood-opacity="0.082"/>
      <feComposite operator="in" in2="blur"/>
      <feComposite in="SourceGraphic"/>
    </filter>
    <filter id="unlock-2" x="24.5" y="123.456" width="33.554" height="41.72" filterUnits="userSpaceOnUse">
      <feOffset dy="5" input="SourceAlpha"/>
      <feGaussianBlur stdDeviation="1.5" result="blur-2"/>
      <feFlood flood-opacity="0.161"/>
      <feComposite operator="in" in2="blur-2"/>
      <feComposite in="SourceGraphic"/>
    </filter>
    <filter id="Trazado_54-2" x="0" y="336.456" width="82" height="82" filterUnits="userSpaceOnUse">
      <feOffset dy="10" input="SourceAlpha"/>
      <feGaussianBlur stdDeviation="5" result="blur-3"/>
      <feFlood flood-color="#fff" flood-opacity="0.082"/>
      <feComposite operator="in" in2="blur-3"/>
      <feComposite in="SourceGraphic"/>
    </filter>
    <filter id="unlock-2-2" x="24.5" y="350.346" width="33.554" height="41.72" filterUnits="userSpaceOnUse">
      <feOffset dy="5" input="SourceAlpha"/>
      <feGaussianBlur stdDeviation="1.5" result="blur-4"/>
      <feFlood flood-opacity="0.161"/>
      <feComposite operator="in" in2="blur-4"/>
      <feComposite in="SourceGraphic"/>
    </filter>
    <filter id="Trazado_54-3" x="330" y="336.456" width="82" height="82" filterUnits="userSpaceOnUse">
      <feOffset dy="10" input="SourceAlpha"/>
      <feGaussianBlur stdDeviation="5" result="blur-5"/>
      <feFlood flood-color="#fff" flood-opacity="0.082"/>
      <feComposite operator="in" in2="blur-5"/>
      <feComposite in="SourceGraphic"/>
    </filter>
    <filter id="unlock-2-3" x="354.5" y="350.346" width="33.554" height="41.72" filterUnits="userSpaceOnUse">
      <feOffset dy="5" input="SourceAlpha"/>
      <feGaussianBlur stdDeviation="1.5" result="blur-6"/>
      <feFlood flood-opacity="0.161"/>
      <feComposite operator="in" in2="blur-6"/>
      <feComposite in="SourceGraphic"/>
    </filter>
    <filter id="Trazado_54-4" x="330" y="108.456" width="82" height="82" filterUnits="userSpaceOnUse">
      <feOffset dy="10" input="SourceAlpha"/>
      <feGaussianBlur stdDeviation="5" result="blur-7"/>
      <feFlood flood-color="#fff" flood-opacity="0.082"/>
      <feComposite operator="in" in2="blur-7"/>
      <feComposite in="SourceGraphic"/>
    </filter>
    <filter id="unlock-2-4" x="354.5" y="122.346" width="33.554" height="41.72" filterUnits="userSpaceOnUse">
      <feOffset dy="5" input="SourceAlpha"/>
      <feGaussianBlur stdDeviation="1.5" result="blur-8"/>
      <feFlood flood-opacity="0.161"/>
      <feComposite operator="in" in2="blur-8"/>
      <feComposite in="SourceGraphic"/>
    </filter>
  </defs>
  <g id="Grupo_952" data-name="Grupo 952" transform="translate(-9 -238.544)">
    <g id="Grupo_950" data-name="Grupo 950">
      <text id="Cerrar_puertas" data-name="Cerrar
puertas" transform="translate(215 618)" fill="red" font-size="16" font-family="SFProDisplay-Bold, SF Pro Display" font-weight="700" letter-spacing="0.07em"><tspan x="-25.952" y="0">Cerrar</tspan><tspan x="-31.505" y="19">puertas</tspan></text>
      <g id="Grupo_22" data-name="Grupo 22" transform="translate(313.484 548.916)">
        <line id="Línea_5" data-name="Línea 5" x2="44" y2="28" transform="translate(-0.484 0.084)" fill="none" stroke="#707070" stroke-width="1"/>
        <line id="Línea_6" data-name="Línea 6" x1="46" transform="translate(43.516 28.084)" fill="none" stroke="#707070" stroke-width="1"/>
      </g>
      <g id="Grupo_23" data-name="Grupo 23" transform="translate(313.484 437.002)">
        <line id="Línea_5-2" data-name="Línea 5" y1="27.854" x2="43.771" fill="none" stroke="#707070" stroke-width="1"/>
        <line id="Línea_6-2" data-name="Línea 6" x1="45.76" transform="translate(43.771)" fill="none" stroke="#707070" stroke-width="1"/>
      </g>
      <g id="Grupo_21" data-name="Grupo 21" transform="translate(27.979 548.916)">
        <line id="Línea_5-3" data-name="Línea 5" x1="44" y2="28" transform="translate(46.021 0.084)" fill="none" stroke="#707070" stroke-width="1"/>
        <line id="Línea_6-3" data-name="Línea 6" x2="46" transform="translate(0.021 28.084)" fill="none" stroke="#707070" stroke-width="1"/>
      </g>
      <g id="Grupo_17" data-name="Grupo 17" transform="translate(28.477 437.002)">
        <line id="Línea_5-4" data-name="Línea 5" x1="43.771" y1="27.854" transform="translate(45.76)" fill="none" stroke="#707070" stroke-width="1"/>
        <line id="Línea_6-4" data-name="Línea 6" x2="45.76" transform="translate(0)" fill="none" stroke="#707070" stroke-width="1"/>
      </g>
      <g id="Mesa_de_trabajo_1carr" data-name="Mesa de trabajo 1carr" transform="translate(109 240.531)">
        <g id="SPLINE" transform="translate(106.442 464.407)">
          <path id="Trazado_7" data-name="Trazado 7" d="M214.87,923.1c3.9.01,7.806.047,11.707,0,8.246-.1,16.466-.6,24.728-.995a86.657,86.657,0,0,0,9.047-.743,69.9,69.9,0,0,0,8.21-1.922,51.236,51.236,0,0,0,6.267-2.115,57.543,57.543,0,0,0,9.592-5.728c1.623-1.12,3.241-2.236,4.733-3.487a29.348,29.348,0,0,0,2.183-2.021,5.555,5.555,0,0,0,.723-.859,3.58,3.58,0,0,0,.419-1.01" transform="translate(-214.87 -904.22)" fill="none" stroke="#fcfafa" stroke-linecap="round" stroke-linejoin="round" stroke-width="4"/>
        </g>
        <g id="SPLINE-2" transform="translate(106.442 273.314)">
          <path id="Trazado_8" data-name="Trazado 8" d="M214.87,747.648c6.272.016,12.555.1,18.817-.115,7.456-.257,14.88-.937,22.346-1.592a46.535,46.535,0,0,0,5.984-.785c1.607-.361,3.173-.9,4.77-1.34,1.157-.319,2.335-.592,3.477-.942,4.534-1.4,8.576-4.063,12.655-6.545,3.618-2.2,7.267-4.262,10.618-6.775a25.333,25.333,0,0,0,3.157-2.728,13.863,13.863,0,0,0,1.937-2.529,18.448,18.448,0,0,0,1.476-3.471c2.147-6.435,3.021-13.142,4.272-19.77.691-3.67,1.5-7.32,2.356-10.958.77-3.283,1.571-6.56,2.487-9.812.681-2.414,1.419-4.817,1.963-7.262a44.886,44.886,0,0,0,.785-4.712c.241-2.157.319-4.33.393-6.5.639-18.5,1.115-36.975,1.047-55.493-.005-1.791-.021-3.576-.131-5.361-.277-4.44-1.183-8.838-1.571-13.272-.22-2.524-.272-5.058-.319-7.592-.052-3.188-.089-6.377-.084-9.571.005-2.628-.351-28.66-.314-31.283" transform="translate(-214.87 -539.24)" fill="none" stroke="#fcfafa" stroke-linecap="round" stroke-linejoin="round" stroke-width="4"/>
        </g>
        <g id="SPLINE-3" transform="translate(106.442 445.48)">
          <path id="Trazado_9" data-name="Trazado 9" d="M214.87,875.552c3.628,0,7.257-.01,10.885-.1q9.118-.236,18.2-1.131,8.466-.825,16.869-2.157,9.118-1.453,18.126-3.487,1.319-.3,2.639-.6" transform="translate(-214.87 -868.07)" fill="none" stroke="#fcfafa" stroke-linecap="round" stroke-linejoin="round" stroke-width="4"/>
        </g>
        <g id="SPLINE-4" transform="translate(106.442 414.925)">
          <path id="Trazado_10" data-name="Trazado 10" d="M283.961,809.71c-1.833.482-3.67.963-5.508,1.429-3.293.838-6.6,1.634-9.927,2.34-4.388.937-8.812,1.717-13.252,2.409-4.267.665-8.55,1.241-12.854,1.639-4.817.44-9.66.654-14.5.733-4.351.073-8.7.037-13.053,0" transform="translate(-214.87 -809.71)" fill="none" stroke="#fcfafa" stroke-linecap="round" stroke-linejoin="round" stroke-width="4"/>
        </g>
        <g id="SPLINE-5" transform="translate(106.442 462.099)">
          <path id="Trazado_11" data-name="Trazado 11" d="M214.87,907.994c4.2.026,8.4.168,12.6.052,4.995-.136,9.974-.639,14.964-1.11,4.785-.45,9.576-.88,14.314-1.586,2.539-.377,5.063-.838,7.623-1.225a1.968,1.968,0,0,0,.6-.157.819.819,0,0,0,.4-.388,1.2,1.2,0,0,0,.042-.581c-.079-.911-.11-1.728-.2-2.634a.68.68,0,0,0-.084-.325.494.494,0,0,0-.236-.188,1.019,1.019,0,0,0-.419-.037,43.337,43.337,0,0,0-4.932.675c-3.283.55-6.623.953-9.964,1.278-2.759.272-5.518.5-8.278.749-4.471.408-8.943.885-13.435,1.058-2.634.1-5.278.1-7.916.1H214.87" transform="translate(-214.87 -899.811)" fill="none" stroke="#fcfafa" stroke-linecap="round" stroke-linejoin="round" stroke-width="4"/>
        </g>
        <g id="SPLINE-6" transform="translate(106.442 471.859)">
          <path id="Trazado_12" data-name="Trazado 12" d="M214.87,923.525c1.613-.016,3.22-.026,4.833-.052,3.45-.052,6.9-.152,10.351-.278,2.969-.11,5.937-.246,8.9-.466,2.874-.215,5.749-.518,8.587-.953,1.524-.23,3.037-.5,4.576-.733a1.223,1.223,0,0,0,.361-.094.5.5,0,0,0,.241-.236.714.714,0,0,0,.026-.351c-.047-.545-.068-1.037-.12-1.581a.479.479,0,0,0-.047-.194.27.27,0,0,0-.141-.11.58.58,0,0,0-.251-.021,25.951,25.951,0,0,0-2.958.4c-1.969.33-3.974.571-5.979.77-1.654.162-3.309.3-4.963.45-2.681.236-5.367.5-8.058.634-3.4.173-6.812.147-10.215.162q-2.568.008-5.126.042" transform="translate(-214.87 -918.452)" fill="none" stroke="#fcfafa" stroke-linecap="round" stroke-linejoin="round" stroke-width="4"/>
        </g>
        <g id="SPLINE-7" transform="translate(144.092 161.375)">
          <path id="Trazado_13" data-name="Trazado 13" d="M286.78,636.007c.628-.084,1.257-.167,1.885-.246,1.628-.194,3.257-.325,4.9-.445a29.46,29.46,0,0,0,5.409-.7,27.376,27.376,0,0,0,4.644-1.859,86.718,86.718,0,0,0,8.6-4.461c1.675-1.031,3.288-2.178,4.859-3.356,1.508-1.136,2.984-2.3,4.388-3.586a15.508,15.508,0,0,0,3.288-3.89,8.783,8.783,0,0,0,.707-1.681,19.619,19.619,0,0,0,.576-3.754,25.068,25.068,0,0,0,.173-2.8,1.332,1.332,0,0,0-.251-.937.844.844,0,0,0-.482-.225,1.707,1.707,0,0,0-.759.157c-.377.136-.749.246-1.115.377-.958.34-1.885.8-2.864,1.141a20.521,20.521,0,0,1-2.141.607c-.5.12-.99.225-1.539.346a1.226,1.226,0,0,1-.832,0,.735.735,0,0,1-.293-.335,1.312,1.312,0,0,1-.084-.586,21.367,21.367,0,0,1,.476-3.524c.56-3.115.822-6.288,1.079-9.456.4-4.953.791-9.9.832-14.854.052-6.388-.471-12.78-.948-19.173-1.33-17.87-2.278-35.713-3.387-53.567-.675-10.854-1.408-21.712-2.011-32.582-.5-9-.9-18.006-.969-27.011-.058-7.717.131-15.44.466-23.152.33-7.587.8-15.168,1.623-22.718q1-9.126,2.639-18.173c2.833-15.765,6.974-31.289,11.335-46.724q1.681-5.945,3.424-11.88c.152-.508.3-1.01.45-1.518" transform="translate(-286.78 -325.44)" fill="none" stroke="#fcfafa" stroke-linecap="round" stroke-linejoin="round" stroke-width="4"/>
        </g>
        <g id="SPLINE-8" transform="translate(202.548 208.58)">
          <path id="Trazado_14" data-name="Trazado 14" d="M398.44,480.334q-.023-32.365.052-64.734" transform="translate(-398.429 -415.6)" fill="none" stroke="#fcfafa" stroke-linecap="round" stroke-linejoin="round" stroke-width="4"/>
        </g>
        <g id="SPLINE-9" transform="translate(106.432 0)">
          <path id="Trazado_15" data-name="Trazado 15" d="M311.088,213.12q.047-8.788.12-17.576c.12-14.472.3-28.948.66-43.415q.079-3.3.168-6.6c.262-10.115.513-20.241.073-30.351-.3-6.922-.916-13.833-1.168-20.749-.147-4.089-.162-8.178-.319-12.283a45.488,45.488,0,0,0-.513-5.916,48.152,48.152,0,0,0-2.775-9.068,102.9,102.9,0,0,0-4.55-10.477,100.335,100.335,0,0,0-5.215-8.749,64.354,64.354,0,0,0-5.88-7.995A74.9,74.9,0,0,0,285.48,34c-2.058-1.827-4.11-3.649-6.325-5.293a33.163,33.163,0,0,0-6.545-3.89,39.21,39.21,0,0,0-4.66-1.618,115.573,115.573,0,0,0-11.66-2.738c-4.822-.885-9.7-1.518-14.576-2.058-4.44-.492-8.89-.916-13.351-1.084-4.5-.173-9.005-.084-13.513,0" transform="translate(-214.85 -17.221)" fill="none" stroke="#fcfafa" stroke-linecap="round" stroke-linejoin="round" stroke-width="4"/>
        </g>
        <g id="SPLINE-10" transform="translate(106.442 3.188)">
          <path id="Trazado_16" data-name="Trazado 16" d="M214.87,23.31c7.162.042,14.314.445,21.477.906,4.984.319,9.974.67,14.9,1.419,3.414.518,6.8,1.236,10.194,1.963a49.96,49.96,0,0,1,8.005,2.2,33.236,33.236,0,0,1,5.283,2.738,60.354,60.354,0,0,1,8.2,6.236A82.309,82.309,0,0,1,289,44.792a73.913,73.913,0,0,1,5.031,6.126c1.152,1.581,4.89,12.194,5.906,13.869" transform="translate(-214.87 -23.31)" fill="none" stroke="#fcfafa" stroke-linecap="round" stroke-linejoin="round" stroke-width="4"/>
        </g>
        <g id="SPLINE-11" transform="translate(106.442 5.406)">
          <path id="Trazado_17" data-name="Trazado 17" d="M214.87,27.554c6.183-.005,12.372-.063,18.54.272,2.136.115,4.272.277,6.409.424,3.22.22,6.435.408,9.649.738A42.528,42.528,0,0,1,261.1,31.507a7.373,7.373,0,0,1,1.654.853,5.186,5.186,0,0,1,1.1,1.162" transform="translate(-214.87 -27.547)" fill="none" stroke="#fcfafa" stroke-linecap="round" stroke-linejoin="round" stroke-width="4"/>
        </g>
        <g id="SPLINE-12" transform="translate(106.442 6.837)">
          <path id="Trazado_18" data-name="Trazado 18" d="M214.87,30.28c5.026.01,10.053.094,15.068.3,3.995.162,7.99.4,11.99.628,2.88.162,5.759.319,8.613.639,2.592.293,5.157.728,7.765,1.162a18.281,18.281,0,0,1,3.791.906,14.867,14.867,0,0,1,3.7,2.314,20.386,20.386,0,0,1,2.937,2.754,15.733,15.733,0,0,1,1.628,2.356c.3.524.571,1.052.838,1.586" transform="translate(-214.87 -30.28)" fill="none" stroke="#fcfafa" stroke-linecap="round" stroke-linejoin="round" stroke-width="4"/>
        </g>
        <g id="SPLINE-13" transform="translate(161.082 19.55)">
          <path id="Trazado_19" data-name="Trazado 19" d="M319.23,54.56c.471.236.942.482,1.419.738a50.749,50.749,0,0,1,8.6,5.9c2.922,1.995,5.346,3.859,7.225,5.382,3.173,2.576,5.367,4.649,6.1,5.346a60.677,60.677,0,0,1,4.806,5.052c.88,1.047,1.581,1.969,2.089,2.655" transform="translate(-319.23 -54.56)" fill="none" stroke="#fcfafa" stroke-linecap="round" stroke-linejoin="round" stroke-width="4"/>
        </g>
        <g id="SPLINE-14" transform="translate(105.065 9.507)">
          <path id="Trazado_20" data-name="Trazado 20" d="M212.24,35.38c3.34.021,6.681.152,10.021.283,5.3.209,10.618.414,15.9.791,4.466.319,8.911.764,13.419,1.131a27.932,27.932,0,0,1,5.22.738,9.426,9.426,0,0,1,3.8,1.571c2.539,2.173,6.283,5.084,2.241,1.435-2.283-2.063-6.576-3.058,2.005,2.068.738.44-1.168-1.162-.628-.466.356.461,3.733,2.529,4.073,2.979" transform="translate(-212.24 -35.38)" fill="none" stroke="#fcfafa" stroke-linecap="round" stroke-linejoin="round" stroke-width="4"/>
        </g>
        <g id="SPLINE-15" transform="translate(106.437 342.876)">
          <path id="Trazado_21" data-name="Trazado 21" d="M214.865,747.353c4.45.01,8.906.079,13.356-.01,4.791-.1,9.587-.388,14.346-.822,2.979-.272,5.937-.6,8.943-.906a34.682,34.682,0,0,0,8.676-1.576,24.707,24.707,0,0,0,3.979-1.979,26.326,26.326,0,0,0,3.9-2.723,17.6,17.6,0,0,0,3.388-3.958,22.856,22.856,0,0,0,2.2-4.78,26.1,26.1,0,0,0,1.272-5.278,39.274,39.274,0,0,0,.168-5.44c-.251-14.466-1.225-28.639,0-43.284a5.06,5.06,0,0,0-.026-1.592,3.575,3.575,0,0,0-.33-.838,3.929,3.929,0,0,0-.6-.838,3.5,3.5,0,0,0-1.094-.775,5.355,5.355,0,0,0-1.728-.387c-.5-.042-.995-.058-1.492-.063a137.919,137.919,0,0,0-13.838.853q-9.063.793-18.126,1.021c-7.655.2-15.325.1-23,0" transform="translate(-214.86 -672.1)" fill="none" stroke="#fcfafa" stroke-linecap="round" stroke-linejoin="round" stroke-width="4"/>
        </g>
        <g id="SPLINE-16" transform="translate(106.447 332.687)">
          <path id="Trazado_22" data-name="Trazado 22" d="M278.86,652.64c-1.885.136-3.775.277-5.66.4-7.2.487-14.419.812-21.634,1.215-5.628.314-11.257.67-16.885.827-6.6.183-13.2.094-19.8,0" transform="translate(-214.88 -652.64)" fill="none" stroke="#fcfafa" stroke-linecap="round" stroke-linejoin="round" stroke-width="4"/>
        </g>
        <g id="SPLINE-17" transform="translate(106.442 219.837)">
          <path id="Trazado_23" data-name="Trazado 23" d="M280.955,441.236c-.811-.11-1.623-.225-2.44-.335-1.791-.241-3.581-.482-5.377-.7q-8.8-1.084-17.66-1.681c-5.937-.4-11.885-.634-17.833-.869-6.6-.262-13.2-.529-19.812-.55H214.87" transform="translate(-214.87 -437.1)" fill="none" stroke="#fcfafa" stroke-linecap="round" stroke-linejoin="round" stroke-width="4"/>
        </g>
        <g id="SPLINE-18" transform="translate(106.442 160.596)">
          <path id="Trazado_24" data-name="Trazado 24" d="M214.87,378.785c6.032.052,12.063.325,18.089.544,6.121.225,12.236.393,18.372.7,4.974.246,9.958.581,14.864,1.079,2.084.209,4.152.455,6.262.869a5.428,5.428,0,0,0,1.7.173,4.514,4.514,0,0,0,1.34-.435,5.33,5.33,0,0,0,1.429-.869,4.319,4.319,0,0,0,.984-1.482,13.421,13.421,0,0,0,.717-2.613c1.047-5.121,2.34-10.189,3.67-15.246.853-3.257,1.728-6.513,2.6-9.759.759-2.843,1.524-5.681,2.325-8.539a14.333,14.333,0,0,0,.628-3.047,7.176,7.176,0,0,0-.089-1.571,10.665,10.665,0,0,0-.628-2.178,8.722,8.722,0,0,0-.984-1.916,5.561,5.561,0,0,0-1.429-1.393,9.327,9.327,0,0,0-2.147-.958c-1.335-.455-2.675-.853-4.026-1.22-3.581-.969-7.246-1.7-10.917-2.351q-5.175-.927-10.377-1.654c-4.194-.592-8.4-1.089-12.618-1.518q-5.662-.581-11.346-.979c-2.822-.194-5.644-.351-8.471-.419-3.314-.079-6.623-.042-9.937,0" transform="translate(-214.87 -323.952)" fill="none" stroke="#fcfafa" stroke-linecap="round" stroke-linejoin="round" stroke-width="4"/>
        </g>
        <g id="SPLINE-19" transform="translate(106.447 142.883)">
          <path id="Trazado_25" data-name="Trazado 25" d="M300.2,336.739q-.11-3.589-.267-7.183c-.147-3.4-.325-6.806-.649-10.189a56.032,56.032,0,0,0-.832-5.948,14.184,14.184,0,0,0-1.189-3.723,13.624,13.624,0,0,0-2.173-2.922,33.6,33.6,0,0,0-2.88-2.717,52.925,52.925,0,0,0-4.545-3.4,43.1,43.1,0,0,0-4.424-2.665,38.612,38.612,0,0,0-5.937-2.382c-2.8-.885-5.665-1.529-8.534-2.141-2.424-.518-4.854-1.016-7.3-1.367-3.9-.565-7.854-.77-11.8-1.005-4.047-.241-8.084-.518-12.126-.691-4.728-.2-9.471-.257-14.2-.277-2.817-.01-5.639,0-8.456,0" transform="translate(-214.88 -290.121)" fill="none" stroke="#fcfafa" stroke-linecap="round" stroke-linejoin="round" stroke-width="4"/>
        </g>
        <g id="SPLINE-20" transform="translate(174.044 167.39)">
          <path id="Trazado_26" data-name="Trazado 26" d="M361.24,472.676c-.874.8-1.749,1.6-2.681,2.33-1.058.833-2.183,1.576-3.319,2.3-.822.524-1.644,1.042-2.5,1.508a17.872,17.872,0,0,1-1.864.885,4.441,4.441,0,0,1-1.319.356,2.438,2.438,0,0,1-1.225-.22,3.289,3.289,0,0,1-.864-.665,4.395,4.395,0,0,1-.953-1.241,4.964,4.964,0,0,1-.361-1.55c-.147-1.194-.262-2.361-.356-3.529-.743-8.817-.8-17.765-1.2-26.671-.2-4.555-.5-9.1-.586-13.649-.094-5.382.115-10.77.466-16.152.3-4.534.7-9.058,1.4-13.534.723-4.576,1.759-9.1,2.8-13.649,2.361-10.325,4.728-20.8,7.738-30.671a134.56,134.56,0,0,0,3.733-13.409,4.724,4.724,0,0,1,.99-2.524,4.433,4.433,0,0,1,.749-.544,50.671,50.671,0,0,1,7.539-3.77c1.126-.466,2.272-.906,3.414-1.351" transform="translate(-343.987 -336.93)" fill="none" stroke="#fcfafa" stroke-linecap="round" stroke-linejoin="round" stroke-width="4"/>
        </g>
        <g id="SPLINE-21" transform="translate(151.501 12.785)">
          <path id="Trazado_27" data-name="Trazado 27" d="M314.229,176.1c.052-1.539.094-3.079.11-4.618.084-8.178-.592-16.356-1.241-24.524-1.215-15.236-2.361-30.451-3.948-45.64q-1.791-17.184-4.288-34.289c-1.23-8.477-2.576-16.932-3.932-25.388" transform="translate(-300.93 -41.64)" fill="none" stroke="#fcfafa" stroke-linecap="round" stroke-linejoin="round" stroke-width="4"/>
        </g>
        <g id="SPLINE-22" transform="translate(188.763 181.464)">
          <path id="Trazado_28" data-name="Trazado 28" d="M372.1,363.81a21.2,21.2,0,0,1,.675,2.576,32.7,32.7,0,0,1,.4,4.367v.005" transform="translate(-372.1 -363.81)" fill="none" stroke="#fcfafa" stroke-linecap="round" stroke-linejoin="round" stroke-width="4"/>
        </g>
        <g id="LINE" transform="translate(181.842 200.402)">
          <line id="Línea_3" data-name="Línea 3" y1="5.88" x2="8.848" fill="none" stroke="#fcfafa" stroke-linecap="round" stroke-linejoin="round" stroke-width="4"/>
        </g>
        <g id="SPLINE-23" transform="translate(188.685 187.763)">
          <path id="Trazado_29" data-name="Trazado 29" d="M371.95,375.84q3.086,1.751,6.183,3.492c1.717.963,3.44,1.921,5.131,2.942a47.693,47.693,0,0,1,4.566,3.079c.806.623,1.581,1.288,2.388,1.916a20.551,20.551,0,0,1,2.6,2.189,10.174,10.174,0,0,1,1.759,2.806c.34.78.6,1.576.911,2.4a5.665,5.665,0,0,1,.56,2.257,6.964,6.964,0,0,1-.283,1.3,1.61,1.61,0,0,1-.168.476,1.245,1.245,0,0,1-.691.455,2.171,2.171,0,0,1-.77.1,5.219,5.219,0,0,1-1.487-.356c-5.283-1.806-10.482-3.309-15.44-5.492a10.318,10.318,0,0,1-1.052-.518,3.708,3.708,0,0,1-1.6-1.67c-.162-.4-.209-.838-.361-1.236a5.574,5.574,0,0,0-.7-1.2" transform="translate(-371.95 -375.84)" fill="none" stroke="#fcfafa" stroke-linecap="round" stroke-linejoin="round" stroke-width="4"/>
        </g>
        <g id="SPLINE-24" transform="translate(190.595 191.035)">
          <path id="Trazado_30" data-name="Trazado 30" d="M379.49,382.09a2.082,2.082,0,0,0-.655.173,3.147,3.147,0,0,0-.806.623,6.446,6.446,0,0,0-1.555,2.031,7.269,7.269,0,0,0-.419,2.246c-.063.764-.12,1.513-.22,2.246-.031.241-.073.487-.12.738a2.136,2.136,0,0,0-.016,1.3,1.521,1.521,0,0,0,.529.518,6.405,6.405,0,0,0,1.613.654c1.922.6,3.785,1.377,5.66,2.115,2.508.99,5.037,1.911,7.534,2.885,1.487.576,2.963,1.173,4.487,1.7a6.418,6.418,0,0,0,.9.262,3.526,3.526,0,0,0,.586.063,1.2,1.2,0,0,0,.5-.063,1.122,1.122,0,0,0,.387-.408" transform="translate(-375.599 -382.09)" fill="none" stroke="#fcfafa" stroke-linecap="round" stroke-linejoin="round" stroke-width="4"/>
        </g>
        <g id="SPLINE-25" transform="translate(28.833 464.407)">
          <path id="Trazado_31" data-name="Trazado 31" d="M144.249,923.1c-3.9.01-7.806.047-11.707,0-8.246-.1-16.466-.6-24.728-.995a86.658,86.658,0,0,1-9.047-.743,69.9,69.9,0,0,1-8.21-1.922,51.238,51.238,0,0,1-6.267-2.115A57.544,57.544,0,0,1,74.7,911.6c-1.623-1.12-3.241-2.236-4.733-3.487a29.353,29.353,0,0,1-2.183-2.021,5.556,5.556,0,0,1-.723-.859,3.582,3.582,0,0,1-.419-1.01" transform="translate(-66.64 -904.22)" fill="none" stroke="#fcfafa" stroke-linecap="round" stroke-linejoin="round" stroke-width="4"/>
        </g>
        <g id="SPLINE-26" transform="translate(7.894 273.314)">
          <path id="Trazado_32" data-name="Trazado 32" d="M125.2,747.648c-6.272.016-12.555.1-18.817-.115-7.456-.257-14.88-.937-22.346-1.592a46.535,46.535,0,0,1-5.984-.785c-1.607-.361-3.173-.9-4.77-1.34-1.157-.319-2.335-.592-3.477-.942-4.534-1.4-8.576-4.063-12.655-6.545-3.618-2.2-7.267-4.262-10.618-6.775a25.336,25.336,0,0,1-3.157-2.728,13.865,13.865,0,0,1-1.937-2.529,18.448,18.448,0,0,1-1.476-3.471c-2.147-6.435-3.021-13.142-4.272-19.77-.691-3.67-1.5-7.32-2.356-10.958-.77-3.283-1.571-6.56-2.487-9.812-.681-2.414-1.419-4.817-1.963-7.262a44.894,44.894,0,0,1-.785-4.712c-.241-2.157-.319-4.33-.393-6.5-.639-18.5-1.115-36.975-1.047-55.493.005-1.791.021-3.576.131-5.361.277-4.44,1.183-8.838,1.571-13.272.22-2.524.272-5.058.319-7.592.052-3.188.089-6.377.084-9.571-.005-2.628.351-28.66.314-31.283" transform="translate(-26.648 -539.24)" fill="none" stroke="#fcfafa" stroke-linecap="round" stroke-linejoin="round" stroke-width="4"/>
        </g>
        <g id="SPLINE-27" transform="translate(39.723 445.48)">
          <path id="Trazado_33" data-name="Trazado 33" d="M154.159,875.552c-3.628,0-7.257-.01-10.885-.1q-9.118-.236-18.2-1.131-8.466-.825-16.869-2.157-9.118-1.453-18.126-3.487-1.319-.3-2.639-.6" transform="translate(-87.44 -868.07)" fill="none" stroke="#fcfafa" stroke-linecap="round" stroke-linejoin="round" stroke-width="4"/>
        </g>
        <g id="SPLINE-28" transform="translate(37.352 414.925)">
          <path id="Trazado_34" data-name="Trazado 34" d="M82.91,809.71c1.833.482,3.67.963,5.508,1.429,3.293.838,6.6,1.634,9.927,2.34,4.388.937,8.812,1.717,13.252,2.409,4.267.665,8.55,1.241,12.854,1.639,4.817.44,9.66.654,14.5.733,4.351.073,8.7.037,13.053,0" transform="translate(-82.91 -809.71)" fill="none" stroke="#fcfafa" stroke-linecap="round" stroke-linejoin="round" stroke-width="4"/>
        </g>
        <g id="SPLINE-29" transform="translate(55.892 462.099)">
          <path id="Trazado_35" data-name="Trazado 35" d="M168.872,907.994c-4.2.026-8.4.168-12.6.052-4.995-.136-9.974-.639-14.964-1.11-4.785-.45-9.576-.88-14.314-1.586-2.539-.377-5.063-.838-7.623-1.225a1.968,1.968,0,0,1-.6-.157.819.819,0,0,1-.4-.388,1.2,1.2,0,0,1-.042-.581c.079-.911.11-1.728.2-2.634a.68.68,0,0,1,.084-.325.493.493,0,0,1,.236-.188,1.019,1.019,0,0,1,.419-.037,43.334,43.334,0,0,1,4.932.675c3.283.55,6.623.953,9.964,1.278,2.759.272,5.518.5,8.278.749,4.471.408,8.943.885,13.435,1.058,2.634.1,5.278.1,7.916.1h5.073" transform="translate(-118.322 -899.811)" fill="none" stroke="#fcfafa" stroke-linecap="round" stroke-linejoin="round" stroke-width="4"/>
        </g>
        <g id="SPLINE-30" transform="translate(68.558 471.859)">
          <path id="Trazado_36" data-name="Trazado 36" d="M180.4,923.525c-1.613-.016-3.22-.026-4.833-.052-3.45-.052-6.9-.152-10.351-.278-2.969-.11-5.937-.246-8.9-.466-2.874-.215-5.749-.518-8.587-.953-1.524-.23-3.037-.5-4.576-.733a1.224,1.224,0,0,1-.361-.094.5.5,0,0,1-.241-.236.714.714,0,0,1-.026-.351c.047-.545.068-1.037.12-1.581a.479.479,0,0,1,.047-.194.269.269,0,0,1,.141-.11.58.58,0,0,1,.251-.021,25.952,25.952,0,0,1,2.958.4c1.969.33,3.974.571,5.979.77,1.654.162,3.309.3,4.963.45,2.681.236,5.367.5,8.058.634,3.4.173,6.812.147,10.215.162q2.568.008,5.126.042" transform="translate(-142.513 -918.452)" fill="none" stroke="#fcfafa" stroke-linecap="round" stroke-linejoin="round" stroke-width="4"/>
        </g>
        <g id="SPLINE-31" transform="translate(24.713 161.375)">
          <path id="Trazado_37" data-name="Trazado 37" d="M102.849,636.007c-.628-.084-1.257-.167-1.885-.246-1.628-.194-3.257-.325-4.9-.445a29.461,29.461,0,0,1-5.408-.7,27.377,27.377,0,0,1-4.644-1.859,86.719,86.719,0,0,1-8.6-4.461c-1.675-1.031-3.288-2.178-4.859-3.356-1.508-1.136-2.984-2.3-4.388-3.586a15.509,15.509,0,0,1-3.288-3.89,8.784,8.784,0,0,1-.707-1.681,19.621,19.621,0,0,1-.576-3.754,25.063,25.063,0,0,1-.173-2.8,1.331,1.331,0,0,1,.251-.937.844.844,0,0,1,.482-.225,1.707,1.707,0,0,1,.759.157c.377.136.749.246,1.115.377.958.34,1.885.8,2.864,1.141a20.529,20.529,0,0,0,2.141.607c.5.12.99.225,1.539.346a1.226,1.226,0,0,0,.832,0,.735.735,0,0,0,.293-.335,1.312,1.312,0,0,0,.084-.586,21.368,21.368,0,0,0-.476-3.524c-.56-3.115-.822-6.288-1.079-9.456-.4-4.953-.791-9.9-.832-14.854-.052-6.388.471-12.78.948-19.173,1.33-17.87,2.278-35.713,3.388-53.567.675-10.854,1.408-21.712,2.011-32.582.5-9,.9-18.006.969-27.011.058-7.717-.131-15.44-.466-23.152-.33-7.587-.8-15.168-1.623-22.718q-1-9.126-2.639-18.173c-2.833-15.765-6.974-31.289-11.335-46.724q-1.681-5.945-3.424-11.88c-.152-.508-.3-1.01-.45-1.518" transform="translate(-58.77 -325.44)" fill="none" stroke="#fcfafa" stroke-linecap="round" stroke-linejoin="round" stroke-width="4"/>
        </g>
        <g id="SPLINE-32" transform="translate(10.273 208.58)">
          <path id="Trazado_38" data-name="Trazado 38" d="M31.242,480.334q.024-32.365-.052-64.734" transform="translate(-31.19 -415.6)" fill="none" stroke="#fcfafa" stroke-linecap="round" stroke-linejoin="round" stroke-width="4"/>
        </g>
        <g id="SPLINE-33" transform="translate(8.954 0)">
          <path id="Trazado_39" data-name="Trazado 39" d="M29.933,213.12q-.047-8.788-.12-17.576c-.12-14.472-.3-28.948-.66-43.415q-.079-3.3-.168-6.6c-.262-10.115-.513-20.241-.073-30.351.3-6.922.916-13.833,1.168-20.749.147-4.089.162-8.178.319-12.283a45.479,45.479,0,0,1,.513-5.916,48.153,48.153,0,0,1,2.775-9.068,102.9,102.9,0,0,1,4.55-10.477,100.321,100.321,0,0,1,5.215-8.749,64.357,64.357,0,0,1,5.88-7.995A74.9,74.9,0,0,1,55.541,34c2.058-1.827,4.11-3.649,6.325-5.293a33.164,33.164,0,0,1,6.545-3.89A39.21,39.21,0,0,1,73.07,23.2a115.573,115.573,0,0,1,11.66-2.738c4.822-.885,9.7-1.518,14.576-2.058,4.44-.492,8.89-.916,13.351-1.084,4.5-.173,9.005-.084,13.513,0" transform="translate(-28.672 -17.221)" fill="none" stroke="#fcfafa" stroke-linecap="round" stroke-linejoin="round" stroke-width="4"/>
        </g>
        <g id="SPLINE-34" transform="translate(20.179 3.188)">
          <path id="Trazado_40" data-name="Trazado 40" d="M136.374,23.31c-7.162.042-14.314.445-21.477.906-4.984.319-9.974.67-14.9,1.419-3.414.518-6.8,1.236-10.194,1.963A49.959,49.959,0,0,0,81.8,29.8a33.234,33.234,0,0,0-5.283,2.738,60.354,60.354,0,0,0-8.2,6.236,82.306,82.306,0,0,0-6.068,6.021,73.906,73.906,0,0,0-5.032,6.126q-1.728,2.372-3.246,4.88a37.92,37.92,0,0,0-2.754,5.293c-.429,1.047-.78,2.12-1.1,3.2" transform="translate(-50.11 -23.31)" fill="none" stroke="#fcfafa" stroke-linecap="round" stroke-linejoin="round" stroke-width="4"/>
        </g>
        <g id="SPLINE-35" transform="translate(57.452 5.406)">
          <path id="Trazado_41" data-name="Trazado 41" d="M170.291,27.554c-6.183-.005-12.372-.063-18.54.272-2.136.115-4.272.277-6.409.424-3.22.22-6.435.408-9.649.738a42.529,42.529,0,0,0-11.634,2.518,7.374,7.374,0,0,0-1.654.853,5.186,5.186,0,0,0-1.1,1.162" transform="translate(-121.3 -27.547)" fill="none" stroke="#fcfafa" stroke-linecap="round" stroke-linejoin="round" stroke-width="4"/>
        </g>
        <g id="SPLINE-36" transform="translate(50.111 6.837)">
          <path id="Trazado_42" data-name="Trazado 42" d="M163.611,30.28c-5.026.01-10.053.094-15.068.3-3.995.162-7.99.4-11.99.628-2.88.162-5.759.319-8.613.639-2.592.293-5.157.728-7.765,1.162a18.281,18.281,0,0,0-3.791.906,14.869,14.869,0,0,0-3.7,2.314,20.387,20.387,0,0,0-2.937,2.754,15.73,15.73,0,0,0-1.628,2.356c-.3.524-.571,1.052-.838,1.586" transform="translate(-107.28 -30.28)" fill="none" stroke="#fcfafa" stroke-linecap="round" stroke-linejoin="round" stroke-width="4"/>
        </g>
        <g id="SPLINE-37" transform="translate(50.556 9.696)">
          <path id="Trazado_43" data-name="Trazado 43" d="M164.016,35.74c-3.34.021-6.681.152-10.021.283-5.3.209-10.618.414-15.9.791-4.466.319-8.911.764-13.419,1.131a27.932,27.932,0,0,0-5.22.738,18.728,18.728,0,0,0-3.8,1.571,13.266,13.266,0,0,0-2.241,1.435,17.833,17.833,0,0,0-2.005,2.068c-.586.67-1.691,1.351-2.23,2.047-.356.461-.723.6-1.058,1.052" transform="translate(-108.13 -35.74)" fill="none" stroke="#fcfafa" stroke-linecap="round" stroke-linejoin="round" stroke-width="4"/>
        </g>
        <g id="SPLINE-38" transform="translate(46.171 342.876)">
          <path id="Trazado_44" data-name="Trazado 44" d="M160.026,747.353c-4.45.01-8.906.079-13.356-.01-4.791-.1-9.587-.388-14.346-.822-2.979-.272-5.937-.6-8.943-.906a34.682,34.682,0,0,1-8.676-1.576,24.71,24.71,0,0,1-3.979-1.979,26.329,26.329,0,0,1-3.9-2.723,17.6,17.6,0,0,1-3.387-3.958,22.851,22.851,0,0,1-2.2-4.78,26.1,26.1,0,0,1-1.272-5.278,39.277,39.277,0,0,1-.168-5.44c.251-14.466,1.225-28.639,0-43.284a5.06,5.06,0,0,1,.026-1.592,3.575,3.575,0,0,1,.33-.838,3.929,3.929,0,0,1,.6-.838,3.5,3.5,0,0,1,1.094-.775,5.355,5.355,0,0,1,1.728-.387c.5-.042.995-.058,1.492-.063a137.919,137.919,0,0,1,13.838.853q9.063.793,18.126,1.021c7.655.2,15.325.1,23,0" transform="translate(-99.755 -672.1)" fill="none" stroke="#fcfafa" stroke-linecap="round" stroke-linejoin="round" stroke-width="4"/>
        </g>
        <g id="SPLINE-39" transform="translate(42.456 332.687)">
          <path id="Trazado_45" data-name="Trazado 45" d="M92.66,652.64c1.885.136,3.775.277,5.66.4,7.2.487,14.419.812,21.634,1.215,5.628.314,11.257.67,16.885.827,6.6.183,13.2.094,19.8,0" transform="translate(-92.66 -652.64)" fill="none" stroke="#fcfafa" stroke-linecap="round" stroke-linejoin="round" stroke-width="4"/>
        </g>
        <g id="SPLINE-40" transform="translate(40.357 219.837)">
          <path id="Trazado_46" data-name="Trazado 46" d="M88.65,441.236c.812-.11,1.623-.225,2.44-.335,1.791-.241,3.581-.482,5.377-.7q8.8-1.084,17.66-1.681c5.937-.4,11.885-.634,17.833-.869,6.6-.262,13.2-.529,19.812-.55h2.963" transform="translate(-88.65 -437.1)" fill="none" stroke="#fcfafa" stroke-linecap="round" stroke-linejoin="round" stroke-width="4"/>
        </g>
        <g id="SPLINE-41" transform="translate(33.452 160.596)">
          <path id="Trazado_47" data-name="Trazado 47" d="M148.452,378.785c-6.032.052-12.063.325-18.089.544-6.121.225-12.236.393-18.372.7-4.974.246-9.958.581-14.864,1.079-2.084.209-4.152.455-6.262.869a5.428,5.428,0,0,1-1.7.173,4.514,4.514,0,0,1-1.34-.435,5.329,5.329,0,0,1-1.429-.869,4.319,4.319,0,0,1-.984-1.482,13.424,13.424,0,0,1-.717-2.613c-1.047-5.121-2.34-10.189-3.67-15.246-.853-3.257-1.728-6.513-2.6-9.759-.759-2.843-1.524-5.681-2.325-8.539a14.333,14.333,0,0,1-.628-3.047,7.176,7.176,0,0,1,.089-1.571,10.664,10.664,0,0,1,.628-2.178,8.723,8.723,0,0,1,.984-1.916A5.562,5.562,0,0,1,78.6,333.1a9.327,9.327,0,0,1,2.147-.958c1.335-.455,2.675-.853,4.026-1.22,3.581-.969,7.246-1.7,10.916-2.351q5.175-.927,10.377-1.654c4.194-.592,8.4-1.089,12.618-1.518q5.662-.581,11.346-.979c2.822-.194,5.644-.351,8.471-.419,3.314-.079,6.623-.042,9.937,0" transform="translate(-75.462 -323.952)" fill="none" stroke="#fcfafa" stroke-linecap="round" stroke-linejoin="round" stroke-width="4"/>
        </g>
        <g id="SPLINE-42" transform="translate(21.121 142.883)">
          <path id="Trazado_48" data-name="Trazado 48" d="M51.91,336.739q.11-3.589.267-7.183c.147-3.4.325-6.806.649-10.189a56.026,56.026,0,0,1,.832-5.948,14.183,14.183,0,0,1,1.189-3.723,13.625,13.625,0,0,1,2.173-2.922,33.6,33.6,0,0,1,2.88-2.717,52.933,52.933,0,0,1,4.545-3.4,43.1,43.1,0,0,1,4.424-2.665,38.61,38.61,0,0,1,5.937-2.382c2.8-.885,5.665-1.529,8.534-2.141,2.424-.518,4.854-1.016,7.3-1.367,3.9-.565,7.854-.77,11.8-1.005,4.047-.241,8.084-.518,12.126-.691,4.728-.2,9.471-.257,14.2-.277,2.817-.01,5.639,0,8.456,0" transform="translate(-51.91 -290.121)" fill="none" stroke="#fcfafa" stroke-linecap="round" stroke-linejoin="round" stroke-width="4"/>
        </g>
        <g id="SPLINE-43" transform="translate(9.985 167.39)">
          <path id="Trazado_49" data-name="Trazado 49" d="M42.242,472.676c.874.8,1.749,1.6,2.681,2.33,1.058.833,2.183,1.576,3.319,2.3.822.524,1.644,1.042,2.5,1.508a17.871,17.871,0,0,0,1.864.885,4.441,4.441,0,0,0,1.319.356,2.438,2.438,0,0,0,1.225-.22,3.288,3.288,0,0,0,.864-.665,4.395,4.395,0,0,0,.953-1.241,4.964,4.964,0,0,0,.361-1.55c.147-1.194.262-2.361.356-3.529.743-8.817.8-17.765,1.2-26.671.2-4.555.5-9.1.586-13.649.094-5.382-.115-10.77-.466-16.152-.3-4.534-.7-9.058-1.4-13.534-.723-4.576-1.759-9.1-2.8-13.649-2.361-10.325-4.728-20.8-7.738-30.671a134.56,134.56,0,0,1-3.733-13.409,4.724,4.724,0,0,0-.99-2.524,4.431,4.431,0,0,0-.749-.544,50.669,50.669,0,0,0-7.539-3.77c-1.126-.466-2.272-.906-3.414-1.351" transform="translate(-30.64 -336.93)" fill="none" stroke="#fcfafa" stroke-linecap="round" stroke-linejoin="round" stroke-width="4"/>
        </g>
        <g id="SPLINE-44" transform="translate(20.184 17.685)">
          <path id="Trazado_50" data-name="Trazado 50" d="M73.78,181.269c.168-6.56.34-13.121.571-19.676q.44-12.581,1.173-25.152c.607-10.094,1.393-20.184,2.476-30.231,1.068-9.927,2.429-19.812,3.812-29.734,1.026-7.361,2.063-14.744,3.576-21.959.168-.8.346-1.607.518-2.424a1.356,1.356,0,0,0,.021-.723.57.57,0,0,0-.283-.351.86.86,0,0,0-.56.1c-.5.188-.717.251-.806.293-.492.241-23.163,18.021-34.158,26.063" transform="translate(-50.12 -50.999)" fill="none" stroke="#fcfafa" stroke-linecap="round" stroke-linejoin="round" stroke-width="4"/>
        </g>
        <g id="SPLINE-45" transform="translate(23.042 181.464)">
          <path id="Trazado_51" data-name="Trazado 51" d="M56.659,363.81a21.19,21.19,0,0,0-.675,2.576,32.7,32.7,0,0,0-.4,4.367v.005" transform="translate(-55.58 -363.81)" fill="none" stroke="#fcfafa" stroke-linecap="round" stroke-linejoin="round" stroke-width="4"/>
        </g>
        <g id="LINE-2" transform="translate(22.194 200.402)">
          <line id="Línea_4" data-name="Línea 4" x1="8.843" y1="5.88" fill="none" stroke="#fcfafa" stroke-linecap="round" stroke-linejoin="round" stroke-width="4"/>
        </g>
        <g id="SPLINE-46" transform="translate(0.095 187.757)">
          <path id="Trazado_52" data-name="Trazado 52" d="M35.856,375.83q-3.086,1.751-6.183,3.492c-1.717.963-3.44,1.922-5.131,2.942a47.7,47.7,0,0,0-4.566,3.079c-.806.623-1.581,1.288-2.387,1.916a20.558,20.558,0,0,0-2.6,2.189,10.173,10.173,0,0,0-1.759,2.806c-.34.78-.6,1.576-.911,2.4a5.664,5.664,0,0,0-.56,2.257,6.96,6.96,0,0,0,.283,1.3,1.61,1.61,0,0,0,.168.476,1.245,1.245,0,0,0,.691.455,2.17,2.17,0,0,0,.77.1,5.219,5.219,0,0,0,1.487-.356c5.283-1.806,10.482-3.309,15.44-5.492a10.31,10.31,0,0,0,1.052-.518,3.709,3.709,0,0,0,1.6-1.67c.162-.4.209-.838.361-1.236a5.574,5.574,0,0,1,.7-1.2" transform="translate(-11.751 -375.83)" fill="none" stroke="#fcfafa" stroke-linecap="round" stroke-linejoin="round" stroke-width="4"/>
        </g>
        <g id="SPLINE-47" transform="translate(0 191.035)">
          <path id="Trazado_53" data-name="Trazado 53" d="M29.968,382.09a2.082,2.082,0,0,1,.654.173,3.147,3.147,0,0,1,.806.623,6.445,6.445,0,0,1,1.555,2.031,7.269,7.269,0,0,1,.419,2.246c.063.764.12,1.513.22,2.246.031.241.073.487.12.738a2.135,2.135,0,0,1,.016,1.3,1.521,1.521,0,0,1-.529.518,6.4,6.4,0,0,1-1.613.654c-1.922.6-3.785,1.377-5.66,2.115-2.508.99-5.037,1.911-7.534,2.885-1.487.576-2.963,1.173-4.487,1.7a6.416,6.416,0,0,1-.9.262,3.526,3.526,0,0,1-.586.063,1.2,1.2,0,0,1-.5-.063,1.122,1.122,0,0,1-.387-.408" transform="translate(-11.57 -382.09)" fill="none" stroke="#fcfafa" stroke-linecap="round" stroke-linejoin="round" stroke-width="4"/>
        </g>
      </g>
      <text id="Puerta_Abierta" data-name="Puerta
Abierta" transform="translate(380 418)" fill="#959595" font-size="10" font-family="SFProDisplay-Bold, SF Pro Display" font-weight="700" letter-spacing="0.07em"><tspan x="-16.889" y="0">Puerta</tspan><tspan x="-18.904" y="12">Abierta</tspan></text>
      <text id="Puerta_Abierta-2" data-name="Puerta
Abierta" transform="translate(380 561)" fill="#959595" font-size="10" font-family="SFProDisplay-Bold, SF Pro Display" font-weight="700" letter-spacing="0.07em"><tspan x="-16.889" y="0">Puerta</tspan><tspan x="-18.904" y="12">Abierta</tspan></text>
      <text id="Puerta_Abierta-3" data-name="Puerta
Abierta" transform="translate(50 418)" fill="#959595" font-size="10" font-family="SFProDisplay-Bold, SF Pro Display" font-weight="700" letter-spacing="0.07em"><tspan x="-16.889" y="0">Puerta</tspan><tspan x="-18.904" y="12">Abierta</tspan></text>
      <text id="Puerta_Abierta-4" data-name="Puerta
Abierta" transform="translate(50 561)" fill="#959595" font-size="10" font-family="SFProDisplay-Bold, SF Pro Display" font-weight="700" letter-spacing="0.07em"><tspan x="-16.889" y="0">Puerta</tspan><tspan x="-18.904" y="12">Abierta</tspan></text>
      <g id="Grupo_31" data-name="Grupo 31" transform="translate(0 -4)">
        <g id="Grupo_15" data-name="Grupo 15" transform="translate(24 355.947)">
          <g transform="matrix(1, 0, 0, 1, -15, -113.4)" filter="url(#Trazado_54)">
            <g id="Trazado_54-5" data-name="Trazado 54" transform="translate(15 113.46)" fill="#bcbcbc">
              <path d="M 26 51.5 C 22.55730056762695 51.5 19.21784973144531 50.82585144042969 16.07439994812012 49.49628829956055 C 13.03794002532959 48.21197128295898 10.31081962585449 46.37326049804688 7.968780040740967 44.03121948242188 C 5.626739978790283 41.68917846679688 3.788029909133911 38.96205902099609 2.503710031509399 35.92559814453125 C 1.174149990081787 32.78215026855469 0.5 29.44269943237305 0.5 26 C 0.5 22.55730056762695 1.174149990081787 19.21784973144531 2.503710031509399 16.07439994812012 C 3.788029909133911 13.03794002532959 5.626739978790283 10.31081962585449 7.968780040740967 7.968780040740967 C 10.31081962585449 5.626739978790283 13.03794002532959 3.788029909133911 16.07439994812012 2.503710031509399 C 19.21784973144531 1.174149990081787 22.55730056762695 0.5 26 0.5 C 29.44269943237305 0.5 32.78215026855469 1.174149990081787 35.92559814453125 2.503710031509399 C 38.96205902099609 3.788029909133911 41.68917846679688 5.626739978790283 44.03121948242188 7.968780040740967 C 46.37326049804688 10.31081962585449 48.21197128295898 13.03794002532959 49.49628829956055 16.07439994812012 C 50.82585144042969 19.21784973144531 51.5 22.55730056762695 51.5 26 C 51.5 29.44269943237305 50.82585144042969 32.78215026855469 49.49628829956055 35.92559814453125 C 48.21197128295898 38.96205902099609 46.37326049804688 41.68917846679688 44.03121948242188 44.03121948242188 C 41.68917846679688 46.37326049804688 38.96205902099609 48.21197128295898 35.92559814453125 49.49628829956055 C 32.78215026855469 50.82585144042969 29.44269943237305 51.5 26 51.5 Z" stroke="none"/>
              <path d="M 26 1 C 22.62458038330078 1 19.35065841674805 1.660858154296875 16.26918029785156 2.964210510253906 C 13.29232025146484 4.223320007324219 10.61861038208008 6.026050567626953 8.322330474853516 8.322330474853516 C 6.026050567626953 10.61861038208008 4.223320007324219 13.29232025146484 2.964210510253906 16.26918029785156 C 1.660858154296875 19.35065841674805 1 22.62458038330078 1 26 C 1 29.37541961669922 1.660858154296875 32.64933776855469 2.964210510253906 35.73081970214844 C 4.223320007324219 38.70767974853516 6.026050567626953 41.38138961791992 8.322330474853516 43.67766952514648 C 10.61861038208008 45.97394943237305 13.29232025146484 47.77667999267578 16.26918029785156 49.03578948974609 C 19.35065841674805 50.33914184570312 22.62458038330078 51 26 51 C 29.37541961669922 51 32.64933776855469 50.33914184570312 35.73081970214844 49.03578948974609 C 38.70767974853516 47.77667999267578 41.38138961791992 45.97394943237305 43.67766952514648 43.67766952514648 C 45.97394943237305 41.38138961791992 47.77667999267578 38.70767974853516 49.03578948974609 35.73081970214844 C 50.33914184570312 32.64933776855469 51 29.37541961669922 51 26 C 51 22.62458038330078 50.33914184570312 19.35065841674805 49.03578948974609 16.26918029785156 C 47.77667999267578 13.29232025146484 45.97394943237305 10.61861038208008 43.67766952514648 8.322330474853516 C 41.38138961791992 6.026050567626953 38.70767974853516 4.223320007324219 35.73081970214844 2.964210510253906 C 32.64933776855469 1.660858154296875 29.37541961669922 1 26 1 M 26 0 C 40.35939788818359 0 52 11.64059829711914 52 26 C 52 40.35939788818359 40.35939788818359 52 26 52 C 11.64059829711914 52 0 40.35939788818359 0 26 C 0 11.64059829711914 11.64059829711914 0 26 0 Z" stroke="none" fill="#66b0e6"/>
            </g>
          </g>
        </g>
        <g transform="matrix(1, 0, 0, 1, 9, 242.54)" filter="url(#unlock-2)">
          <path id="unlock-2-5" data-name="unlock-2" d="M15.277,0A7.384,7.384,0,0,0,7.911,7.435v4.957A4.95,4.95,0,0,0,3,17.349v9.914A4.95,4.95,0,0,0,7.911,32.22H22.643a4.95,4.95,0,0,0,4.911-4.957V17.349a4.95,4.95,0,0,0-4.911-4.957H10.366V7.435a4.83,4.83,0,0,1,4.911-4.957,4.83,4.83,0,0,1,4.911,4.957V8.675h2.455V7.435A7.384,7.384,0,0,0,15.277,0Zm0,18.588a2.472,2.472,0,0,1,2.455,2.478A2.376,2.376,0,0,1,16.5,23.158v2.866a1.228,1.228,0,1,1-2.455,0V23.158a2.376,2.376,0,0,1-1.228-2.091A2.472,2.472,0,0,1,15.277,18.588Z" transform="translate(26 123.46)" fill="#54aeec"/>
        </g>
      </g>
      <g id="Grupo_27" data-name="Grupo 27" transform="translate(24 579.947)">
        <g transform="matrix(1, 0, 0, 1, -15, -341.4)" filter="url(#Trazado_54-2)">
          <g id="Trazado_54-6" data-name="Trazado 54" transform="translate(15 341.46)" fill="#bcbcbc">
            <path d="M 26 51.5 C 22.55730056762695 51.5 19.21784973144531 50.82585144042969 16.07439994812012 49.49628829956055 C 13.03794002532959 48.21197128295898 10.31081962585449 46.37326049804688 7.968780040740967 44.03121948242188 C 5.626739978790283 41.68917846679688 3.788029909133911 38.96205902099609 2.503710031509399 35.92559814453125 C 1.174149990081787 32.78215026855469 0.5 29.44269943237305 0.5 26 C 0.5 22.55730056762695 1.174149990081787 19.21784973144531 2.503710031509399 16.07439994812012 C 3.788029909133911 13.03794002532959 5.626739978790283 10.31081962585449 7.968780040740967 7.968780040740967 C 10.31081962585449 5.626739978790283 13.03794002532959 3.788029909133911 16.07439994812012 2.503710031509399 C 19.21784973144531 1.174149990081787 22.55730056762695 0.5 26 0.5 C 29.44269943237305 0.5 32.78215026855469 1.174149990081787 35.92559814453125 2.503710031509399 C 38.96205902099609 3.788029909133911 41.68917846679688 5.626739978790283 44.03121948242188 7.968780040740967 C 46.37326049804688 10.31081962585449 48.21197128295898 13.03794002532959 49.49628829956055 16.07439994812012 C 50.82585144042969 19.21784973144531 51.5 22.55730056762695 51.5 26 C 51.5 29.44269943237305 50.82585144042969 32.78215026855469 49.49628829956055 35.92559814453125 C 48.21197128295898 38.96205902099609 46.37326049804688 41.68917846679688 44.03121948242188 44.03121948242188 C 41.68917846679688 46.37326049804688 38.96205902099609 48.21197128295898 35.92559814453125 49.49628829956055 C 32.78215026855469 50.82585144042969 29.44269943237305 51.5 26 51.5 Z" stroke="none"/>
            <path d="M 26 1 C 22.62458038330078 1 19.35065841674805 1.660858154296875 16.26918029785156 2.964210510253906 C 13.29232025146484 4.223320007324219 10.61861038208008 6.026050567626953 8.322330474853516 8.322330474853516 C 6.026050567626953 10.61861038208008 4.223320007324219 13.29232025146484 2.964210510253906 16.26918029785156 C 1.660858154296875 19.35065841674805 1 22.62458038330078 1 26 C 1 29.37541961669922 1.660858154296875 32.64933776855469 2.964210510253906 35.73081970214844 C 4.223320007324219 38.70767974853516 6.026050567626953 41.38138961791992 8.322330474853516 43.67766952514648 C 10.61861038208008 45.97394943237305 13.29232025146484 47.77667999267578 16.26918029785156 49.03578948974609 C 19.35065841674805 50.33914184570312 22.62458038330078 51 26 51 C 29.37541961669922 51 32.64933776855469 50.33914184570312 35.73081970214844 49.03578948974609 C 38.70767974853516 47.77667999267578 41.38138961791992 45.97394943237305 43.67766952514648 43.67766952514648 C 45.97394943237305 41.38138961791992 47.77667999267578 38.70767974853516 49.03578948974609 35.73081970214844 C 50.33914184570312 32.64933776855469 51 29.37541961669922 51 26 C 51 22.62458038330078 50.33914184570312 19.35065841674805 49.03578948974609 16.26918029785156 C 47.77667999267578 13.29232025146484 45.97394943237305 10.61861038208008 43.67766952514648 8.322330474853516 C 41.38138961791992 6.026050567626953 38.70767974853516 4.223320007324219 35.73081970214844 2.964210510253906 C 32.64933776855469 1.660858154296875 29.37541961669922 1 26 1 M 26 0 C 40.35939788818359 0 52 11.64059829711914 52 26 C 52 40.35939788818359 40.35939788818359 52 26 52 C 11.64059829711914 52 0 40.35939788818359 0 26 C 0 11.64059829711914 11.64059829711914 0 26 0 Z" stroke="none" fill="#66b0e6"/>
          </g>
        </g>
      </g>
      <g transform="matrix(1, 0, 0, 1, 9, 238.54)" filter="url(#unlock-2-2)">
        <path id="unlock-2-6" data-name="unlock-2" d="M15.277,0A7.384,7.384,0,0,0,7.911,7.435v4.957A4.95,4.95,0,0,0,3,17.349v9.914A4.95,4.95,0,0,0,7.911,32.22H22.643a4.95,4.95,0,0,0,4.911-4.957V17.349a4.95,4.95,0,0,0-4.911-4.957H10.366V7.435a4.83,4.83,0,0,1,4.911-4.957,4.83,4.83,0,0,1,4.911,4.957V8.675h2.455V7.435A7.384,7.384,0,0,0,15.277,0Zm0,18.588a2.472,2.472,0,0,1,2.455,2.478A2.376,2.376,0,0,1,16.5,23.158v2.866a1.228,1.228,0,1,1-2.455,0V23.158a2.376,2.376,0,0,1-1.228-2.091A2.472,2.472,0,0,1,15.277,18.588Z" transform="translate(26 350.35)" fill="#54aeec"/>
      </g>
      <g id="Grupo_29" data-name="Grupo 29" transform="translate(61 -2)">
        <g id="Grupo_28" data-name="Grupo 28" transform="translate(293 581.947)">
          <g transform="matrix(1, 0, 0, 1, -345, -341.4)" filter="url(#Trazado_54-3)">
            <g id="Trazado_54-7" data-name="Trazado 54" transform="translate(345 341.46)" fill="#bcbcbc">
              <path d="M 26 51.5 C 22.55730056762695 51.5 19.21784973144531 50.82585144042969 16.07439994812012 49.49628829956055 C 13.03794002532959 48.21197128295898 10.31081962585449 46.37326049804688 7.968780040740967 44.03121948242188 C 5.626739978790283 41.68917846679688 3.788029909133911 38.96205902099609 2.503710031509399 35.92559814453125 C 1.174149990081787 32.78215026855469 0.5 29.44269943237305 0.5 26 C 0.5 22.55730056762695 1.174149990081787 19.21784973144531 2.503710031509399 16.07439994812012 C 3.788029909133911 13.03794002532959 5.626739978790283 10.31081962585449 7.968780040740967 7.968780040740967 C 10.31081962585449 5.626739978790283 13.03794002532959 3.788029909133911 16.07439994812012 2.503710031509399 C 19.21784973144531 1.174149990081787 22.55730056762695 0.5 26 0.5 C 29.44269943237305 0.5 32.78215026855469 1.174149990081787 35.92559814453125 2.503710031509399 C 38.96205902099609 3.788029909133911 41.68917846679688 5.626739978790283 44.03121948242188 7.968780040740967 C 46.37326049804688 10.31081962585449 48.21197128295898 13.03794002532959 49.49628829956055 16.07439994812012 C 50.82585144042969 19.21784973144531 51.5 22.55730056762695 51.5 26 C 51.5 29.44269943237305 50.82585144042969 32.78215026855469 49.49628829956055 35.92559814453125 C 48.21197128295898 38.96205902099609 46.37326049804688 41.68917846679688 44.03121948242188 44.03121948242188 C 41.68917846679688 46.37326049804688 38.96205902099609 48.21197128295898 35.92559814453125 49.49628829956055 C 32.78215026855469 50.82585144042969 29.44269943237305 51.5 26 51.5 Z" stroke="none"/>
              <path d="M 26 1 C 22.62458038330078 1 19.35065841674805 1.660858154296875 16.26918029785156 2.964210510253906 C 13.29232025146484 4.223320007324219 10.61861038208008 6.026050567626953 8.322330474853516 8.322330474853516 C 6.026050567626953 10.61861038208008 4.223320007324219 13.29232025146484 2.964210510253906 16.26918029785156 C 1.660858154296875 19.35065841674805 1 22.62458038330078 1 26 C 1 29.37541961669922 1.660858154296875 32.64933776855469 2.964210510253906 35.73081970214844 C 4.223320007324219 38.70767974853516 6.026050567626953 41.38138961791992 8.322330474853516 43.67766952514648 C 10.61861038208008 45.97394943237305 13.29232025146484 47.77667999267578 16.26918029785156 49.03578948974609 C 19.35065841674805 50.33914184570312 22.62458038330078 51 26 51 C 29.37541961669922 51 32.64933776855469 50.33914184570312 35.73081970214844 49.03578948974609 C 38.70767974853516 47.77667999267578 41.38138961791992 45.97394943237305 43.67766952514648 43.67766952514648 C 45.97394943237305 41.38138961791992 47.77667999267578 38.70767974853516 49.03578948974609 35.73081970214844 C 50.33914184570312 32.64933776855469 51 29.37541961669922 51 26 C 51 22.62458038330078 50.33914184570312 19.35065841674805 49.03578948974609 16.26918029785156 C 47.77667999267578 13.29232025146484 45.97394943237305 10.61861038208008 43.67766952514648 8.322330474853516 C 41.38138961791992 6.026050567626953 38.70767974853516 4.223320007324219 35.73081970214844 2.964210510253906 C 32.64933776855469 1.660858154296875 29.37541961669922 1 26 1 M 26 0 C 40.35939788818359 0 52 11.64059829711914 52 26 C 52 40.35939788818359 40.35939788818359 52 26 52 C 11.64059829711914 52 0 40.35939788818359 0 26 C 0 11.64059829711914 11.64059829711914 0 26 0 Z" stroke="none" fill="#66b0e6"/>
            </g>
          </g>
        </g>
        <g transform="matrix(1, 0, 0, 1, -52, 240.54)" filter="url(#unlock-2-3)">
          <path id="unlock-2-7" data-name="unlock-2" d="M15.277,0A7.384,7.384,0,0,0,7.911,7.435v4.957A4.95,4.95,0,0,0,3,17.349v9.914A4.95,4.95,0,0,0,7.911,32.22H22.643a4.95,4.95,0,0,0,4.911-4.957V17.349a4.95,4.95,0,0,0-4.911-4.957H10.366V7.435a4.83,4.83,0,0,1,4.911-4.957,4.83,4.83,0,0,1,4.911,4.957V8.675h2.455V7.435A7.384,7.384,0,0,0,15.277,0Zm0,18.588a2.472,2.472,0,0,1,2.455,2.478A2.376,2.376,0,0,1,16.5,23.158v2.866a1.228,1.228,0,1,1-2.455,0V23.158a2.376,2.376,0,0,1-1.228-2.091A2.472,2.472,0,0,1,15.277,18.588Z" transform="translate(356 350.35)" fill="#54aeec"/>
        </g>
      </g>
      <g id="Grupo_30" data-name="Grupo 30" transform="translate(61 -230)">
        <g id="Grupo_28-2" data-name="Grupo 28" transform="translate(293 581.947)">
          <g transform="matrix(1, 0, 0, 1, -345, -113.4)" filter="url(#Trazado_54-4)">
            <g id="Trazado_54-8" data-name="Trazado 54" transform="translate(345 113.46)" fill="#bcbcbc">
              <path d="M 26 51.5 C 22.55730056762695 51.5 19.21784973144531 50.82585144042969 16.07439994812012 49.49628829956055 C 13.03794002532959 48.21197128295898 10.31081962585449 46.37326049804688 7.968780040740967 44.03121948242188 C 5.626739978790283 41.68917846679688 3.788029909133911 38.96205902099609 2.503710031509399 35.92559814453125 C 1.174149990081787 32.78215026855469 0.5 29.44269943237305 0.5 26 C 0.5 22.55730056762695 1.174149990081787 19.21784973144531 2.503710031509399 16.07439994812012 C 3.788029909133911 13.03794002532959 5.626739978790283 10.31081962585449 7.968780040740967 7.968780040740967 C 10.31081962585449 5.626739978790283 13.03794002532959 3.788029909133911 16.07439994812012 2.503710031509399 C 19.21784973144531 1.174149990081787 22.55730056762695 0.5 26 0.5 C 29.44269943237305 0.5 32.78215026855469 1.174149990081787 35.92559814453125 2.503710031509399 C 38.96205902099609 3.788029909133911 41.68917846679688 5.626739978790283 44.03121948242188 7.968780040740967 C 46.37326049804688 10.31081962585449 48.21197128295898 13.03794002532959 49.49628829956055 16.07439994812012 C 50.82585144042969 19.21784973144531 51.5 22.55730056762695 51.5 26 C 51.5 29.44269943237305 50.82585144042969 32.78215026855469 49.49628829956055 35.92559814453125 C 48.21197128295898 38.96205902099609 46.37326049804688 41.68917846679688 44.03121948242188 44.03121948242188 C 41.68917846679688 46.37326049804688 38.96205902099609 48.21197128295898 35.92559814453125 49.49628829956055 C 32.78215026855469 50.82585144042969 29.44269943237305 51.5 26 51.5 Z" stroke="none"/>
              <path d="M 26 1 C 22.62458038330078 1 19.35065841674805 1.660858154296875 16.26918029785156 2.964210510253906 C 13.29232025146484 4.223320007324219 10.61861038208008 6.026050567626953 8.322330474853516 8.322330474853516 C 6.026050567626953 10.61861038208008 4.223320007324219 13.29232025146484 2.964210510253906 16.26918029785156 C 1.660858154296875 19.35065841674805 1 22.62458038330078 1 26 C 1 29.37541961669922 1.660858154296875 32.64933776855469 2.964210510253906 35.73081970214844 C 4.223320007324219 38.70767974853516 6.026050567626953 41.38138961791992 8.322330474853516 43.67766952514648 C 10.61861038208008 45.97394943237305 13.29232025146484 47.77667999267578 16.26918029785156 49.03578948974609 C 19.35065841674805 50.33914184570312 22.62458038330078 51 26 51 C 29.37541961669922 51 32.64933776855469 50.33914184570312 35.73081970214844 49.03578948974609 C 38.70767974853516 47.77667999267578 41.38138961791992 45.97394943237305 43.67766952514648 43.67766952514648 C 45.97394943237305 41.38138961791992 47.77667999267578 38.70767974853516 49.03578948974609 35.73081970214844 C 50.33914184570312 32.64933776855469 51 29.37541961669922 51 26 C 51 22.62458038330078 50.33914184570312 19.35065841674805 49.03578948974609 16.26918029785156 C 47.77667999267578 13.29232025146484 45.97394943237305 10.61861038208008 43.67766952514648 8.322330474853516 C 41.38138961791992 6.026050567626953 38.70767974853516 4.223320007324219 35.73081970214844 2.964210510253906 C 32.64933776855469 1.660858154296875 29.37541961669922 1 26 1 M 26 0 C 40.35939788818359 0 52 11.64059829711914 52 26 C 52 40.35939788818359 40.35939788818359 52 26 52 C 11.64059829711914 52 0 40.35939788818359 0 26 C 0 11.64059829711914 11.64059829711914 0 26 0 Z" stroke="none" fill="#66b0e6"/>
            </g>
          </g>
        </g>
        <g transform="matrix(1, 0, 0, 1, -52, 468.54)" filter="url(#unlock-2-4)">
          <path id="unlock-2-8" data-name="unlock-2" d="M15.277,0A7.384,7.384,0,0,0,7.911,7.435v4.957A4.95,4.95,0,0,0,3,17.349v9.914A4.95,4.95,0,0,0,7.911,32.22H22.643a4.95,4.95,0,0,0,4.911-4.957V17.349a4.95,4.95,0,0,0-4.911-4.957H10.366V7.435a4.83,4.83,0,0,1,4.911-4.957,4.83,4.83,0,0,1,4.911,4.957V8.675h2.455V7.435A7.384,7.384,0,0,0,15.277,0Zm0,18.588a2.472,2.472,0,0,1,2.455,2.478A2.376,2.376,0,0,1,16.5,23.158v2.866a1.228,1.228,0,1,1-2.455,0V23.158a2.376,2.376,0,0,1-1.228-2.091A2.472,2.472,0,0,1,15.277,18.588Z" transform="translate(356 122.35)" fill="#54aeec"/>
        </g>
      </g>
    </g>
  </g>
</svg>
