<?xml version="1.0" encoding="utf-8"?>
<!-- Generator: Adobe Illustrator 27.2.0, SVG Export Plug-In . SVG Version: 6.00 Build 0)  -->
<svg version="1.1" id="Capa_1" xmlns="http://www.w3.org/2000/svg" xmlns:xlink="http://www.w3.org/1999/xlink" x="0px" y="0px"
	 viewBox="0 0 350.6 448" style="enable-background:new 0 0 350.6 448;" xml:space="preserve">
<style type="text/css">
	.st0{enable-background:new    ;}
	.st1{fill:#F6F0F0;}
	.st2{fill:none;stroke:#707070;stroke-width:0.9084;}
	.st3{fill:none;stroke:#FCFAFA;stroke-width:3.6335;stroke-linecap:round;stroke-linejoin:round;}
	.st4{fill:#959595;}
	.st5{fill:#288CF7;}
	.st6{fill:#66B0E6;}
	.st7{fill:#F7F0F0;}
</style>
<g id="Grupo_956" transform="translate(-9 -238.544)">
	<g id="Grupo_959">
		<g class="st0">
			<path class="st1" d="M161.2,580.8c0-3.3,1.9-5.3,4.8-5.3c2.5,0,4.3,1.6,4.5,3.9h-2.1c-0.2-1.3-1.2-2.1-2.4-2.1
				c-1.6,0-2.7,1.4-2.7,3.5c0,2.2,1,3.5,2.7,3.5c1.3,0,2.2-0.7,2.4-2h2.1c-0.2,2.3-2,3.7-4.5,3.7
				C163.1,586.1,161.2,584.1,161.2,580.8z"/>
			<path class="st1" d="M179.6,583.6c-0.2,1.5-1.6,2.5-3.5,2.5c-2.3,0-3.7-1.5-3.7-3.9c0-2.4,1.4-4,3.7-4c2.2,0,3.6,1.5,3.6,3.8v0.6
				h-5.2v0.1c0,1.1,0.7,1.8,1.7,1.8c0.8,0,1.3-0.4,1.5-1H179.6z M174.4,581.3h3.2c0-1-0.7-1.6-1.6-1.6
				C175.1,579.7,174.5,580.4,174.4,581.3z"/>
			<path class="st1" d="M181.6,578.3h2v1.4h0c0.3-1,0.9-1.5,1.8-1.5c0.2,0,0.4,0,0.6,0.1v1.8c-0.2-0.1-0.5-0.1-0.8-0.1
				c-1,0-1.6,0.6-1.6,1.7v4.2h-2.1V578.3z"/>
			<path class="st1" d="M187.8,578.3h2v1.4h0c0.3-1,0.9-1.5,1.8-1.5c0.2,0,0.4,0,0.6,0.1v1.8c-0.2-0.1-0.5-0.1-0.8-0.1
				c-1,0-1.6,0.6-1.6,1.7v4.2h-2.1V578.3z"/>
			<path class="st1" d="M193.5,583.7c0-1.4,1.1-2.2,3-2.3l1.9-0.1v-0.5c0-0.7-0.5-1.1-1.3-1.1c-0.8,0-1.3,0.4-1.4,0.9h-1.9
				c0.1-1.5,1.3-2.5,3.3-2.5c2,0,3.2,1,3.2,2.5v5.2h-2v-1.2h0c-0.4,0.8-1.4,1.3-2.3,1.3C194.6,586,193.5,585.1,193.5,583.7z
				 M198.4,583.1v-0.6l-1.6,0.1c-0.8,0.1-1.2,0.4-1.2,0.9c0,0.6,0.5,0.9,1.2,0.9C197.6,584.5,198.4,584,198.4,583.1z"/>
			<path class="st1" d="M202.7,578.3h2v1.4h0c0.3-1,0.9-1.5,1.8-1.5c0.2,0,0.4,0,0.6,0.1v1.8c-0.2-0.1-0.5-0.1-0.8-0.1
				c-1,0-1.6,0.6-1.6,1.7v4.2h-2.1V578.3z"/>
		</g>
		<g class="st0">
			<path class="st1" d="M163.9,599.4c0,2.4-1.2,3.9-3.1,3.9c-1.1,0-2-0.5-2.4-1.4h0v3.8h-2.1v-10.1h2v1.3h0c0.4-0.9,1.3-1.4,2.4-1.4
				C162.7,595.5,163.9,596.9,163.9,599.4z M161.8,599.4c0-1.4-0.7-2.3-1.7-2.3c-1,0-1.7,0.9-1.7,2.3c0,1.4,0.7,2.3,1.7,2.3
				C161.1,601.6,161.8,600.8,161.8,599.4z"/>
			<path class="st1" d="M172.9,603.2h-2v-1.4h0c-0.4,1-1.1,1.5-2.3,1.5c-1.6,0-2.7-1.1-2.7-2.8v-4.9h2.1v4.5c0,1,0.5,1.6,1.4,1.6
				c0.9,0,1.5-0.7,1.5-1.7v-4.4h2.1V603.2z"/>
			<path class="st1" d="M182.1,600.9c-0.2,1.5-1.6,2.5-3.5,2.5c-2.3,0-3.7-1.5-3.7-3.9c0-2.4,1.4-4,3.7-4c2.2,0,3.6,1.5,3.6,3.8v0.6
				h-5.2v0.1c0,1.1,0.7,1.8,1.7,1.8c0.8,0,1.3-0.4,1.5-1H182.1z M176.9,598.6h3.2c0-1-0.7-1.6-1.6-1.6
				C177.6,596.9,177,597.6,176.9,598.6z"/>
			<path class="st1" d="M184.1,595.6h2v1.4h0c0.3-1,0.9-1.5,1.8-1.5c0.2,0,0.4,0,0.6,0.1v1.8c-0.2-0.1-0.5-0.1-0.8-0.1
				c-1,0-1.6,0.6-1.6,1.7v4.2h-2.1V595.6z"/>
			<path class="st1" d="M193.2,593.8v1.8h1.4v1.6h-1.4v3.6c0,0.6,0.3,0.9,0.9,0.9c0.2,0,0.4,0,0.5,0v1.5c-0.2,0-0.6,0.1-1,0.1
				c-1.8,0-2.5-0.6-2.5-2.1v-4H190v-1.6h1.1v-1.8H193.2z"/>
			<path class="st1" d="M196.3,601c0-1.4,1.1-2.2,3-2.3l1.9-0.1v-0.5c0-0.7-0.5-1.1-1.3-1.1c-0.8,0-1.3,0.4-1.4,0.9h-1.9
				c0.1-1.5,1.3-2.5,3.3-2.5c2,0,3.2,1,3.2,2.5v5.2h-2V602h0c-0.4,0.8-1.4,1.3-2.3,1.3C197.4,603.3,196.3,602.4,196.3,601z
				 M201.1,600.4v-0.6l-1.6,0.1c-0.8,0.1-1.2,0.4-1.2,0.9c0,0.6,0.5,0.9,1.2,0.9C200.4,601.8,201.1,601.2,201.1,600.4z"/>
			<path class="st1" d="M208.5,595.4c2,0,3.2,1,3.2,2.5h-1.9c-0.1-0.6-0.5-1-1.3-1c-0.7,0-1.2,0.3-1.2,0.8c0,0.4,0.3,0.7,1,0.8
				l1.3,0.3c1.6,0.3,2.2,1,2.2,2.1c0,1.5-1.4,2.5-3.3,2.5c-2.1,0-3.3-1-3.4-2.5h2c0.1,0.7,0.6,1,1.4,1c0.8,0,1.3-0.3,1.3-0.8
				c0-0.4-0.3-0.6-1-0.8l-1.3-0.3c-1.5-0.3-2.2-1-2.2-2.2C205.3,596.4,206.5,595.4,208.5,595.4z"/>
		</g>
		<g id="Grupo_22" transform="translate(313.484 548.916)">
			<line id="Línea_5" class="st2" x1="-40.2" y1="-25.7" x2="-0.2" y2="-0.2"/>
			<line id="Línea_6" class="st2" x1="41.6" y1="-0.2" x2="-0.2" y2="-0.2"/>
		</g>
		<g id="Grupo_23" transform="translate(313.484 437.002)">
			<line id="Línea_5-2" class="st2" x1="-39.7" y1="9.8" x2="0.1" y2="-15.5"/>
			<line id="Línea_6-2" class="st2" x1="41.6" y1="-15.5" x2="0.1" y2="-15.5"/>
		</g>
		<g id="Grupo_21" transform="translate(27.979 548.916)">
			<line id="Línea_5-3" class="st2" x1="68.2" y1="-25.7" x2="28.2" y2="-0.2"/>
			<line id="Línea_6-3" class="st2" x1="-13.6" y1="-0.2" x2="28.2" y2="-0.2"/>
		</g>
		<g id="Grupo_17" transform="translate(28.477 437.002)">
			<line id="Línea_5-4" class="st2" x1="67.7" y1="9.8" x2="28" y2="-15.5"/>
			<line id="Línea_6-4" class="st2" x1="-13.6" y1="-15.5" x2="28" y2="-15.5"/>
		</g>
		<g id="Grupo_954">
			<g id="Mesa_de_trabajo_1carr" transform="translate(109 240.531)">
				<g id="SPLINE" transform="translate(106.442 464.407)">
					<path id="Trazado_7" class="st3" d="M-30.8-22.9c3.5,0,7.1,0,10.6,0c7.4-0.1,15-0.5,22.4-0.9c2.7-0.1,5.5-0.3,8.2-0.6
						c2.5-0.5,5-1,7.4-1.7c1.9-0.5,3.8-1.2,5.7-1.9c3.1-1.5,6-3.2,8.7-5.2c1.5-1,2.9-2,4.3-3.2c0.7-0.5,1.4-1.2,2-1.8
						c0.3-0.4,0.5-0.6,0.7-0.9c0.2-0.3,0.3-0.6,0.4-0.9"/>
				</g>
				<g id="SPLINE-2" transform="translate(106.442 273.314)">
					<path id="Trazado_8" class="st3" d="M-30.8,166.8c5.7,0,11.4,0.1,17.1-0.1c6.8-0.3,13.5-0.8,20.3-1.5c1.8-0.1,3.6-0.4,5.5-0.7
						c1.5-0.4,2.9-0.8,4.4-1.2c1.1-0.3,2.1-0.5,3.2-0.8c4.1-1.3,7.8-3.7,11.5-5.9c3.3-2,6.6-3.9,9.6-6.2c1-0.7,2-1.5,2.9-2.5
						c0.6-0.7,1.3-1.5,1.7-2.3c0.5-1,1-2.1,1.4-3.2c1.9-5.8,2.7-11.9,3.9-18c0.6-3.4,1.4-6.6,2.2-10c0.7-3,1.5-6,2.3-8.9
						c0.6-2.2,1.3-4.4,1.8-6.6c0.3-1.5,0.5-2.8,0.7-4.3c0.2-2,0.3-3.9,0.4-5.9c0.5-16.8,1-33.6,0.9-50.4c0-1.6,0-3.3-0.1-4.9
						c-0.3-4-1.1-8-1.5-12.1c-0.2-2.3-0.3-4.6-0.3-6.9C57,11.6,57,8.7,57,5.8c0-2.4-0.4-26.1-0.3-28.4"/>
				</g>
				<g id="SPLINE-3" transform="translate(106.442 445.48)">
					<path id="Trazado_9" class="st3" d="M-30.8-31.5c3.3,0,6.6,0,9.9-0.1c5.5-0.2,11-0.5,16.5-1c5.1-0.5,10.3-1.2,15.4-2
						c5.5-0.9,11-1.9,16.4-3.2c0.8-0.2,1.5-0.4,2.4-0.5"/>
				</g>
				<g id="SPLINE-4" transform="translate(106.442 414.925)">
					<path id="Trazado_10" class="st3" d="M32-35.5c-1.6,0.5-3.4,0.9-5,1.3c-3,0.7-6,1.5-9,2.1c-4,0.8-8,1.5-12.1,2.2
						C2-29.3-1.9-28.9-5.8-28.5c-4.4,0.4-8.8,0.6-13.2,0.6c-4,0.1-7.9,0-11.9,0"/>
				</g>
				<g id="SPLINE-5" transform="translate(106.442 462.099)">
					<path id="Trazado_11" class="st3" d="M-30.8-32.4c3.8,0,7.6,0.2,11.4,0.1c4.5-0.1,9.1-0.5,13.6-1c4.4-0.5,8.7-0.8,13-1.5
						c2.3-0.4,4.6-0.7,6.9-1.1c0.2,0,0.4-0.1,0.5-0.2c0.2-0.1,0.3-0.2,0.4-0.4c0.1-0.2,0.1-0.4,0-0.5c-0.1-0.8-0.1-1.5-0.2-2.4
						c0-0.1,0-0.2-0.1-0.3c0-0.2-0.1-0.2-0.2-0.3c-0.1,0-0.3-0.1-0.4,0c-1.5,0.1-3,0.4-4.5,0.6c-3,0.5-6,0.9-9.1,1.2
						c-2.5,0.3-5,0.5-7.5,0.6c-4,0.4-8.1,0.8-12.2,1c-2.4,0.1-4.8,0.1-7.2,0.1h-4.6"/>
				</g>
				<g id="SPLINE-6" transform="translate(106.442 471.859)">
					<path id="Trazado_12" class="st3" d="M-30.8-36.1c1.5,0,2.9,0,4.4-0.1c3.2,0,6.3-0.1,9.4-0.3c2.7-0.1,5.4-0.2,8.1-0.5
						c2.6-0.2,5.2-0.5,7.8-0.9c1.4-0.2,2.7-0.5,4.2-0.6c0.1,0,0.2,0,0.4-0.1c0.1,0,0.2-0.1,0.2-0.2c0-0.1,0-0.2,0-0.4
						c0-0.5-0.1-0.9-0.1-1.5c0-0.1,0-0.1,0-0.2c0-0.1-0.1-0.1-0.1-0.1c-0.1,0-0.2,0-0.3,0c-0.9,0.1-1.8,0.2-2.7,0.4
						c-1.8,0.3-3.6,0.5-5.5,0.7c-1.5,0.2-3,0.3-4.5,0.5c-2.5,0.2-4.9,0.5-7.4,0.5c-3,0.2-6.2,0.2-9.3,0.2c-1.5,0-3.1,0-4.6,0"/>
				</g>
				<g id="SPLINE-7" transform="translate(144.092 161.375)">
					<path id="Trazado_13" class="st3" d="M-34.2,269.9c0.5-0.1,1.2-0.2,1.7-0.2c1.5-0.2,3-0.3,4.5-0.4c1.6-0.1,3.3-0.3,4.9-0.6
						c1.5-0.5,2.9-1,4.2-1.7c2.6-1.2,5.3-2.5,7.8-4.1c1.5-0.9,3-2,4.5-3.1c1.4-1,2.7-2.1,4-3.3c1.2-1,2.2-2.2,3-3.5
						c0.3-0.5,0.5-1,0.6-1.5c0.3-1.1,0.5-2.3,0.5-3.5c0.1-0.8,0.2-1.7,0.2-2.5c0-0.3-0.1-0.6-0.3-0.8c-0.1-0.1-0.3-0.2-0.5-0.2
						c-0.3,0-0.5,0-0.7,0.2c-0.4,0.1-0.6,0.2-1,0.4c-0.9,0.3-1.7,0.7-2.6,1c-0.6,0.2-1.3,0.4-1.9,0.5c-0.5,0.1-0.9,0.2-1.4,0.3
						c-0.3,0.1-0.5,0.1-0.7,0c-0.1-0.1-0.2-0.2-0.3-0.3c-0.1-0.2-0.1-0.4-0.1-0.5c0.1-1.1,0.2-2.2,0.5-3.2c0.5-2.8,0.7-5.7,1-8.6
						c0.4-4.5,0.7-9,0.7-13.5c0.1-5.8-0.5-11.6-0.8-17.4c-1.2-16.3-2.1-32.4-3.1-48.7c-0.6-9.9-1.3-19.7-1.8-29.6
						c-0.5-8.2-0.8-16.4-0.9-24.5c-0.1-7,0.1-14,0.5-21.1c0.3-6.9,0.7-13.8,1.5-20.6c0.6-5.5,1.4-11,2.4-16.5
						C-5.4,27.8-1.6,13.7,2.3-0.3c1-3.6,2.1-7.2,3.1-10.8c0.2-0.5,0.3-0.9,0.5-1.4"/>
				</g>
				<g id="SPLINE-8" transform="translate(202.548 208.58)">
					<path id="Trazado_14" class="st3" d="M-39.6,42.2c0-19.5,0-39.2,0.1-58.8"/>
				</g>
				<g id="SPLINE-9" transform="translate(106.432 0)">
					<path id="Trazado_15" class="st3" d="M56.6,180.5c0-5.4,0.1-10.6,0.1-16c0.1-13.2,0.3-26.3,0.6-39.4c0.1-2,0.1-4,0.2-6
						c0.3-9.2,0.5-18.3,0.1-27.6c-0.3-6.3-0.9-12.5-1.1-18.8c-0.1-3.7-0.2-7.4-0.3-11.2c0-1.8-0.2-3.6-0.5-5.4
						c-0.5-2.8-1.5-5.5-2.5-8.3c-1.2-3.3-2.5-6.4-4.1-9.5c-1.5-2.7-3-5.4-4.7-7.9c-1.6-2.5-3.4-5-5.4-7.3c-1.8-1.9-3.6-3.7-5.6-5.4
						c-1.9-1.6-3.7-3.3-5.7-4.8c-1.8-1.4-3.8-2.5-5.9-3.5c-1.5-0.5-2.9-1.1-4.4-1.5c-3.5-1-7-1.8-10.6-2.5C2.5,4.7-2,4.1-6.4,3.6
						c-4-0.5-8-0.8-12.1-1s-8.2-0.1-12.3,0"/>
				</g>
				<g id="SPLINE-10" transform="translate(106.442 3.188)">
					<path id="Trazado_16" class="st3" d="M-30.8,2.2c6.5,0,13,0.4,19.5,0.8c4.5,0.3,9.1,0.6,13.5,1.3c3.1,0.5,6.2,1.1,9.3,1.8
						c2.5,0.5,4.9,1.1,7.3,2c1.6,0.7,3.3,1.5,4.8,2.5c2.6,1.6,5.1,3.5,7.4,5.6c1.9,1.7,3.8,3.5,5.5,5.5c1.6,1.8,3.2,3.6,4.5,5.5
						c1.1,1.5,4.5,11.1,5.4,12.6"/>
				</g>
				<g id="SPLINE-11" transform="translate(106.442 5.406)">
					<path id="Trazado_17" class="st3" d="M-30.8,2c5.6,0,11.3-0.1,16.8,0.3C-12,2.4-10,2.6-8.1,2.6C-5.2,2.8-2.3,3,0.6,3.3
						c3.6,0.3,7.2,1,10.5,2.3c0.5,0.2,1,0.5,1.5,0.8c0.5,0.3,0.8,0.6,1.1,1.1"/>
				</g>
				<g id="SPLINE-12" transform="translate(106.442 6.837)">
					<path id="Trazado_18" class="st3" d="M-30.8,1.9c4.5,0,9.2,0.1,13.7,0.3c3.6,0.2,7.3,0.4,10.9,0.5C-3.5,2.9-0.9,3,1.7,3.2
						C4,3.5,6.4,3.9,8.8,4.3c1.2,0.2,2.4,0.5,3.5,0.8c1.2,0.5,2.4,1.3,3.4,2.1c0.9,0.8,1.8,1.6,2.6,2.5c0.5,0.6,1.1,1.4,1.5,2.2
						c0.3,0.5,0.5,1,0.7,1.5"/>
				</g>
				<g id="SPLINE-13" transform="translate(161.082 19.55)">
					<path id="Trazado_19" class="st3" d="M-35.8,0.7c0.5,0.2,0.8,0.5,1.3,0.6c2.8,1.5,5.5,3.4,7.8,5.4c2.6,1.8,4.8,3.5,6.5,4.9
						c2.9,2.4,4.9,4.2,5.5,4.8c1.5,1.5,3,3,4.4,4.6c0.8,0.9,1.5,1.8,1.9,2.5"/>
				</g>
				<g id="SPLINE-14" transform="translate(105.065 9.507)">
					<path id="Trazado_20" class="st3" d="M-30.6,1.6c3,0,6.1,0.2,9.1,0.3c4.8,0.2,9.6,0.4,14.4,0.7C-3,2.9,1,3.4,5.1,3.6
						c1.6,0.1,3.2,0.3,4.7,0.6c1.3,0.2,2.5,0.7,3.5,1.5c2.3,2,5.7,4.6,2,1.3c-2.1-1.9-6-2.8,1.8,1.9c0.6,0.4-1.1-1.1-0.5-0.5
						c0.4,0.5,3.4,2.3,3.7,2.7"/>
				</g>
				<g id="SPLINE-15" transform="translate(106.437 342.876)">
					<path id="Trazado_21" class="st3" d="M-30.8,39.5c4,0,8.1,0.1,12.2,0c4.4-0.1,8.7-0.4,13-0.7c2.7-0.3,5.4-0.5,8.1-0.8
						c2.6-0.2,5.4-0.6,7.9-1.5c1.3-0.5,2.5-1.1,3.6-1.8c1.3-0.7,2.5-1.5,3.5-2.5c1.2-1,2.3-2.3,3.1-3.6s1.5-2.8,2-4.4
						c0.5-1.5,0.9-3.2,1.2-4.8c0.2-1.6,0.2-3.3,0.2-4.9c-0.3-13.2-1.2-26.1-0.1-39.3c0.1-0.5,0.1-1,0-1.5c-0.1-0.3-0.2-0.5-0.3-0.7
						c-0.2-0.3-0.4-0.5-0.5-0.7c-0.3-0.3-0.6-0.5-1-0.7c-0.5-0.2-1-0.4-1.5-0.4c-0.5-0.1-0.9-0.1-1.4-0.1c-4.2,0.1-8.4,0.3-12.5,0.8
						c-5.5,0.5-11,0.8-16.4,0.9c-7.1,0.2-14,0.1-21,0"/>
				</g>
				<g id="SPLINE-16" transform="translate(106.447 332.687)">
					<path id="Trazado_22" class="st3" d="M27.4-28c-1.7,0.1-3.5,0.3-5.2,0.4c-6.5,0.5-13.1,0.7-19.6,1.1
						c-5.1,0.3-10.3,0.6-15.4,0.7c-6,0.2-12,0.1-18,0"/>
				</g>
				<g id="SPLINE-17" transform="translate(106.442 219.837)">
					<path id="Trazado_23" class="st3" d="M29.3-13.9c-0.7-0.1-1.5-0.2-2.2-0.3c-1.6-0.2-3.3-0.5-4.9-0.6
						c-5.4-0.6-10.7-1.2-16.1-1.5C0.8-16.7-4.7-16.9-10-17.1c-6-0.3-12-0.5-18-0.5h-2.7"/>
				</g>
				<g id="SPLINE-18" transform="translate(106.442 160.596)">
					<path id="Trazado_24" class="st3" d="M-30.8,37.6c5.5,0.1,11,0.3,16.4,0.5c5.5,0.2,11.1,0.4,16.7,0.6c4.5,0.2,9.1,0.5,13.5,1
						c1.9,0.2,3.8,0.5,5.7,0.8c0.5,0.1,1,0.2,1.5,0.2c0.5-0.1,0.8-0.2,1.2-0.4c0.5-0.2,0.9-0.5,1.3-0.8c0.4-0.4,0.7-0.8,0.9-1.4
						c0.3-0.7,0.5-1.5,0.6-2.4c0.9-4.6,2.1-9.3,3.4-13.8c0.8-3,1.5-5.9,2.4-8.9c0.7-2.5,1.4-5.2,2.1-7.7c0.3-0.9,0.5-1.8,0.5-2.7
						c0-0.5,0-1-0.1-1.5c-0.1-0.6-0.3-1.4-0.5-2C34.7-1.5,34.4-2,34-2.6c-0.4-0.5-0.8-0.9-1.3-1.3c-0.6-0.4-1.3-0.6-1.9-0.9
						c-1.2-0.5-2.5-0.8-3.6-1.1c-3.3-0.9-6.5-1.5-9.9-2.2C14-8.6,10.9-9,7.8-9.5c-3.8-0.5-7.6-1-11.4-1.5c-3.5-0.4-6.9-0.6-10.3-0.9
						c-2.5-0.2-5.1-0.4-7.7-0.4c-3.1,0-6.1,0-9.1,0.1"/>
				</g>
				<g id="SPLINE-19" transform="translate(106.447 142.883)">
					<path id="Trazado_25" class="st3" d="M46.7,31.7c-0.1-2.2-0.2-4.4-0.3-6.5c-0.1-3.1-0.3-6.2-0.5-9.3c-0.2-1.8-0.4-3.6-0.7-5.4
						c-0.2-1.2-0.5-2.3-1.1-3.4c-0.5-1-1.2-1.8-2-2.6c-0.8-0.9-1.7-1.7-2.6-2.5C38.1,1,36.7,0,35.4-1c-1.3-0.9-2.6-1.7-4-2.5
						C29.7-4.3,27.8-5,26-5.6c-2.5-0.8-5.2-1.4-7.7-1.9c-2.2-0.5-4.5-0.9-6.6-1.3C8.1-9.3,4.5-9.5,0.9-9.7c-3.6-0.2-7.4-0.5-11-0.6
						c-4.5-0.2-8.7-0.3-13-0.3c-2.6,0-5.2,0-7.7,0"/>
				</g>
				<g id="SPLINE-20" transform="translate(174.044 167.39)">
					<path id="Trazado_26" class="st3" d="M-21.2,110.4c-0.8,0.7-1.5,1.5-2.5,2.1c-1,0.7-2,1.5-3,2.1c-0.7,0.5-1.5,0.9-2.3,1.4
						c-0.5,0.3-1.1,0.5-1.7,0.8c-0.4,0.2-0.8,0.3-1.2,0.4c-0.4,0-0.7,0-1.1-0.2c-0.3-0.2-0.5-0.4-0.8-0.6c-0.4-0.4-0.6-0.7-0.9-1.1
						c-0.2-0.5-0.3-0.9-0.4-1.4c-0.1-1.1-0.3-2.2-0.4-3.2c-0.6-8-0.7-16.2-1.1-24.3c-0.2-4.2-0.5-8.3-0.5-12.4
						c-0.1-4.9,0.1-9.8,0.5-14.7c0.3-4.1,0.6-8.3,1.3-12.3c0.6-4.2,1.6-8.3,2.5-12.4c2.2-9.4,4.3-18.9,7-27.9
						c1.4-4,2.5-8.1,3.4-12.2c0.1-0.8,0.4-1.6,0.9-2.3c0.2-0.2,0.5-0.4,0.6-0.5c2.2-1.4,4.5-2.5,6.8-3.5c1-0.5,2.1-0.8,3.1-1.3"/>
				</g>
				<g id="SPLINE-21" transform="translate(151.501 12.785)">
					<path id="Trazado_27" class="st3" d="M-22.8,123.5c0.1-1.4,0.1-2.8,0.1-4.2c0.1-7.4-0.5-14.9-1.1-22.3
						c-1.1-13.9-2.2-27.7-3.6-41.5c-1.1-10.4-2.4-20.8-3.9-31.2c-1.1-7.7-2.3-15.4-3.5-23.1"/>
				</g>
				<g id="SPLINE-22" transform="translate(188.763 181.464)">
					<path id="Trazado_28" class="st3" d="M-38.3-14.1c0.3,0.7,0.5,1.5,0.6,2.4c0.2,1.3,0.3,2.6,0.4,3.9l0,0"/>
				</g>
				<g id="LINE" transform="translate(181.842 200.402)">
					<line id="Línea_3" class="st3" x1="-37.7" y1="-10.5" x2="-29.7" y2="-15.9"/>
				</g>
				<g id="SPLINE-23" transform="translate(188.685 187.763)">
					<path id="Trazado_29" class="st3" d="M-38.3-14.7c1.9,1.1,3.7,2.1,5.6,3.2c1.5,0.9,3.1,1.7,4.6,2.6c1.5,0.8,2.8,1.8,4.2,2.8
						c0.7,0.5,1.5,1.2,2.2,1.7c0.8,0.6,1.6,1.3,2.4,2c0.6,0.7,1.2,1.6,1.6,2.5c0.3,0.7,0.5,1.5,0.8,2.2c0.3,0.6,0.5,1.4,0.5,2.1
						c-0.2,0.4-0.2,0.8-0.4,1.2c0,0.2-0.1,0.3-0.2,0.5c-0.2,0.2-0.4,0.4-0.6,0.5c-0.2,0.1-0.5,0.1-0.7,0.1c-0.5,0-0.9-0.2-1.4-0.4
						c-4.8-1.6-9.5-3-14-5c-0.4-0.2-0.6-0.3-1-0.5c-0.6-0.4-1.2-0.9-1.5-1.5c-0.2-0.4-0.2-0.7-0.4-1.1s-0.4-0.7-0.6-1.1"/>
				</g>
				<g id="SPLINE-24" transform="translate(190.595 191.035)">
					<path id="Trazado_30" class="st3" d="M-34.9-15c-0.2,0-0.5,0.1-0.6,0.2c-0.3,0.1-0.5,0.3-0.7,0.5c-0.5,0.5-1.1,1.2-1.5,1.8
						c-0.2,0.6-0.3,1.4-0.3,2.1c-0.1,0.6-0.2,1.4-0.3,2c0,0.2-0.1,0.5-0.1,0.6c-0.1,0.5-0.1,0.8,0,1.3c0.1,0.2,0.3,0.4,0.5,0.5
						c0.5,0.3,0.9,0.5,1.5,0.6c1.7,0.5,3.5,1.3,5.2,1.9c2.3,0.9,4.5,1.7,6.8,2.6c1.4,0.5,2.7,1.1,4.1,1.5c0.3,0.1,0.5,0.2,0.8,0.3
						c0.2,0,0.4,0.1,0.5,0.1c0.2,0,0.3,0,0.5-0.1s0.3-0.2,0.4-0.4"/>
				</g>
				<g id="SPLINE-25" transform="translate(28.833 464.407)">
					<path id="Trazado_31" class="st3" d="M46.8-22.9c-3.5,0-7.1,0-10.6,0c-7.4-0.1-15-0.5-22.4-0.9c-2.7-0.1-5.5-0.3-8.2-0.6
						c-2.5-0.5-5-1-7.4-1.7c-1.9-0.5-3.8-1.2-5.7-1.9c-3.1-1.5-6-3.2-8.7-5.2c-1.5-1.1-3-2.2-4.4-3.3c-0.7-0.5-1.4-1.2-2-1.8
						c-0.2-0.3-0.5-0.5-0.6-0.8c-0.2-0.3-0.3-0.5-0.4-0.9"/>
				</g>
				<g id="SPLINE-26" transform="translate(7.894 273.314)">
					<path id="Trazado_32" class="st3" d="M67.8,166.8c-5.7,0-11.4,0.1-17.1-0.1c-6.8-0.3-13.5-0.8-20.3-1.5
						c-1.8-0.1-3.6-0.4-5.5-0.7c-1.5-0.4-2.9-0.8-4.4-1.2c-1.1-0.3-2.1-0.5-3.2-0.8c-4.1-1.3-7.8-3.7-11.5-5.9
						c-3.3-2-6.6-3.9-9.6-6.2c-1-0.7-2-1.5-2.9-2.5c-0.6-0.7-1.3-1.5-1.7-2.3c-0.5-1-1-2.1-1.4-3.2c-1.9-5.8-2.7-11.9-3.9-18
						c-0.6-3.4-1.4-6.6-2.2-10c-0.7-3-1.5-6-2.3-8.9c-0.6-2.2-1.3-4.4-1.8-6.6c-0.3-1.5-0.5-2.8-0.7-4.3c-0.2-2-0.3-3.9-0.4-5.9
						c-0.5-16.8-1-33.6-0.9-50.4c0-1.6,0-3.3,0.1-4.9c0.3-4,1.1-8,1.5-12.1c0.3-2.3,0.4-4.5,0.4-6.8c0.1-2.9,0.1-5.8,0.1-8.7
						c0-2.4,0.4-26.1,0.3-28.4"/>
				</g>
				<g id="SPLINE-27" transform="translate(39.723 445.48)">
					<path id="Trazado_33" class="st3" d="M35.9-31.5c-3.3,0-6.6,0-9.9-0.1c-5.5-0.2-11-0.5-16.5-1c-5.1-0.5-10.2-1.2-15.3-2
						c-5.5-0.9-11.1-1.9-16.5-3.2c-0.7-0.2-1.5-0.4-2.4-0.5"/>
				</g>
				<g id="SPLINE-28" transform="translate(37.352 414.925)">
					<path id="Trazado_34" class="st3" d="M-24.4-35.5c1.6,0.5,3.4,0.9,5,1.3c3,0.7,6,1.5,9,2.1c4,0.8,8,1.5,12.1,2.2
						c3.9,0.6,7.8,1.1,11.7,1.5c4.4,0.4,8.8,0.6,13.2,0.6c4,0.1,7.9,0,11.9,0"/>
				</g>
				<g id="SPLINE-29" transform="translate(55.892 462.099)">
					<path id="Trazado_35" class="st3" d="M19.8-32.4c-3.8,0-7.6,0.2-11.4,0.1c-4.5-0.1-9.1-0.5-13.6-1c-4.4-0.5-8.7-0.8-13-1.5
						c-2.3-0.4-4.5-0.8-6.9-1.2c-0.2,0-0.4-0.1-0.5-0.2c-0.1,0-0.3-0.2-0.4-0.3c0-0.2,0-0.4,0-0.5c0.1-0.8,0.1-1.5,0.2-2.4
						c0-0.1,0-0.2,0.1-0.3c0-0.2,0.1-0.2,0.2-0.3c0.2,0,0.3,0,0.4,0c1.5,0.1,3,0.4,4.5,0.6c3,0.5,6,0.9,9.1,1.2
						c2.5,0.3,5,0.5,7.5,0.6c4.1,0.4,8.1,0.8,12.2,1c2.4,0.1,4.8,0.1,7.2,0.1h4.6"/>
				</g>
				<g id="SPLINE-30" transform="translate(68.558 471.859)">
					<path id="Trazado_36" class="st3" d="M7.1-36.1c-1.5,0-2.9,0-4.4-0.1c-3.2,0-6.3-0.1-9.4-0.3c-2.7-0.1-5.4-0.2-8.1-0.5
						c-2.6-0.2-5.2-0.5-7.8-0.9c-1.4-0.2-2.7-0.5-4.2-0.6c-0.1,0-0.2,0-0.4-0.1c0,0-0.1,0-0.2-0.1c0-0.2,0-0.3,0-0.4
						c0-0.5,0.1-0.9,0.1-1.5c0-0.1,0-0.1,0-0.2c0.1,0,0.2-0.1,0.2-0.1c0.1,0,0.2,0,0.3,0c0.9,0.1,1.8,0.2,2.7,0.4
						c1.8,0.3,3.6,0.5,5.5,0.7c1.5,0.2,3,0.3,4.5,0.5c2.5,0.2,4.9,0.5,7.4,0.5c3.1,0.2,6.2,0.1,9.3,0.2c1.5,0,3.1,0,4.6,0"/>
				</g>
				<g id="SPLINE-31" transform="translate(24.713 161.375)">
					<path id="Trazado_37" class="st3" d="M16.8,269.9c-0.5-0.1-1.2-0.2-1.7-0.2c-1.5-0.2-3-0.3-4.5-0.4c-1.6-0.1-3.3-0.3-4.9-0.6
						c-1.5-0.5-2.9-1-4.2-1.7c-2.6-1.2-5.3-2.5-7.8-4.1c-1.5-0.9-3-2-4.5-3.1c-1.4-1-2.7-2.1-4-3.3c-1.2-1-2.2-2.2-3-3.5
						c-0.3-0.5-0.5-1-0.6-1.5c-0.3-1.1-0.5-2.3-0.5-3.5c-0.1-0.8-0.2-1.7-0.2-2.5c0-0.3,0.1-0.6,0.3-0.8c0.1-0.1,0.3-0.2,0.5-0.2
						c0.3,0,0.5,0,0.7,0.2c0.4,0.1,0.6,0.2,1,0.4c0.9,0.3,1.7,0.7,2.6,1c0.6,0.2,1.3,0.4,1.9,0.5c0.5,0.1,0.9,0.2,1.4,0.3
						c0.3,0.1,0.5,0.1,0.7,0c0.1-0.1,0.2-0.2,0.3-0.3c0.1-0.2,0.1-0.4,0.1-0.5c-0.1-1.1-0.2-2.2-0.5-3.2c-0.5-2.8-0.7-5.7-1-8.6
						c-0.4-4.5-0.7-9-0.7-13.5c-0.1-5.8,0.5-11.6,0.8-17.4c1.2-16.3,2.1-32.4,3.1-48.7c0.6-9.9,1.3-19.7,1.8-29.6
						c0.5-8.2,0.8-16.4,0.9-24.5c0.1-7-0.1-14-0.5-21.1c-0.3-6.9-0.7-13.8-1.5-20.6c-0.6-5.5-1.4-11-2.4-16.5
						C-12,27.8-15.8,13.7-19.7-0.3c-1-3.6-2.1-7.2-3.1-10.8c-0.2-0.3-0.3-0.7-0.5-1.2"/>
				</g>
				<g id="SPLINE-32" transform="translate(10.273 208.58)">
					<path id="Trazado_38" class="st3" d="M-21.9,42.2c0-19.5,0-39.2-0.1-58.8"/>
				</g>
				<g id="SPLINE-33" transform="translate(8.954 0)">
					<path id="Trazado_39" class="st3" d="M-20.6,180.5c0-5.4-0.1-10.6-0.1-16c-0.1-13.2-0.3-26.3-0.6-39.4c-0.1-2-0.1-4-0.2-6
						c-0.2-9.2-0.5-18.3-0.1-27.5c0.3-6.4,0.9-12.6,1.1-18.9c0.1-3.7,0.2-7.4,0.3-11.2c0-1.8,0.2-3.6,0.5-5.4
						c0.5-2.8,1.5-5.5,2.5-8.3c1.2-3.3,2.5-6.4,4.1-9.5c1.5-2.7,3-5.4,4.7-7.9c1.6-2.5,3.4-5,5.4-7.3c1.8-1.9,3.6-3.7,5.6-5.4
						c1.9-1.6,3.7-3.3,5.7-4.8c1.8-1.4,3.8-2.5,5.9-3.5c1.5-0.5,2.9-1.1,4.4-1.5c3.5-1,7-1.8,10.6-2.5c4.4-0.8,8.8-1.4,13.3-1.9
						c4-0.5,8.1-0.8,12.2-1s8.2-0.1,12.3,0"/>
				</g>
				<g id="SPLINE-34" transform="translate(20.179 3.188)">
					<path id="Trazado_40" class="st3" d="M55.5,2.2C49,2.2,42.6,2.6,36,3c-4.5,0.3-9.1,0.6-13.5,1.3c-3.1,0.5-6.2,1.1-9.3,1.8
						c-2.5,0.5-4.9,1.1-7.3,2c-1.6,0.7-3.3,1.5-4.8,2.5c-2.6,1.6-5.1,3.5-7.4,5.6c-1.9,1.7-3.8,3.5-5.5,5.5
						c-1.6,1.8-3.2,3.6-4.5,5.5c-1.1,1.5-2,2.9-2.9,4.5c-1,1.5-1.8,3.2-2.5,4.8c-0.4,0.9-0.7,1.9-1,2.9"/>
				</g>
				<g id="SPLINE-35" transform="translate(57.452 5.406)">
					<path id="Trazado_41" class="st3" d="M18.2,2C12.6,2,7,1.9,1.4,2.3c-1.9,0.1-3.9,0.3-5.8,0.4c-2.9,0.2-5.8,0.4-8.7,0.6
						c-3.7,0.3-7.3,1.1-10.6,2.4c-0.5,0.2-1.1,0.5-1.5,0.7c-0.4,0.3-0.7,0.6-1,1.1"/>
				</g>
				<g id="SPLINE-36" transform="translate(50.111 6.837)">
					<path id="Trazado_42" class="st3" d="M25.5,1.9C21,1.9,16.4,2,11.8,2.2C8.2,2.3,4.6,2.5,0.9,2.7C-1.7,2.9-4.3,3-6.9,3.2
						c-2.4,0.3-4.7,0.6-7.1,1.1c-1.2,0.2-2.4,0.5-3.5,0.8c-1.1,0.5-2.3,1.3-3.3,2.1c-1,0.8-1.8,1.6-2.6,2.5
						c-0.5,0.6-1.1,1.4-1.5,2.2c-0.3,0.5-0.5,1-0.7,1.5"/>
				</g>
				<g id="SPLINE-37" transform="translate(50.556 9.696)">
					<path id="Trazado_43" class="st3" d="M25.1,1.6c-3,0-6.1,0.2-9.1,0.3C11.2,2.1,6.3,2.3,1.6,2.6c-4.1,0.3-8.1,0.7-12.2,1
						c-1.6,0.1-3.2,0.3-4.7,0.6c-1.3,0.4-2.5,0.9-3.5,1.5c-0.7,0.4-1.4,0.8-2,1.3c-0.6,0.6-1.3,1.3-1.8,1.9c-0.5,0.6-1.5,1.3-2,1.8
						c-0.4,0.5-0.6,0.5-1,1"/>
				</g>
				<g id="SPLINE-38" transform="translate(46.171 342.876)">
					<path id="Trazado_44" class="st3" d="M29.5,39.5c-4,0-8.1,0.1-12.2,0c-4.4-0.1-8.7-0.4-13-0.7c-2.7-0.3-5.4-0.5-8.1-0.8
						c-2.6-0.2-5.4-0.6-7.9-1.5c-1.3-0.5-2.5-1.1-3.6-1.8c-1.3-0.7-2.5-1.5-3.5-2.5c-1.2-1-2.3-2.3-3.1-3.6s-1.5-2.8-2-4.4
						c-0.5-1.5-0.9-3.2-1.2-4.8c-0.2-1.6-0.2-3.3-0.2-4.9c0.3-13.2,1.2-26.1,0-39.3c0-0.5,0-1,0.1-1.5c0.1-0.3,0.2-0.5,0.3-0.7
						c0.2-0.3,0.4-0.5,0.5-0.8c0.3-0.3,0.6-0.5,1-0.7c0.5-0.2,1-0.4,1.5-0.4c0.5,0,0.9,0,1.4,0c4.2,0.1,8.4,0.3,12.5,0.8
						c5.5,0.5,11,0.8,16.4,0.9c7,0.2,13.9,0.1,20.9,0"/>
				</g>
				<g id="SPLINE-39" transform="translate(42.456 332.687)">
					<path id="Trazado_45" class="st3" d="M-24.9-28c1.7,0.1,3.5,0.3,5.2,0.4c6.5,0.5,13.1,0.7,19.6,1.1c5.1,0.3,10.3,0.6,15.4,0.7
						c6,0.2,12,0.1,18,0"/>
				</g>
				<g id="SPLINE-40" transform="translate(40.357 219.837)">
					<path id="Trazado_46" class="st3" d="M-24.7-13.9c0.7-0.1,1.5-0.2,2.2-0.3c1.6-0.2,3.3-0.5,4.9-0.6c5.4-0.6,10.7-1.2,16.1-1.5
						c5.4-0.4,10.8-0.5,16.2-0.7c6-0.3,12-0.5,18-0.5h2.7"/>
				</g>
				<g id="SPLINE-41" transform="translate(33.452 160.596)">
					<path id="Trazado_47" class="st3" d="M42.2,37.6c-5.5,0.1-11,0.3-16.4,0.5c-5.5,0.2-11.1,0.4-16.7,0.6c-4.5,0.2-9.1,0.5-13.5,1
						c-1.9,0.2-3.8,0.5-5.7,0.8c-0.5,0.1-1,0.2-1.5,0.2c-0.5-0.1-0.8-0.2-1.2-0.4c-0.5-0.2-0.9-0.5-1.3-0.8
						c-0.4-0.4-0.7-0.8-0.9-1.4c-0.3-0.7-0.5-1.5-0.6-2.4c-0.9-4.6-2.1-9.3-3.4-13.8c-0.7-3-1.5-6-2.3-8.9c-0.7-2.5-1.4-5.2-2.1-7.7
						c-0.3-0.9-0.5-1.8-0.5-2.7c0-0.5,0-1,0.1-1.5c0.1-0.6,0.3-1.4,0.5-2c0.2-0.6,0.5-1.2,0.9-1.7c0.4-0.5,0.8-0.9,1.3-1.3
						c0.6-0.4,1.3-0.6,1.9-0.9c1.2-0.5,2.5-0.8,3.6-1.1c3.3-0.9,6.5-1.5,9.9-2.2c3.2-0.5,6.3-1.1,9.4-1.5c3.8-0.5,7.6-1,11.4-1.4
						c3.5-0.4,6.9-0.6,10.3-0.9c2.6-0.2,5.2-0.4,7.7-0.5c3.1,0,6.1,0,9.1,0"/>
				</g>
				<g id="SPLINE-42" transform="translate(21.121 142.883)">
					<path id="Trazado_48" class="st3" d="M-22.9,31.7c0.1-2.2,0.2-4.4,0.3-6.5c0.1-3.1,0.3-6.2,0.5-9.3c0.2-1.8,0.4-3.6,0.7-5.4
						c0.3-1.2,0.6-2.3,1.1-3.4c0.5-1,1.2-1.8,2-2.6c0.8-0.9,1.7-1.7,2.6-2.5C-14.3,1-12.9,0-11.6-1c1.3-0.9,2.6-1.7,4-2.5
						C-5.9-4.4-4-5.1-2.2-5.7C0.3-6.5,3-7,5.5-7.6C7.7-8,9.9-8.5,12.1-8.9c3.5-0.5,7.2-0.7,10.7-0.9c3.6-0.2,7.4-0.5,11-0.6
						c4.5-0.1,8.7-0.2,13.1-0.2c2.5,0,5.1,0,7.7,0"/>
				</g>
				<g id="SPLINE-43" transform="translate(9.985 167.39)">
					<path id="Trazado_49" class="st3" d="M-11.4,110.4c0.8,0.7,1.5,1.5,2.5,2.1c1,0.7,2,1.5,3,2.1c0.7,0.5,1.5,0.9,2.3,1.4
						c0.5,0.3,1.1,0.5,1.7,0.8c0.4,0.2,0.8,0.3,1.2,0.4c0.4,0,0.7,0,1.1-0.2c0.3-0.2,0.5-0.4,0.8-0.6c0.4-0.4,0.6-0.7,0.9-1.1
						c0.2-0.5,0.3-0.9,0.4-1.4c0.1-1.1,0.3-2.2,0.4-3.2c0.6-8,0.7-16.2,1.1-24.3c0.2-4.2,0.5-8.3,0.5-12.4c0.1-4.9-0.1-9.8-0.5-14.7
						c-0.3-4.1-0.6-8.3-1.3-12.3c-0.6-4.2-1.6-8.3-2.5-12.4c-2.2-9.4-4.3-18.9-7-27.9c-1.4-4-2.5-8.1-3.4-12.2
						c-0.1-0.8-0.4-1.6-0.9-2.3c-0.2-0.2-0.5-0.4-0.6-0.5c-2.4-1.5-4.7-2.6-7.1-3.6c-1-0.4-2.1-0.8-3.1-1.2"/>
				</g>
				<g id="SPLINE-44" transform="translate(20.184 17.685)">
					<path id="Trazado_50" class="st3" d="M-1.3,119.2c0.2-6,0.3-11.9,0.5-17.9c0.3-7.6,0.6-15.3,1.1-22.9C0.9,69.3,1.6,60.1,2.6,51
						c1-9,2.2-18,3.5-27c0.9-6.7,1.9-13.4,3.3-20c0.2-0.7,0.3-1.5,0.5-2.2c0.1-0.2,0.1-0.5,0-0.6c0-0.2-0.1-0.3-0.3-0.4
						c-0.2,0-0.4,0-0.5,0.1C8.5,1.2,8.3,1.3,8.2,1.3C7.8,1.5-12.9,17.6-22.8,25"/>
				</g>
				<g id="SPLINE-45" transform="translate(23.042 181.464)">
					<path id="Trazado_51" class="st3" d="M-22.1-14.1c-0.3,0.7-0.5,1.5-0.6,2.4c-0.2,1.3-0.4,2.6-0.4,3.9l0,0"/>
				</g>
				<g id="LINE-2" transform="translate(22.194 200.402)">
					<line id="Línea_4" class="st3" x1="-15" y1="-10.5" x2="-23" y2="-15.9"/>
				</g>
				<g id="SPLINE-46" transform="translate(0.095 187.757)">
					<path id="Trazado_52" class="st3" d="M0.9-14.7c-1.9,1.1-3.7,2.1-5.6,3.2c-1.5,0.9-3.1,1.7-4.6,2.6c-1.5,0.8-2.8,1.8-4.2,2.8
						c-0.7,0.5-1.5,1.2-2.2,1.7c-0.8,0.6-1.6,1.3-2.4,2c-0.6,0.7-1.2,1.6-1.6,2.5c-0.3,0.7-0.5,1.5-0.8,2.2C-20.8,3-21,3.7-21,4.5
						c0.1,0.4,0.1,0.8,0.3,1.2c0,0.2,0.1,0.3,0.2,0.5c0.2,0.2,0.4,0.4,0.6,0.5c0.2,0.1,0.5,0.1,0.7,0.1c0.5,0,0.9-0.2,1.4-0.4
						c4.8-1.6,9.5-3,14-5c0.4-0.2,0.6-0.3,1-0.5c0.6-0.4,1.2-0.9,1.5-1.5C-1.2-1.1-1.2-1.4-1-1.8c0.2-0.4,0.4-0.7,0.6-1.1"/>
				</g>
				<g id="SPLINE-47" transform="translate(0 191.035)">
					<path id="Trazado_53" class="st3" d="M-4.3-15c0.2,0,0.4,0.1,0.6,0.2c0.3,0.2,0.5,0.4,0.7,0.5c0.5,0.5,1.1,1.2,1.5,1.8
						c0.3,0.6,0.4,1.4,0.4,2C-1-9.7-1-9.1-0.9-8.5c0,0.2,0.1,0.5,0.1,0.6c0.1,0.4,0.1,0.8,0,1.2c-0.1,0.2-0.3,0.4-0.5,0.5
						c-0.5,0.3-0.9,0.5-1.5,0.6C-4.5-5-6.2-4.3-7.9-3.6c-2.3,0.9-4.5,1.7-6.8,2.6c-1.4,0.5-2.7,1.1-4.1,1.5
						c-0.3,0.1-0.5,0.2-0.8,0.3c-0.2,0-0.4,0.1-0.5,0.1c-0.2,0-0.3,0-0.5-0.1s-0.3-0.2-0.4-0.4"/>
				</g>
			</g>
		</g>
		<g class="st0">
			<path class="st4" d="M322,397.9c1.3,0,2.2,0.9,2.2,2.2s-0.9,2.2-2.3,2.2h-1.2v2h-1.4v-6.4H322z M320.7,401.2h0.9
				c0.7,0,1.2-0.4,1.2-1.2c0-0.7-0.5-1.1-1.2-1.1h-0.9V401.2z"/>
			<path class="st4" d="M329.9,404.2h-1.3v-0.8l0,0c-0.3,0.6-0.7,0.9-1.5,0.9c-1,0-1.7-0.6-1.7-1.8v-3.1h1.3v2.8c0,0.6,0.3,1,0.9,1
				c0.5,0,0.9-0.5,0.9-1v-2.7h1.3L329.9,404.2L329.9,404.2z"/>
			<path class="st4" d="M335.7,402.8c-0.2,0.9-1,1.5-2.2,1.5c-1.5,0-2.4-0.9-2.4-2.5c0-1.5,0.9-2.5,2.3-2.5c1.4,0,2.3,0.9,2.3,2.4
				v0.4h-3.3v0.1c0,0.6,0.5,1.2,1.1,1.2c0.5,0,0.8-0.3,1-0.6L335.7,402.8L335.7,402.8z M332.4,401.3h2c0-0.6-0.5-1-1-1
				C332.9,400.3,332.5,400.8,332.4,401.3z"/>
			<path class="st4" d="M337.1,399.5h1.3v0.8l0,0c0.2-0.6,0.5-0.9,1.1-0.9c0.2,0,0.3,0,0.4,0.1v1.2c-0.1,0-0.3-0.1-0.5-0.1
				c-0.6,0-1,0.4-1,1.1v2.6h-1.3V399.5z"/>
			<path class="st4" d="M342.8,398.4v1.1h0.9v1h-0.9v2.3c0,0.4,0.2,0.5,0.5,0.5c0.1,0,0.3,0,0.3,0v0.9c-0.1,0-0.4,0.1-0.6,0.1
				c-1.1,0-1.5-0.4-1.5-1.3v-2.5h-0.6v-1h0.6v-1.1L342.8,398.4L342.8,398.4z"/>
			<path class="st4" d="M344.8,402.9c0-0.9,0.6-1.4,1.8-1.5l1.2-0.1v-0.3c0-0.5-0.3-0.7-0.8-0.7c-0.5,0-0.8,0.3-0.8,0.5H345
				c0.1-0.9,0.8-1.5,2.1-1.5c1.2,0,2,0.6,2,1.5v3.3h-1.3v-0.7l0,0c-0.3,0.5-0.8,0.8-1.5,0.8C345.4,404.3,344.8,403.7,344.8,402.9z
				 M347.8,402.5v-0.4l-1,0.1c-0.5,0-0.7,0.3-0.7,0.5c0,0.4,0.3,0.5,0.7,0.5C347.3,403.4,347.8,403,347.8,402.5z"/>
		</g>
		<g class="st0">
			<path class="st4" d="M321.3,413.6H319l-0.5,1.5h-1.4l2.2-6.4h1.5l2.3,6.4h-1.5L321.3,413.6z M319.3,412.6h1.6l-0.8-2.6l0,0
				L319.3,412.6z"/>
			<path class="st4" d="M325.6,414.3L325.6,414.3v0.8h-1.3v-6.4h1.3v2.5l0,0c0.3-0.5,0.8-0.9,1.5-0.9c1.2,0,1.9,0.9,1.9,2.5
				s-0.7,2.5-1.9,2.5C326.4,415.2,325.9,414.9,325.6,414.3z M325.6,412.8c0,0.8,0.5,1.5,1.1,1.5c0.6,0,1.1-0.5,1.1-1.5
				s-0.4-1.5-1.1-1.5C326.1,411.3,325.6,411.9,325.6,412.8z"/>
			<path class="st4" d="M330.4,409.1c0-0.4,0.3-0.6,0.6-0.6s0.6,0.3,0.6,0.6c0,0.4-0.3,0.6-0.6,0.6S330.4,409.4,330.4,409.1z
				 M330.4,410.4h1.3v4.7h-1.3V410.4z"/>
			<path class="st4" d="M337.5,413.7c-0.2,0.9-1,1.5-2.2,1.5c-1.5,0-2.4-0.9-2.4-2.5s0.9-2.5,2.3-2.5s2.3,0.9,2.3,2.4v0.4h-3.3v0.1
				c0,0.6,0.5,1.2,1.1,1.2c0.5,0,0.8-0.3,1-0.6L337.5,413.7L337.5,413.7z M334.4,412.2h2c0-0.6-0.5-1-1-1
				C334.8,411.2,334.4,411.7,334.4,412.2z"/>
			<path class="st4" d="M338.9,410.4h1.3v0.8l0,0c0.2-0.6,0.5-0.9,1.1-0.9c0.2,0,0.3,0,0.4,0.1v1.2c-0.1,0-0.3-0.1-0.5-0.1
				c-0.6,0-1,0.4-1,1.1v2.6h-1.3V410.4z"/>
			<path class="st4" d="M344.6,409.3v1.1h0.9v1h-0.9v2.3c0,0.4,0.2,0.5,0.5,0.5c0.1,0,0.3,0,0.3,0v0.9c-0.1,0-0.4,0.1-0.6,0.1
				c-1.1,0-1.5-0.4-1.5-1.3v-2.5h-0.6v-1h0.6v-1.1L344.6,409.3L344.6,409.3z"/>
			<path class="st4" d="M346.6,413.8c0-0.9,0.6-1.4,1.8-1.5l1.2-0.1V412c0-0.5-0.3-0.7-0.8-0.7c-0.5,0-0.8,0.3-0.8,0.5h-1.2
				c0.1-0.9,0.8-1.5,2.1-1.5c1.2,0,2,0.6,2,1.5v3.3h-1.3v-0.7l0,0c-0.3,0.5-0.8,0.8-1.5,0.8C347.3,415.2,346.6,414.6,346.6,413.8z
				 M349.6,413.4v-0.4l-1,0.1c-0.5,0-0.7,0.3-0.7,0.5c0,0.4,0.3,0.5,0.7,0.5C349.2,414.3,349.6,413.9,349.6,413.4z"/>
		</g>
		<g class="st0">
			<path class="st4" d="M322,527.8c1.3,0,2.2,0.9,2.2,2.2c0,1.3-0.9,2.2-2.3,2.2h-1.2v2h-1.4v-6.4L322,527.8L322,527.8z
				 M320.7,531.1h0.9c0.7,0,1.2-0.4,1.2-1.2c0-0.7-0.5-1.1-1.2-1.1h-0.9V531.1z"/>
			<path class="st4" d="M329.9,534.1h-1.3v-0.8l0,0c-0.3,0.6-0.7,0.9-1.5,0.9c-1,0-1.7-0.6-1.7-1.8v-3.1h1.3v2.8c0,0.6,0.3,1,0.9,1
				c0.5,0,0.9-0.5,0.9-1v-2.7h1.3L329.9,534.1L329.9,534.1z"/>
			<path class="st4" d="M335.7,532.7c-0.2,0.9-1,1.5-2.2,1.5c-1.5,0-2.4-0.9-2.4-2.5s0.9-2.5,2.3-2.5c1.4,0,2.3,0.9,2.3,2.4v0.4
				h-3.3v0.1c0,0.6,0.5,1.2,1.1,1.2c0.5,0,0.8-0.3,1-0.6L335.7,532.7L335.7,532.7z M332.4,531.2h2c0-0.6-0.5-1-1-1
				C332.9,530.2,332.5,530.7,332.4,531.2z"/>
			<path class="st4" d="M337.1,529.4h1.3v0.8l0,0c0.2-0.6,0.5-0.9,1.1-0.9c0.2,0,0.3,0,0.4,0.1v1.2c-0.1,0-0.3-0.1-0.5-0.1
				c-0.6,0-1,0.4-1,1.1v2.6h-1.3V529.4z"/>
			<path class="st4" d="M342.8,528.3v1.1h0.9v1h-0.9v2.3c0,0.4,0.2,0.5,0.5,0.5c0.1,0,0.3,0,0.3,0v0.9c-0.1,0-0.4,0.1-0.6,0.1
				c-1.1,0-1.5-0.4-1.5-1.3v-2.5h-0.6v-1h0.6v-1.1L342.8,528.3L342.8,528.3z"/>
			<path class="st4" d="M344.8,532.8c0-0.9,0.6-1.4,1.8-1.5l1.2-0.1V531c0-0.5-0.3-0.7-0.8-0.7c-0.5,0-0.8,0.3-0.8,0.5H345
				c0.1-0.9,0.8-1.5,2.1-1.5c1.2,0,2,0.6,2,1.5v3.3h-1.3v-0.7l0,0c-0.3,0.5-0.8,0.8-1.5,0.8C345.4,534.2,344.8,533.6,344.8,532.8z
				 M347.8,532.4v-0.4l-1,0.1c-0.5,0-0.7,0.3-0.7,0.5c0,0.4,0.3,0.5,0.7,0.5C347.3,533.3,347.8,532.9,347.8,532.4z"/>
		</g>
		<g class="st0">
			<path class="st4" d="M321.3,543.5H319l-0.5,1.5h-1.4l2.2-6.4h1.5l2.3,6.4h-1.5L321.3,543.5z M319.3,542.5h1.6l-0.8-2.6l0,0
				L319.3,542.5z"/>
			<path class="st4" d="M325.6,544.2L325.6,544.2v0.8h-1.3v-6.4h1.3v2.5l0,0c0.3-0.5,0.8-0.9,1.5-0.9c1.2,0,1.9,0.9,1.9,2.5
				s-0.7,2.5-1.9,2.5C326.4,545.1,325.9,544.8,325.6,544.2z M325.6,542.7c0,0.8,0.5,1.5,1.1,1.5c0.6,0,1.1-0.5,1.1-1.5
				s-0.4-1.5-1.1-1.5C326.1,541.2,325.6,541.8,325.6,542.7z"/>
			<path class="st4" d="M330.4,539c0-0.4,0.3-0.6,0.6-0.6s0.6,0.3,0.6,0.6c0,0.4-0.3,0.6-0.6,0.6S330.4,539.3,330.4,539z
				 M330.4,540.3h1.3v4.7h-1.3V540.3z"/>
			<path class="st4" d="M337.5,543.6c-0.2,0.9-1,1.5-2.2,1.5c-1.5,0-2.4-0.9-2.4-2.5s0.9-2.5,2.3-2.5s2.3,0.9,2.3,2.4v0.4h-3.3v0.1
				c0,0.6,0.5,1.2,1.1,1.2c0.5,0,0.8-0.3,1-0.6L337.5,543.6L337.5,543.6z M334.4,542.1h2c0-0.6-0.5-1-1-1
				C334.8,541.1,334.4,541.6,334.4,542.1z"/>
			<path class="st4" d="M338.9,540.3h1.3v0.8l0,0c0.2-0.6,0.5-0.9,1.1-0.9c0.2,0,0.3,0,0.4,0.1v1.2c-0.1,0-0.3-0.1-0.5-0.1
				c-0.6,0-1,0.4-1,1.1v2.6h-1.3V540.3z"/>
			<path class="st4" d="M344.6,539.2v1.1h0.9v1h-0.9v2.3c0,0.4,0.2,0.5,0.5,0.5c0.1,0,0.3,0,0.3,0v0.9c-0.1,0-0.4,0.1-0.6,0.1
				c-1.1,0-1.5-0.4-1.5-1.3v-2.5h-0.6v-1h0.6v-1.1L344.6,539.2L344.6,539.2z"/>
			<path class="st4" d="M346.6,543.7c0-0.9,0.6-1.4,1.8-1.5l1.2-0.1v-0.3c0-0.5-0.3-0.7-0.8-0.7c-0.5,0-0.8,0.3-0.8,0.5h-1.2
				c0.1-0.9,0.8-1.5,2.1-1.5c1.2,0,2,0.6,2,1.5v3.3h-1.3v-0.7l0,0c-0.3,0.5-0.8,0.8-1.5,0.8C347.3,545.1,346.6,544.5,346.6,543.7z
				 M349.6,543.3V543l-1,0.1c-0.5,0-0.7,0.3-0.7,0.5c0,0.4,0.3,0.5,0.7,0.5C349.2,544.2,349.6,543.8,349.6,543.3z"/>
		</g>
		<g class="st0">
			<path class="st4" d="M22.2,397.9c1.3,0,2.2,0.9,2.2,2.2s-0.9,2.2-2.3,2.2H21v2h-1.4v-6.4H22.2z M21,401.2h0.9
				c0.7,0,1.2-0.4,1.2-1.2c0-0.7-0.5-1.1-1.2-1.1H21V401.2z"/>
			<path class="st4" d="M30.1,404.2h-1.3v-0.8l0,0c-0.3,0.6-0.7,0.9-1.5,0.9c-1,0-1.7-0.6-1.7-1.8v-3.1H27v2.8c0,0.6,0.3,1,0.9,1
				c0.5,0,0.9-0.5,0.9-1v-2.7H30L30.1,404.2L30.1,404.2z"/>
			<path class="st4" d="M35.9,402.8c-0.2,0.9-1,1.5-2.2,1.5c-1.5,0-2.4-0.9-2.4-2.5c0-1.5,0.9-2.5,2.3-2.5c1.4,0,2.3,0.9,2.3,2.4
				v0.4h-3.3v0.1c0,0.6,0.5,1.2,1.1,1.2c0.5,0,0.8-0.3,1-0.6L35.9,402.8L35.9,402.8z M32.7,401.3h2c0-0.6-0.5-1-1-1
				C33.1,400.3,32.8,400.8,32.7,401.3z"/>
			<path class="st4" d="M37.3,399.5h1.3v0.8l0,0c0.2-0.6,0.5-0.9,1.1-0.9c0.2,0,0.3,0,0.4,0.1v1.2c-0.1,0-0.3-0.1-0.5-0.1
				c-0.6,0-1,0.4-1,1.1v2.6h-1.3C37.3,404.3,37.3,399.5,37.3,399.5z"/>
			<path class="st4" d="M43,398.4v1.1h0.9v1H43v2.3c0,0.4,0.2,0.5,0.5,0.5c0.1,0,0.3,0,0.3,0v0.9c-0.1,0-0.4,0.1-0.6,0.1
				c-1.1,0-1.5-0.4-1.5-1.3v-2.5H41v-1h0.6v-1.1L43,398.4L43,398.4z"/>
			<path class="st4" d="M45,402.9c0-0.9,0.6-1.4,1.8-1.5l1.2-0.1v-0.3c0-0.5-0.3-0.7-0.8-0.7c-0.5,0-0.8,0.3-0.8,0.5h-1.2
				c0.1-0.9,0.8-1.5,2.1-1.5c1.2,0,2,0.6,2,1.5v3.3H48v-0.7l0,0c-0.3,0.5-0.8,0.8-1.5,0.8C45.7,404.3,45,403.7,45,402.9z M48,402.5
				v-0.4l-1,0.1c-0.5,0-0.7,0.3-0.7,0.5c0,0.4,0.3,0.5,0.7,0.5C47.6,403.4,48,403,48,402.5z"/>
		</g>
		<g class="st0">
			<path class="st4" d="M21.5,413.6h-2.3l-0.5,1.5h-1.4l2.2-6.4h1.5l2.3,6.4H22L21.5,413.6z M19.5,412.6h1.6l-0.8-2.6l0,0
				L19.5,412.6z"/>
			<path class="st4" d="M25.9,414.3L25.9,414.3v0.8h-1.3v-6.4h1.3v2.5l0,0c0.3-0.5,0.8-0.9,1.5-0.9c1.2,0,1.9,0.9,1.9,2.5
				s-0.7,2.5-1.9,2.5C26.7,415.2,26.1,414.9,25.9,414.3z M25.9,412.8c0,0.8,0.5,1.5,1.1,1.5s1.1-0.5,1.1-1.5s-0.4-1.5-1.1-1.5
				C26.3,411.3,25.9,411.9,25.9,412.8z"/>
			<path class="st4" d="M30.6,409.1c0-0.4,0.3-0.6,0.6-0.6s0.6,0.3,0.6,0.6c0,0.4-0.3,0.6-0.6,0.6S30.6,409.4,30.6,409.1z
				 M30.7,410.4H32v4.7h-1.3V410.4z"/>
			<path class="st4" d="M37.8,413.7c-0.2,0.9-1,1.5-2.2,1.5c-1.5,0-2.4-0.9-2.4-2.5s0.9-2.5,2.3-2.5c1.4,0,2.3,0.9,2.3,2.4v0.4h-3.3
				v0.1c0,0.6,0.5,1.2,1.1,1.2c0.5,0,0.8-0.3,1-0.6L37.8,413.7L37.8,413.7z M34.6,412.2h2c0-0.6-0.5-1-1-1
				C35,411.2,34.6,411.7,34.6,412.2z"/>
			<path class="st4" d="M39.1,410.4h1.3v0.8l0,0c0.2-0.6,0.5-0.9,1.1-0.9c0.2,0,0.3,0,0.4,0.1v1.2c-0.1,0-0.3-0.1-0.5-0.1
				c-0.6,0-1,0.4-1,1.1v2.6h-1.3C39.1,415.2,39.1,410.4,39.1,410.4z"/>
			<path class="st4" d="M44.9,409.3v1.1h0.9v1h-0.9v2.3c0,0.4,0.2,0.5,0.5,0.5c0.1,0,0.3,0,0.3,0v0.9c-0.1,0-0.4,0.1-0.6,0.1
				c-1.1,0-1.5-0.4-1.5-1.3v-2.5h-0.6v-1h0.6v-1.1L44.9,409.3L44.9,409.3z"/>
			<path class="st4" d="M46.9,413.8c0-0.9,0.6-1.4,1.8-1.5l1.2-0.1V412c0-0.5-0.3-0.7-0.8-0.7c-0.5,0-0.8,0.3-0.8,0.5H47
				c0.1-0.9,0.8-1.5,2.1-1.5c1.2,0,2,0.6,2,1.5v3.3h-1.3v-0.7l0,0c-0.3,0.5-0.8,0.8-1.5,0.8C47.6,415.2,46.9,414.6,46.9,413.8z
				 M49.8,413.4v-0.4l-1,0.1c-0.5,0-0.7,0.3-0.7,0.5c0,0.4,0.3,0.5,0.7,0.5C49.4,414.3,49.8,413.9,49.8,413.4z"/>
		</g>
		<g class="st0">
			<path class="st4" d="M22.2,527.8c1.3,0,2.2,0.9,2.2,2.2c0,1.3-0.9,2.2-2.3,2.2H21v2h-1.4v-6.4L22.2,527.8L22.2,527.8z M21,531.1
				h0.9c0.7,0,1.2-0.4,1.2-1.2c0-0.7-0.5-1.1-1.2-1.1H21V531.1z"/>
			<path class="st4" d="M30.1,534.1h-1.3v-0.8l0,0c-0.3,0.6-0.7,0.9-1.5,0.9c-1,0-1.7-0.6-1.7-1.8v-3.1H27v2.8c0,0.6,0.3,1,0.9,1
				c0.5,0,0.9-0.5,0.9-1v-2.7H30L30.1,534.1L30.1,534.1z"/>
			<path class="st4" d="M35.9,532.7c-0.2,0.9-1,1.5-2.2,1.5c-1.5,0-2.4-0.9-2.4-2.5s0.9-2.5,2.3-2.5c1.4,0,2.3,0.9,2.3,2.4v0.4h-3.3
				v0.1c0,0.6,0.5,1.2,1.1,1.2c0.5,0,0.8-0.3,1-0.6L35.9,532.7L35.9,532.7z M32.7,531.2h2c0-0.6-0.5-1-1-1
				C33.1,530.2,32.8,530.7,32.7,531.2z"/>
			<path class="st4" d="M37.3,529.4h1.3v0.8l0,0c0.2-0.6,0.5-0.9,1.1-0.9c0.2,0,0.3,0,0.4,0.1v1.2c-0.1,0-0.3-0.1-0.5-0.1
				c-0.6,0-1,0.4-1,1.1v2.6h-1.3C37.3,534.2,37.3,529.4,37.3,529.4z"/>
			<path class="st4" d="M43,528.3v1.1h0.9v1H43v2.3c0,0.4,0.2,0.5,0.5,0.5c0.1,0,0.3,0,0.3,0v0.9c-0.1,0-0.4,0.1-0.6,0.1
				c-1.1,0-1.5-0.4-1.5-1.3v-2.5H41v-1h0.6v-1.1L43,528.3L43,528.3z"/>
			<path class="st4" d="M45,532.8c0-0.9,0.6-1.4,1.8-1.5l1.2-0.1V531c0-0.5-0.3-0.7-0.8-0.7c-0.5,0-0.8,0.3-0.8,0.5h-1.2
				c0.1-0.9,0.8-1.5,2.1-1.5c1.2,0,2,0.6,2,1.5v3.3H48v-0.7l0,0c-0.3,0.5-0.8,0.8-1.5,0.8C45.7,534.2,45,533.6,45,532.8z M48,532.4
				v-0.4l-1,0.1c-0.5,0-0.7,0.3-0.7,0.5c0,0.4,0.3,0.5,0.7,0.5C47.6,533.3,48,532.9,48,532.4z"/>
		</g>
		<g class="st0">
			<path class="st4" d="M21.5,543.5h-2.3l-0.5,1.5h-1.4l2.2-6.4h1.5l2.3,6.4H22L21.5,543.5z M19.5,542.5h1.6l-0.8-2.6l0,0
				L19.5,542.5z"/>
			<path class="st4" d="M25.9,544.2L25.9,544.2v0.8h-1.3v-6.4h1.3v2.5l0,0c0.3-0.5,0.8-0.9,1.5-0.9c1.2,0,1.9,0.9,1.9,2.5
				s-0.7,2.5-1.9,2.5C26.7,545.1,26.1,544.8,25.9,544.2z M25.9,542.7c0,0.8,0.5,1.5,1.1,1.5s1.1-0.5,1.1-1.5s-0.4-1.5-1.1-1.5
				C26.3,541.2,25.9,541.8,25.9,542.7z"/>
			<path class="st4" d="M30.6,539c0-0.4,0.3-0.6,0.6-0.6s0.6,0.3,0.6,0.6c0,0.4-0.3,0.6-0.6,0.6S30.6,539.3,30.6,539z M30.7,540.3
				H32v4.7h-1.3V540.3z"/>
			<path class="st4" d="M37.8,543.6c-0.2,0.9-1,1.5-2.2,1.5c-1.5,0-2.4-0.9-2.4-2.5s0.9-2.5,2.3-2.5c1.4,0,2.3,0.9,2.3,2.4v0.4h-3.3
				v0.1c0,0.6,0.5,1.2,1.1,1.2c0.5,0,0.8-0.3,1-0.6L37.8,543.6L37.8,543.6z M34.6,542.1h2c0-0.6-0.5-1-1-1S34.6,541.6,34.6,542.1z"
				/>
			<path class="st4" d="M39.1,540.3h1.3v0.8l0,0c0.2-0.6,0.5-0.9,1.1-0.9c0.2,0,0.3,0,0.4,0.1v1.2c-0.1,0-0.3-0.1-0.5-0.1
				c-0.6,0-1,0.4-1,1.1v2.6h-1.3C39.1,545.1,39.1,540.3,39.1,540.3z"/>
			<path class="st4" d="M44.9,539.2v1.1h0.9v1h-0.9v2.3c0,0.4,0.2,0.5,0.5,0.5c0.1,0,0.3,0,0.3,0v0.9c-0.1,0-0.4,0.1-0.6,0.1
				c-1.1,0-1.5-0.4-1.5-1.3v-2.5h-0.6v-1h0.6v-1.1L44.9,539.2L44.9,539.2z"/>
			<path class="st4" d="M46.9,543.7c0-0.9,0.6-1.4,1.8-1.5l1.2-0.1v-0.3c0-0.5-0.3-0.7-0.8-0.7c-0.5,0-0.8,0.3-0.8,0.5H47
				c0.1-0.9,0.8-1.5,2.1-1.5c1.2,0,2,0.6,2,1.5v3.3h-1.3v-0.7l0,0c-0.3,0.5-0.8,0.8-1.5,0.8C47.6,545.1,46.9,544.5,46.9,543.7z
				 M49.8,543.3V543l-1,0.1c-0.5,0-0.7,0.3-0.7,0.5c0,0.4,0.3,0.5,0.7,0.5C49.4,544.2,49.8,543.8,49.8,543.3z"/>
		</g>
		<g transform="matrix(1, 0, 0, 1, 9, 238.54)">
			<g id="Trazado_54-5_00000128467869822749347490000013992866613042392250_" transform="translate(15 113.46)">
				<path class="st5" d="M10.4,39.1c-3.1,0-6.2-0.6-9-1.8c-2.7-1.2-5.3-2.8-7.4-5s-3.8-4.5-5-7.4s-1.8-5.9-1.8-9s0.6-6.2,1.8-9
					c1.2-2.8,2.8-5.3,5-7.4s4.6-3.8,7.4-5c2.8-1.2,5.9-1.8,9-1.8s6.2,0.6,9,1.8c2.8,1.2,5.3,2.8,7.4,5s3.8,4.6,5,7.4
					c1.2,2.8,1.8,5.9,1.8,9s-0.6,6.2-1.8,9c-1.2,2.7-2.8,5.3-5,7.4s-4.6,3.8-7.4,5C16.6,38.4,13.5,39.1,10.4,39.1z"/>
				<path class="st6" d="M10.4-6.8c-3.1,0-6,0.6-8.8,1.8c-2.7,1.2-5.2,2.8-7.2,4.9s-3.7,4.5-4.9,7.2c-1.2,2.8-1.8,5.8-1.8,8.8
					s0.6,6,1.8,8.8c1.2,2.7,2.8,5.2,4.9,7.2s4.5,3.7,7.2,4.9c2.8,1.2,5.8,1.8,8.8,1.8s6-0.6,8.8-1.8c2.7-1.2,5.2-2.8,7.2-4.9
					s3.7-4.5,4.9-7.2c1.2-2.8,1.8-5.8,1.8-8.8s-0.6-6-1.8-8.8c-1.2-2.7-2.8-5.2-4.9-7.2S21.9-3.8,19.2-5C16.4-6.2,13.5-6.8,10.4-6.8
					 M10.4-7.7C23.5-7.7,34,2.8,34,15.9S23.5,39.5,10.4,39.5S-13.2,29-13.2,15.9S-2.7-7.7,10.4-7.7z"/>
			</g>
		</g>
		<g transform="matrix(1, 0, 0, 1, 9, 238.54)">
			<path id="unlock-2-5_00000060006006532743807760000009429558560804125581_" class="st7" d="M25.7,114.9c-3.7,0-6.7,3-6.7,6.7l0,0
				v4.5c-2.5,0-4.5,2-4.5,4.5v9c0,2.5,2,4.5,4.5,4.5h13.4c2.5,0,4.5-2,4.5-4.5v-9c0-2.5-2-4.5-4.5-4.5H21.2v-4.5
				c-0.1-2.5,1.8-4.5,4.3-4.5c0.1,0,0.1,0,0.2,0c2.5,0,4.5,1.9,4.5,4.3c0,0.1,0,0.1,0,0.2v1.1h2.3v-1.1
				C32.4,117.9,29.4,114.9,25.7,114.9L25.7,114.9z M25.7,131.7c1.3,0,2.3,1,2.3,2.3c0,0.8-0.5,1.5-1.1,1.9v2.6
				c0,0.6-0.5,1.1-1.1,1.2c-0.6,0-1.1-0.5-1.2-1.1c0,0,0,0,0-0.1v-2.6c-0.7-0.4-1.1-1.1-1.1-1.9C23.4,132.8,24.4,131.8,25.7,131.7z"
				/>
		</g>
		<g id="Grupo_27" transform="translate(24 579.947)">
			<g transform="matrix(1, 0, 0, 1, -15, -341.4)">
				<g id="Trazado_54-6_00000041261110302051630190000000876141122678841530_" transform="translate(15 341.46)">
					<path class="st5" d="M10.4,18.2c-3.1,0-6.2-0.6-9-1.8c-2.7-1.2-5.3-2.8-7.4-5s-3.8-4.5-5-7.4s-1.8-5.9-1.8-9s0.6-6.2,1.8-9
						s2.8-5.3,5-7.4s4.6-3.8,7.4-5c2.8-1.2,5.9-1.8,9-1.8s6.2,0.6,9,1.8c2.8,1.2,5.3,2.8,7.4,5s3.8,4.6,5,7.4c1.2,2.8,1.8,5.9,1.8,9
						s-0.6,6.2-1.8,9c-1.2,2.7-2.8,5.3-5,7.4s-4.6,3.8-7.4,5C16.6,17.5,13.5,18.2,10.4,18.2z"/>
					<path class="st6" d="M10.4-27.7c-3.1,0-6,0.6-8.8,1.8c-2.7,1.2-5.2,2.8-7.2,4.9s-3.7,4.5-4.9,7.2C-11.7-11-12.3-8-12.3-5
						s0.6,6,1.8,8.8C-9.3,6.6-7.7,9-5.6,11s4.5,3.7,7.2,4.9c2.8,1.2,5.8,1.8,8.8,1.8s6-0.6,8.8-1.8c2.7-1.2,5.2-2.8,7.2-4.9
						s3.7-4.5,4.9-7.2C32.5,1,33.1-2,33.1-5s-0.6-6-1.8-8.8c-1.2-2.7-2.8-5.2-4.9-7.2s-4.5-3.7-7.2-4.9
						C16.4-27.1,13.5-27.7,10.4-27.7 M10.4-28.6C23.5-28.6,34-18.1,34-5S23.5,18.6,10.4,18.6S-13.2,8.1-13.2-5S-2.7-28.6,10.4-28.6z
						"/>
				</g>
			</g>
		</g>
		<g transform="matrix(1, 0, 0, 1, 9, 238.54)">
			<path id="unlock-2-6_00000130636862431887288350000007803875534529714348_" class="st7" d="M25.7,321c-3.7,0-6.7,3-6.7,6.7l0,0
				v4.5c-2.5,0-4.5,2-4.5,4.5v9c0,2.5,2,4.5,4.5,4.5h13.4c2.5,0,4.5-2,4.5-4.5v-9c0-2.5-2-4.5-4.5-4.5H21.2v-4.5
				c-0.1-2.5,1.8-4.5,4.3-4.5c0.1,0,0.1,0,0.2,0c2.5,0,4.5,1.9,4.5,4.3c0,0.1,0,0.1,0,0.2v1.1h2.3v-1.1C32.4,324,29.4,321,25.7,321
				L25.7,321z M25.7,337.8c1.3,0,2.3,1,2.3,2.3c0,0.8-0.5,1.5-1.1,1.9v2.6c0,0.6-0.5,1.1-1.1,1.2c-0.6,0-1.1-0.5-1.2-1.1
				c0,0,0,0,0-0.1V342c-0.7-0.4-1.1-1.1-1.1-1.9C23.4,338.9,24.4,337.8,25.7,337.8z"/>
		</g>
		<g id="Grupo_29" transform="translate(61 -2)">
			<g id="Grupo_28" transform="translate(293 581.947)">
				<g transform="matrix(1, 0, 0, 1, -345, -341.4)">
					<g id="Trazado_54-7_00000052805488731850913570000001948526667963057582_" transform="translate(345 341.46)">
						<path class="st5" d="M-19.8,18.2c-3.1,0-6.2-0.6-9-1.8c-2.7-1.2-5.3-2.8-7.4-5c-2.1-2.2-3.8-4.5-5-7.4S-43-1.9-43-5
							s0.6-6.2,1.8-9s2.8-5.3,5-7.4c2.2-2.1,4.6-3.8,7.4-5c2.8-1.2,5.9-1.8,9-1.8s6.2,0.6,9,1.8c2.8,1.2,5.3,2.8,7.4,5
							s3.8,4.6,5,7.4c1.2,2.8,1.8,5.9,1.8,9S2.7,1.2,1.5,4c-1.2,2.7-2.8,5.3-5,7.4s-4.6,3.8-7.4,5C-13.7,17.5-16.7,18.2-19.8,18.2z"
							/>
						<path class="st6" d="M-19.8-27.7c-3.1,0-6,0.6-8.8,1.8c-2.7,1.2-5.2,2.8-7.2,4.9c-2,2.1-3.7,4.5-4.9,7.2
							C-41.9-11-42.5-8-42.5-5s0.6,6,1.8,8.8c1.2,2.7,2.8,5.2,4.9,7.2c2.1,2,4.5,3.7,7.2,4.9c2.8,1.2,5.8,1.8,8.8,1.8s6-0.6,8.8-1.8
							c2.7-1.2,5.2-2.8,7.2-4.9s3.7-4.5,4.9-7.2C2.2,1,2.9-2,2.9-5s-0.6-6-1.8-8.8C-0.1-16.5-1.8-19-3.8-21s-4.5-3.7-7.2-4.9
							C-13.8-27.1-16.7-27.7-19.8-27.7 M-19.8-28.6C-6.7-28.6,3.8-18.1,3.8-5S-6.7,18.6-19.8,18.6S-43.4,8.1-43.4-5
							S-32.9-28.6-19.8-28.6z"/>
					</g>
				</g>
			</g>
			<g transform="matrix(1, 0, 0, 1, -52, 240.54)">
				<path id="unlock-2-7_00000109729771779518191030000009664387189011513268_" class="st1" d="M325.4,321c-3.7,0-6.7,3-6.7,6.7l0,0
					v4.5c-2.5,0-4.5,2-4.5,4.5v9c0,2.5,2,4.5,4.5,4.5h13.4c2.5,0,4.5-2,4.5-4.5v-9c0-2.5-2-4.5-4.5-4.5h-11.2v-4.5
					c-0.1-2.5,1.8-4.5,4.3-4.5c0.1,0,0.1,0,0.2,0c2.5,0,4.5,1.9,4.5,4.3c0,0.1,0,0.1,0,0.2v1.1h2.3v-1.1
					C332.2,324,329.2,321,325.4,321L325.4,321z M325.4,337.8c1.3,0,2.3,1,2.3,2.3c0,0.8-0.5,1.5-1.1,1.9v2.6c0,0.6-0.5,1.1-1.1,1.2
					c-0.6,0-1.1-0.5-1.2-1.1c0,0,0,0,0-0.1V342c-0.7-0.4-1.1-1.1-1.1-1.9C323.2,338.9,324.2,337.8,325.4,337.8z"/>
			</g>
		</g>
		<g id="Grupo_30" transform="translate(61 -230)">
			<g id="Grupo_28-2" transform="translate(293 581.947)">
				<g transform="matrix(1, 0, 0, 1, -345, -113.4)">
					<g id="Trazado_54-8_00000030472359617606460120000017789030086580980129_" transform="translate(345 113.46)">
						<path class="st5" d="M-19.8,39.1c-3.1,0-6.2-0.6-9-1.8c-2.7-1.2-5.3-2.8-7.4-5c-2.1-2.2-3.8-4.5-5-7.4s-1.8-5.9-1.8-9
							s0.6-6.2,1.8-9c1.2-2.8,2.8-5.3,5-7.4c2.2-2.1,4.6-3.8,7.4-5c2.8-1.2,5.9-1.8,9-1.8s6.2,0.6,9,1.8c2.8,1.2,5.3,2.8,7.4,5
							s3.8,4.6,5,7.4c1.2,2.8,1.8,5.9,1.8,9s-0.6,6.2-1.8,9c-1.2,2.7-2.8,5.3-5,7.4s-4.6,3.8-7.4,5C-13.7,38.4-16.7,39.1-19.8,39.1z
							"/>
						<path class="st6" d="M-19.8-6.8c-3.1,0-6,0.6-8.8,1.8c-2.7,1.2-5.2,2.8-7.2,4.9c-2,2.1-3.7,4.5-4.9,7.2
							c-1.2,2.8-1.8,5.8-1.8,8.8s0.6,6,1.8,8.8c1.2,2.7,2.8,5.2,4.9,7.2c2.1,2,4.5,3.7,7.2,4.9c2.8,1.2,5.8,1.8,8.8,1.8
							s6-0.6,8.8-1.8c2.7-1.2,5.2-2.8,7.2-4.9s3.7-4.5,4.9-7.2c1.2-2.8,1.8-5.8,1.8-8.8s-0.6-6-1.8-8.8c-1.2-2.7-2.8-5.2-4.9-7.2
							S-8.4-3.8-11-5C-13.8-6.2-16.7-6.8-19.8-6.8 M-19.8-7.7C-6.7-7.7,3.8,2.8,3.8,15.9S-6.7,39.5-19.8,39.5S-43.4,29-43.4,15.9
							S-32.9-7.7-19.8-7.7z"/>
					</g>
				</g>
			</g>
			<g transform="matrix(1, 0, 0, 1, -52, 468.54)">
				<path id="unlock-2-8_00000140721476575423588430000014407987739035690671_" class="st1" d="M325.4,113.8c-3.7,0-6.7,3-6.7,6.7
					l0,0v4.5c-2.5,0-4.5,2-4.5,4.5v9c0,2.5,2,4.5,4.5,4.5h13.4c2.5,0,4.5-2,4.5-4.5v-9c0-2.5-2-4.5-4.5-4.5h-11.2v-4.5
					c-0.1-2.5,1.8-4.5,4.3-4.5c0.1,0,0.1,0,0.2,0c2.5,0,4.5,1.9,4.5,4.3c0,0.1,0,0.1,0,0.2v1.1h2.3v-1.1
					C332.2,116.9,329.2,113.9,325.4,113.8C325.4,113.9,325.4,113.9,325.4,113.8z M325.4,130.7c1.3,0,2.3,1,2.3,2.3
					c0,0.8-0.5,1.5-1.1,1.9v2.6c0,0.6-0.5,1.1-1.1,1.2c-0.6,0-1.1-0.5-1.2-1.1c0,0,0,0,0-0.1v-2.6c-0.7-0.4-1.1-1.1-1.1-1.9
					C323.2,131.8,324.2,130.7,325.4,130.7z"/>
			</g>
		</g>
	</g>
</g>
</svg>
