<?xml version="1.0" encoding="utf-8"?>
<!-- Generator: Adobe Illustrator 27.2.0, SVG Export Plug-In . SVG Version: 6.00 Build 0)  -->
<svg version="1.1" id="Capa_1" xmlns="http://www.w3.org/2000/svg" xmlns:xlink="http://www.w3.org/1999/xlink" x="0px" y="0px"
	 viewBox="0 0 350 448" style="enable-background:new 0 0 350 448;" xml:space="preserve">
<style type="text/css">
	.st0{fill:none;stroke:#707070;stroke-width:0.9084;}
	.st1{fill:none;stroke:#555454;stroke-width:3.6335;stroke-linecap:round;stroke-linejoin:round;}
	.st2{enable-background:new    ;}
	.st3{fill:#F7F0F0;}
	.st4{fill:#959595;}
	.st5{fill:#4B4E4E;}
</style>
<g id="Grupo_955" transform="translate(-9 -238.544)">
	<g id="Grupo_22" transform="translate(313.484 548.916)">
		<line id="Línea_5" class="st0" x1="-40.5" y1="-25.7" x2="-0.5" y2="-0.2"/>
		<line id="Línea_6" class="st0" x1="41.3" y1="-0.2" x2="-0.5" y2="-0.2"/>
	</g>
	<g id="Grupo_23" transform="translate(313.484 437.002)">
		<line id="Línea_5-2" class="st0" x1="-40" y1="9.9" x2="-0.2" y2="-15.5"/>
		<line id="Línea_6-2" class="st0" x1="41.3" y1="-15.5" x2="-0.2" y2="-15.5"/>
	</g>
	<g id="Grupo_21" transform="translate(27.979 548.916)">
		<line id="Línea_5-3" class="st0" x1="67.9" y1="-25.7" x2="27.9" y2="-0.2"/>
		<line id="Línea_6-3" class="st0" x1="-13.9" y1="-0.2" x2="27.9" y2="-0.2"/>
	</g>
	<g id="Grupo_17" transform="translate(28.477 437.002)">
		<line id="Línea_5-4" class="st0" x1="67.4" y1="9.9" x2="27.7" y2="-15.5"/>
		<line id="Línea_6-4" class="st0" x1="-13.9" y1="-15.5" x2="27.7" y2="-15.5"/>
	</g>
	<g id="Mesa_de_trabajo_1carr" transform="translate(109 240.531)">
		<g id="SPLINE" transform="translate(106.442 464.407)">
			<path id="Trazado_7" class="st1" d="M-31-22.9c3.5,0,7.1,0,10.6,0C-13-23-5.4-23.4,2-23.8c2.7-0.1,5.5-0.3,8.2-0.6
				c2.5-0.5,5-1,7.4-1.7c1.9-0.5,3.8-1.2,5.7-1.9c3.1-1.5,6-3.2,8.7-5.2c1.5-1,2.9-2,4.3-3.2c0.7-0.5,1.4-1.2,2-1.8
				c0.3-0.4,0.5-0.6,0.7-0.9c0.2-0.3,0.3-0.6,0.4-0.9"/>
		</g>
		<g id="SPLINE-2" transform="translate(106.442 273.314)">
			<path id="Trazado_8" class="st1" d="M-31,166.8c5.7,0,11.4,0.1,17.1-0.1c6.8-0.3,13.5-0.8,20.3-1.5c1.8-0.1,3.6-0.4,5.5-0.7
				c1.5-0.4,2.9-0.8,4.4-1.2c1.1-0.3,2.1-0.5,3.2-0.8c4.1-1.3,7.8-3.7,11.5-5.9c3.3-2,6.6-3.9,9.6-6.2c1-0.7,2-1.5,2.9-2.5
				c0.6-0.7,1.3-1.5,1.7-2.3c0.5-1,1-2.1,1.4-3.2c1.9-5.8,2.7-11.9,3.9-18c0.6-3.4,1.4-6.6,2.2-10c0.7-3,1.5-6,2.3-8.9
				c0.6-2.2,1.3-4.4,1.8-6.6c0.3-1.5,0.5-2.8,0.7-4.3c0.2-2,0.3-3.9,0.4-5.9c0.5-16.8,1-33.6,0.9-50.4c0-1.6,0-3.3-0.1-4.9
				c-0.3-4-1.1-8-1.5-12.1c-0.2-2.3-0.3-4.6-0.3-6.9c-0.1-2.9-0.1-5.8-0.1-8.7c0-2.4-0.4-26.1-0.3-28.4"/>
		</g>
		<g id="SPLINE-3" transform="translate(106.442 445.48)">
			<path id="Trazado_9" class="st1" d="M-31-31.5c3.3,0,6.6,0,9.9-0.1c5.5-0.2,11-0.5,16.5-1c5.1-0.5,10.3-1.2,15.4-2
				c5.5-0.9,11-1.9,16.4-3.2c0.8-0.2,1.5-0.4,2.4-0.5"/>
		</g>
		<g id="SPLINE-4" transform="translate(106.442 414.925)">
			<path id="Trazado_10" class="st1" d="M31.7-35.5c-1.6,0.5-3.4,0.9-5,1.3c-3,0.7-6,1.5-9,2.1c-4,0.8-8,1.5-12.1,2.2
				c-3.9,0.6-7.8,1.1-11.7,1.5c-4.4,0.4-8.8,0.6-13.2,0.6c-4,0.1-7.9,0-11.9,0"/>
		</g>
		<g id="SPLINE-5" transform="translate(106.442 462.099)">
			<path id="Trazado_11" class="st1" d="M-31-32.4c3.8,0,7.6,0.2,11.4,0.1c4.5-0.1,9.1-0.5,13.6-1c4.4-0.5,8.7-0.8,13-1.5
				c2.3-0.4,4.6-0.7,6.9-1.1c0.2,0,0.4-0.1,0.5-0.2c0.2-0.1,0.3-0.2,0.4-0.4c0.1-0.2,0.1-0.4,0-0.5c-0.1-0.8-0.1-1.5-0.2-2.4
				c0-0.1,0-0.2-0.1-0.3c0-0.2-0.1-0.2-0.2-0.3c-0.1,0-0.3-0.1-0.4,0c-1.5,0.1-3,0.4-4.5,0.6c-3,0.5-6,0.9-9.1,1.2
				c-2.5,0.3-5,0.5-7.5,0.6c-4,0.4-8.1,0.8-12.2,1c-2.4,0.1-4.8,0.1-7.2,0.1H-31"/>
		</g>
		<g id="SPLINE-6" transform="translate(106.442 471.859)">
			<path id="Trazado_12" class="st1" d="M-31-36.1c1.5,0,2.9,0,4.4-0.1c3.2,0,6.3-0.1,9.4-0.3c2.7-0.1,5.4-0.2,8.1-0.5
				c2.6-0.2,5.2-0.5,7.8-0.9C0-38,1.4-38.3,2.8-38.5c0.1,0,0.2,0,0.4-0.1c0.1,0,0.2-0.1,0.2-0.2c0-0.1,0-0.2,0-0.4
				c0-0.5-0.1-0.9-0.1-1.5c0-0.1,0-0.1,0-0.2c0-0.1-0.1-0.1-0.1-0.1c-0.1,0-0.2,0-0.3,0c-0.9,0.1-1.8,0.2-2.7,0.4
				c-1.8,0.3-3.6,0.5-5.5,0.7c-1.5,0.2-3,0.3-4.5,0.5c-2.5,0.2-4.9,0.5-7.4,0.5c-3,0.2-6.2,0.2-9.3,0.2c-1.5,0-3.1,0-4.6,0"/>
		</g>
		<g id="SPLINE-7" transform="translate(144.092 161.375)">
			<path id="Trazado_13" class="st1" d="M-34.5,269.9c0.5-0.1,1.2-0.2,1.7-0.2c1.5-0.2,3-0.3,4.5-0.4c1.6-0.1,3.3-0.3,4.9-0.6
				c1.5-0.5,2.9-1,4.2-1.7c2.6-1.2,5.3-2.5,7.8-4.1c1.5-0.9,3-2,4.5-3.1c1.4-1,2.7-2.1,4-3.3c1.2-1,2.2-2.2,3-3.5
				c0.3-0.5,0.5-1,0.6-1.5c0.3-1.1,0.5-2.3,0.5-3.5c0.1-0.8,0.2-1.7,0.2-2.5c0-0.3-0.1-0.6-0.3-0.8c-0.1-0.1-0.3-0.2-0.5-0.2
				c-0.3,0-0.5,0-0.7,0.2c-0.4,0.1-0.6,0.2-1,0.4c-0.9,0.3-1.7,0.7-2.6,1c-0.6,0.2-1.3,0.4-1.9,0.5c-0.5,0.1-0.9,0.2-1.4,0.3
				c-0.3,0.1-0.5,0.1-0.7,0c-0.1-0.1-0.2-0.2-0.3-0.3c-0.1-0.2-0.1-0.4-0.1-0.5c0.1-1.1,0.2-2.2,0.5-3.2c0.5-2.8,0.7-5.7,1-8.6
				c0.4-4.5,0.7-9,0.7-13.5c0.1-5.8-0.5-11.6-0.8-17.4c-1.2-16.3-2.1-32.4-3.1-48.7c-0.6-9.9-1.3-19.7-1.8-29.6
				c-0.5-8.2-0.8-16.4-0.9-24.5c-0.1-7,0.1-14,0.5-21.1c0.3-6.9,0.7-13.8,1.5-20.6c0.6-5.5,1.4-11,2.4-16.5
				C-5.7,27.8-1.9,13.7,2-0.3c1-3.6,2.1-7.2,3.1-10.8c0.2-0.5,0.3-0.9,0.5-1.4"/>
		</g>
		<g id="SPLINE-8" transform="translate(202.548 208.58)">
			<path id="Trazado_14" class="st1" d="M-39.8,42.2c0-19.5,0-39.2,0.1-58.8"/>
		</g>
		<g id="SPLINE-9" transform="translate(106.432 0)">
			<path id="Trazado_15" class="st1" d="M56.3,180.5c0-5.4,0.1-10.6,0.1-16c0.1-13.2,0.3-26.3,0.6-39.4c0.1-2,0.1-4,0.2-6
				c0.3-9.2,0.5-18.3,0.1-27.6c-0.3-6.3-0.9-12.5-1.1-18.8c-0.1-3.7-0.2-7.4-0.3-11.2c0-1.8-0.2-3.6-0.5-5.4
				c-0.5-2.8-1.5-5.5-2.5-8.3c-1.2-3.3-2.5-6.4-4.1-9.5c-1.5-2.7-3-5.4-4.7-7.9c-1.6-2.5-3.4-5-5.4-7.3c-1.8-1.9-3.6-3.7-5.6-5.4
				c-1.9-1.6-3.7-3.3-5.7-4.8c-1.8-1.4-3.8-2.5-5.9-3.5C20,8.9,18.6,8.3,17.2,8c-3.5-1-7-1.8-10.6-2.5C2.2,4.7-2.2,4.1-6.7,3.6
				c-4-0.5-8-0.8-12.1-1S-27,2.5-31,2.6"/>
		</g>
		<g id="SPLINE-10" transform="translate(106.442 3.188)">
			<path id="Trazado_16" class="st1" d="M-31,2.2c6.5,0,13,0.4,19.5,0.8C-7,3.3-2.4,3.7,2,4.3c3.1,0.5,6.2,1.1,9.3,1.8
				c2.5,0.5,4.9,1.1,7.3,2c1.6,0.7,3.3,1.5,4.8,2.5c2.6,1.6,5.1,3.5,7.4,5.6c1.9,1.7,3.8,3.5,5.5,5.5c1.6,1.8,3.2,3.6,4.5,5.5
				c1.1,1.5,4.5,11.1,5.4,12.6"/>
		</g>
		<g id="SPLINE-11" transform="translate(106.442 5.406)">
			<path id="Trazado_17" class="st1" d="M-31,2c5.6,0,11.3-0.1,16.8,0.3c1.9,0.1,3.9,0.3,5.8,0.4C-5.5,2.8-2.6,3,0.3,3.3
				c3.6,0.3,7.2,1,10.5,2.3c0.5,0.2,1,0.5,1.5,0.8c0.5,0.3,0.8,0.6,1.1,1.1"/>
		</g>
		<g id="SPLINE-12" transform="translate(106.442 6.837)">
			<path id="Trazado_18" class="st1" d="M-31,1.9c4.5,0,9.2,0.1,13.7,0.3c3.6,0.2,7.3,0.4,10.9,0.5C-3.8,2.9-1.2,3,1.4,3.2
				c2.4,0.3,4.7,0.6,7.1,1.1c1.2,0.2,2.4,0.5,3.5,0.8c1.2,0.5,2.4,1.3,3.4,2.1c0.9,0.8,1.8,1.6,2.6,2.5c0.5,0.6,1.1,1.4,1.5,2.2
				c0.3,0.5,0.5,1,0.7,1.5"/>
		</g>
		<g id="SPLINE-13" transform="translate(161.082 19.55)">
			<path id="Trazado_19" class="st1" d="M-36,0.7c0.5,0.2,0.8,0.5,1.3,0.6c2.8,1.5,5.5,3.4,7.8,5.4c2.6,1.8,4.8,3.5,6.5,4.9
				c2.9,2.4,4.9,4.2,5.5,4.8c1.5,1.5,3,3,4.4,4.6c0.8,0.9,1.5,1.8,1.9,2.5"/>
		</g>
		<g id="SPLINE-14" transform="translate(105.065 9.507)">
			<path id="Trazado_20" class="st1" d="M-30.9,1.6c3,0,6.1,0.2,9.1,0.3c4.8,0.2,9.6,0.4,14.4,0.7c4.1,0.3,8.1,0.7,12.2,1
				C6.4,3.7,8,3.9,9.5,4.3C10.8,4.5,12,5,13,5.7c2.3,2,5.7,4.6,2,1.3c-2.1-1.9-6-2.8,1.8,1.9c0.6,0.4-1.1-1.1-0.5-0.5
				c0.4,0.5,3.4,2.3,3.7,2.7"/>
		</g>
		<g id="SPLINE-15" transform="translate(106.437 342.876)">
			<path id="Trazado_21" class="st1" d="M-31,39.5c4,0,8.1,0.1,12.2,0c4.4-0.1,8.7-0.4,13-0.7c2.7-0.3,5.4-0.5,8.1-0.8
				c2.6-0.2,5.4-0.6,7.9-1.5c1.3-0.5,2.5-1.1,3.6-1.8c1.3-0.7,2.5-1.5,3.5-2.5c1.2-1,2.3-2.3,3.1-3.6c0.8-1.4,1.5-2.8,2-4.4
				c0.5-1.5,0.9-3.2,1.2-4.8c0.2-1.6,0.2-3.3,0.2-4.9c-0.3-13.2-1.2-26.1-0.1-39.3c0.1-0.5,0.1-1,0-1.5c-0.1-0.3-0.2-0.5-0.3-0.7
				c-0.2-0.3-0.4-0.5-0.5-0.7c-0.3-0.3-0.6-0.5-1-0.7c-0.5-0.2-1-0.4-1.5-0.4c-0.5-0.1-0.9-0.1-1.4-0.1c-4.2,0.1-8.4,0.3-12.5,0.8
				c-5.5,0.5-11,0.8-16.4,0.9c-7.1,0.2-14,0.1-21,0"/>
		</g>
		<g id="SPLINE-16" transform="translate(106.447 332.687)">
			<path id="Trazado_22" class="st1" d="M27.1-28c-1.7,0.1-3.5,0.3-5.2,0.4c-6.5,0.5-13.1,0.7-19.6,1.1c-5.1,0.3-10.3,0.6-15.4,0.7
				c-6,0.2-12,0.1-18,0"/>
		</g>
		<g id="SPLINE-17" transform="translate(106.442 219.837)">
			<path id="Trazado_23" class="st1" d="M29-13.9c-0.7-0.1-1.5-0.2-2.2-0.3c-1.6-0.2-3.3-0.5-4.9-0.6c-5.4-0.6-10.7-1.2-16.1-1.5
				C0.5-16.7-5-16.9-10.3-17.1c-6-0.3-12-0.5-18-0.5H-31"/>
		</g>
		<g id="SPLINE-18" transform="translate(106.442 160.596)">
			<path id="Trazado_24" class="st1" d="M-31,37.6c5.5,0.1,11,0.3,16.4,0.5c5.5,0.2,11.1,0.4,16.7,0.6c4.5,0.2,9.1,0.5,13.5,1
				c1.9,0.2,3.8,0.5,5.7,0.8c0.5,0.1,1,0.2,1.5,0.2c0.5-0.1,0.8-0.2,1.2-0.4c0.5-0.2,0.9-0.5,1.3-0.8c0.4-0.4,0.7-0.8,0.9-1.4
				c0.3-0.7,0.5-1.5,0.6-2.4c0.9-4.6,2.1-9.3,3.4-13.8c0.8-3,1.5-5.9,2.4-8.9c0.7-2.5,1.4-5.2,2.1-7.7c0.3-0.9,0.5-1.8,0.5-2.7
				c0-0.5,0-1-0.1-1.5c-0.1-0.6-0.3-1.4-0.5-2c-0.2-0.6-0.5-1.2-0.9-1.7c-0.4-0.5-0.8-0.9-1.3-1.3c-0.6-0.4-1.3-0.6-1.9-0.9
				c-1.2-0.5-2.5-0.8-3.6-1.1C23.6-6.8,20.4-7.4,17-8c-3.3-0.5-6.4-1-9.5-1.5C3.7-10-0.2-10.5-4-10.9c-3.5-0.4-6.9-0.6-10.3-0.9
				c-2.5-0.2-5.1-0.4-7.7-0.4c-3.1,0-6.1,0-9.1,0.1"/>
		</g>
		<g id="SPLINE-19" transform="translate(106.447 142.883)">
			<path id="Trazado_25" class="st1" d="M46.4,31.7c-0.1-2.2-0.2-4.4-0.3-6.5c-0.1-3.1-0.3-6.2-0.5-9.3c-0.2-1.8-0.4-3.6-0.7-5.4
				c-0.2-1.2-0.5-2.3-1.1-3.4c-0.5-1-1.2-1.8-2-2.6c-0.8-0.9-1.7-1.7-2.6-2.5C37.8,1,36.5,0,35.1-1c-1.3-0.9-2.6-1.7-4-2.5
				c-1.7-0.9-3.5-1.6-5.4-2.2C23.2-6.4,20.6-7,18-7.5c-2.2-0.5-4.5-0.9-6.6-1.3C7.8-9.3,4.2-9.5,0.7-9.7c-3.6-0.2-7.4-0.5-11-0.6
				c-4.5-0.2-8.7-0.3-13-0.3c-2.6,0-5.2,0-7.7,0"/>
		</g>
		<g id="SPLINE-20" transform="translate(174.044 167.39)">
			<path id="Trazado_26" class="st1" d="M-21.5,110.4c-0.8,0.7-1.5,1.5-2.5,2.1c-1,0.7-2,1.5-3,2.1c-0.7,0.5-1.5,0.9-2.3,1.4
				c-0.5,0.3-1.1,0.5-1.7,0.8c-0.4,0.2-0.8,0.3-1.2,0.4c-0.4,0-0.7,0-1.1-0.2c-0.3-0.2-0.5-0.4-0.8-0.6c-0.4-0.4-0.6-0.7-0.9-1.1
				c-0.2-0.5-0.3-0.9-0.4-1.4c-0.1-1.1-0.3-2.2-0.4-3.2c-0.6-8-0.7-16.2-1.1-24.3c-0.2-4.2-0.5-8.3-0.5-12.4
				c-0.1-4.9,0.1-9.8,0.5-14.7c0.3-4.1,0.6-8.3,1.3-12.3c0.6-4.2,1.6-8.3,2.5-12.4c2.2-9.4,4.3-18.9,7-27.9c1.4-4,2.5-8.1,3.4-12.2
				c0.1-0.8,0.4-1.6,0.9-2.3c0.2-0.2,0.5-0.4,0.6-0.5c2.2-1.4,4.5-2.5,6.8-3.5c1-0.5,2.1-0.8,3.1-1.3"/>
		</g>
		<g id="SPLINE-21" transform="translate(151.501 12.785)">
			<path id="Trazado_27" class="st1" d="M-23.1,123.5c0.1-1.4,0.1-2.8,0.1-4.2c0.1-7.4-0.5-14.9-1.1-22.3
				c-1.1-13.9-2.2-27.7-3.6-41.5c-1.1-10.4-2.4-20.8-3.9-31.2c-1.1-7.7-2.3-15.4-3.5-23.1"/>
		</g>
		<g id="SPLINE-22" transform="translate(188.763 181.464)">
			<path id="Trazado_28" class="st1" d="M-38.6-14.1c0.3,0.7,0.5,1.5,0.6,2.4c0.2,1.3,0.3,2.6,0.4,3.9l0,0"/>
		</g>
		<g id="LINE" transform="translate(181.842 200.402)">
			<line id="Línea_3" class="st1" x1="-37.9" y1="-10.5" x2="-30" y2="-15.9"/>
		</g>
		<g id="SPLINE-23" transform="translate(188.685 187.763)">
			<path id="Trazado_29" class="st1" d="M-38.6-14.7c1.9,1.1,3.7,2.1,5.6,3.2c1.5,0.9,3.1,1.7,4.6,2.6c1.5,0.8,2.8,1.8,4.2,2.8
				c0.7,0.5,1.5,1.2,2.2,1.7c0.8,0.6,1.6,1.3,2.4,2c0.6,0.7,1.2,1.6,1.6,2.5c0.3,0.7,0.5,1.5,0.8,2.2c0.3,0.6,0.5,1.4,0.5,2.1
				c-0.2,0.4-0.2,0.8-0.4,1.2c0,0.2-0.1,0.3-0.2,0.5c-0.2,0.2-0.4,0.4-0.6,0.5c-0.2,0.1-0.5,0.1-0.7,0.1c-0.5,0-0.9-0.2-1.4-0.4
				c-4.8-1.6-9.5-3-14-5c-0.4-0.2-0.6-0.3-1-0.5c-0.6-0.4-1.2-0.9-1.5-1.5c-0.2-0.4-0.2-0.7-0.4-1.1s-0.4-0.7-0.6-1.1"/>
		</g>
		<g id="SPLINE-24" transform="translate(190.595 191.035)">
			<path id="Trazado_30" class="st1" d="M-35.2-15c-0.2,0-0.5,0.1-0.6,0.2c-0.3,0.1-0.5,0.3-0.7,0.5c-0.5,0.5-1.1,1.2-1.5,1.8
				c-0.2,0.6-0.3,1.4-0.3,2.1c-0.1,0.6-0.2,1.4-0.3,2c0,0.2-0.1,0.5-0.1,0.6c-0.1,0.5-0.1,0.8,0,1.3c0.1,0.2,0.3,0.4,0.5,0.5
				c0.5,0.3,0.9,0.5,1.5,0.6c1.7,0.5,3.5,1.3,5.2,1.9c2.3,0.9,4.5,1.7,6.8,2.6c1.4,0.5,2.7,1.1,4.1,1.5c0.3,0.1,0.5,0.2,0.8,0.3
				c0.2,0,0.4,0.1,0.5,0.1c0.2,0,0.3,0,0.5-0.1c0.2-0.1,0.3-0.2,0.4-0.4"/>
		</g>
		<g id="SPLINE-25" transform="translate(28.833 464.407)">
			<path id="Trazado_31" class="st1" d="M46.6-22.9c-3.5,0-7.1,0-10.6,0c-7.4-0.1-15-0.5-22.4-0.9c-2.7-0.1-5.5-0.3-8.2-0.6
				c-2.5-0.5-5-1-7.4-1.7c-1.9-0.5-3.8-1.2-5.7-1.9c-3.1-1.5-6-3.2-8.7-5.2c-1.5-1.1-3-2.2-4.4-3.3c-0.7-0.5-1.4-1.2-2-1.8
				c-0.2-0.3-0.5-0.5-0.6-0.8c-0.2-0.3-0.3-0.5-0.4-0.9"/>
		</g>
		<g id="SPLINE-26" transform="translate(7.894 273.314)">
			<path id="Trazado_32" class="st1" d="M67.6,166.8c-5.7,0-11.4,0.1-17.1-0.1c-6.8-0.3-13.5-0.8-20.3-1.5c-1.8-0.1-3.6-0.4-5.5-0.7
				c-1.5-0.4-2.9-0.8-4.4-1.2c-1.1-0.3-2.1-0.5-3.2-0.8c-4.1-1.3-7.8-3.7-11.5-5.9c-3.3-2-6.6-3.9-9.6-6.2c-1-0.7-2-1.5-2.9-2.5
				c-0.6-0.7-1.3-1.5-1.7-2.3c-0.5-1-1-2.1-1.4-3.2c-1.9-5.8-2.7-11.9-3.9-18c-0.6-3.4-1.4-6.6-2.2-10c-0.7-3-1.5-6-2.3-8.9
				c-0.6-2.2-1.3-4.4-1.8-6.6c-0.3-1.5-0.5-2.8-0.7-4.3c-0.2-2-0.3-3.9-0.4-5.9c-0.5-16.8-1-33.6-0.9-50.4c0-1.6,0-3.3,0.1-4.9
				c0.3-4,1.1-8,1.5-12.1c0.3-2.3,0.4-4.5,0.4-6.8c0.1-2.9,0.1-5.8,0.1-8.7c0-2.4,0.4-26.1,0.3-28.4"/>
		</g>
		<g id="SPLINE-27" transform="translate(39.723 445.48)">
			<path id="Trazado_33" class="st1" d="M35.7-31.5c-3.3,0-6.6,0-9.9-0.1c-5.5-0.2-11-0.5-16.5-1c-5.1-0.5-10.2-1.2-15.3-2
				c-5.5-0.9-11.1-1.9-16.5-3.2c-0.7-0.2-1.5-0.4-2.4-0.5"/>
		</g>
		<g id="SPLINE-28" transform="translate(37.352 414.925)">
			<path id="Trazado_34" class="st1" d="M-24.7-35.5c1.6,0.5,3.4,0.9,5,1.3c3,0.7,6,1.5,9,2.1c4,0.8,8,1.5,12.1,2.2
				c3.9,0.6,7.8,1.1,11.7,1.5c4.4,0.4,8.8,0.6,13.2,0.6c4,0.1,7.9,0,11.9,0"/>
		</g>
		<g id="SPLINE-29" transform="translate(55.892 462.099)">
			<path id="Trazado_35" class="st1" d="M19.5-32.4c-3.8,0-7.6,0.2-11.4,0.1c-4.5-0.1-9.1-0.5-13.6-1c-4.4-0.5-8.7-0.8-13-1.5
				c-2.3-0.4-4.5-0.8-6.9-1.2c-0.2,0-0.4-0.1-0.5-0.2c-0.1,0-0.3-0.2-0.4-0.3c0-0.2,0-0.4,0-0.5c0.1-0.8,0.1-1.5,0.2-2.4
				c0-0.1,0-0.2,0.1-0.3c0-0.2,0.1-0.2,0.2-0.3c0.2,0,0.3,0,0.4,0c1.5,0.1,3,0.4,4.5,0.6c3,0.5,6,0.9,9.1,1.2c2.5,0.3,5,0.5,7.5,0.6
				c4.1,0.4,8.1,0.8,12.2,1c2.4,0.1,4.8,0.1,7.2,0.1h4.6"/>
		</g>
		<g id="SPLINE-30" transform="translate(68.558 471.859)">
			<path id="Trazado_36" class="st1" d="M6.9-36.1c-1.5,0-2.9,0-4.4-0.1c-3.2,0-6.3-0.1-9.4-0.3c-2.7-0.1-5.4-0.2-8.1-0.5
				c-2.6-0.2-5.2-0.5-7.8-0.9c-1.4-0.2-2.7-0.5-4.2-0.6c-0.1,0-0.2,0-0.4-0.1c0,0-0.1,0-0.2-0.1c0-0.2,0-0.3,0-0.4
				c0-0.5,0.1-0.9,0.1-1.5c0-0.1,0-0.1,0-0.2c0.1,0,0.2-0.1,0.2-0.1c0.1,0,0.2,0,0.3,0c0.9,0.1,1.8,0.2,2.7,0.4
				c1.8,0.3,3.6,0.5,5.5,0.7c1.5,0.2,3,0.3,4.5,0.5c2.5,0.2,4.9,0.5,7.4,0.5c3.1,0.2,6.2,0.1,9.3,0.2c1.5,0,3.1,0,4.6,0"/>
		</g>
		<g id="SPLINE-31" transform="translate(24.713 161.375)">
			<path id="Trazado_37" class="st1" d="M16.5,269.9c-0.5-0.1-1.2-0.2-1.7-0.2c-1.5-0.2-3-0.3-4.5-0.4c-1.6-0.1-3.3-0.3-4.9-0.6
				c-1.5-0.5-2.9-1-4.2-1.7c-2.6-1.2-5.3-2.5-7.8-4.1c-1.5-0.9-3-2-4.5-3.1c-1.4-1-2.7-2.1-4-3.3c-1.2-1-2.2-2.2-3-3.5
				c-0.3-0.5-0.5-1-0.6-1.5c-0.3-1.1-0.5-2.3-0.5-3.5c-0.1-0.8-0.2-1.7-0.2-2.5c0-0.3,0.1-0.6,0.3-0.8c0.1-0.1,0.3-0.2,0.5-0.2
				c0.3,0,0.5,0,0.7,0.2c0.4,0.1,0.6,0.2,1,0.4c0.9,0.3,1.7,0.7,2.6,1c0.6,0.2,1.3,0.4,1.9,0.5c0.5,0.1,0.9,0.2,1.4,0.3
				c0.3,0.1,0.5,0.1,0.7,0c0.1-0.1,0.2-0.2,0.3-0.3c0.1-0.2,0.1-0.4,0.1-0.5c-0.1-1.1-0.2-2.2-0.5-3.2c-0.5-2.8-0.7-5.7-1-8.6
				c-0.4-4.5-0.7-9-0.7-13.5c-0.1-5.8,0.5-11.6,0.8-17.4c1.2-16.3,2.1-32.4,3.1-48.7c0.6-9.9,1.3-19.7,1.8-29.6
				c0.5-8.2,0.8-16.4,0.9-24.5c0.1-7-0.1-14-0.5-21.1c-0.3-6.9-0.7-13.8-1.5-20.6c-0.6-5.5-1.4-11-2.4-16.5
				C-12.3,27.8-16.1,13.7-20-0.3c-1-3.6-2.1-7.2-3.1-10.8c-0.2-0.3-0.3-0.7-0.5-1.2"/>
		</g>
		<g id="SPLINE-32" transform="translate(10.273 208.58)">
			<path id="Trazado_38" class="st1" d="M-22.1,42.2c0-19.5,0-39.2-0.1-58.8"/>
		</g>
		<g id="SPLINE-33" transform="translate(8.954 0)">
			<path id="Trazado_39" class="st1" d="M-20.9,180.5c0-5.4-0.1-10.6-0.1-16c-0.1-13.2-0.3-26.3-0.6-39.4c-0.1-2-0.1-4-0.2-6
				c-0.2-9.2-0.5-18.3-0.1-27.5c0.3-6.4,0.9-12.6,1.1-18.9c0.1-3.7,0.2-7.4,0.3-11.2c0-1.8,0.2-3.6,0.5-5.4c0.5-2.8,1.5-5.5,2.5-8.3
				c1.2-3.3,2.5-6.4,4.1-9.5c1.5-2.7,3-5.4,4.7-7.9c1.6-2.5,3.4-5,5.4-7.3c1.8-1.9,3.6-3.7,5.6-5.4C4.1,16.1,6,14.5,8,13
				c1.8-1.4,3.8-2.5,5.9-3.5c1.5-0.5,2.9-1.1,4.4-1.5c3.5-1,7-1.8,10.6-2.5c4.4-0.8,8.8-1.4,13.3-1.9c4-0.5,8.1-0.8,12.2-1
				s8.2-0.1,12.3,0"/>
		</g>
		<g id="SPLINE-34" transform="translate(20.179 3.188)">
			<path id="Trazado_40" class="st1" d="M55.3,2.2c-6.5,0-13,0.4-19.5,0.8c-4.5,0.3-9.1,0.6-13.5,1.3c-3.1,0.5-6.2,1.1-9.3,1.8
				c-2.5,0.5-4.9,1.1-7.3,2C4,8.8,2.4,9.7,0.8,10.6c-2.6,1.6-5.1,3.5-7.4,5.6c-1.9,1.7-3.8,3.5-5.5,5.5c-1.6,1.8-3.2,3.6-4.5,5.5
				c-1.1,1.5-2,2.9-2.9,4.5c-1,1.5-1.8,3.2-2.5,4.8c-0.4,0.9-0.7,1.9-1,2.9"/>
		</g>
		<g id="SPLINE-35" transform="translate(57.452 5.406)">
			<path id="Trazado_41" class="st1" d="M18,2C12.3,2,6.7,1.9,1.2,2.3c-1.9,0.1-3.9,0.3-5.8,0.4c-2.9,0.2-5.8,0.4-8.7,0.6
				c-3.7,0.3-7.3,1.1-10.6,2.4c-0.5,0.2-1.1,0.5-1.5,0.7c-0.4,0.3-0.7,0.6-1,1.1"/>
		</g>
		<g id="SPLINE-36" transform="translate(50.111 6.837)">
			<path id="Trazado_42" class="st1" d="M25.3,1.9c-4.5,0-9.2,0.1-13.7,0.3C7.9,2.3,4.3,2.5,0.6,2.7C-2,2.9-4.6,3-7.2,3.2
				c-2.4,0.3-4.7,0.6-7.1,1.1c-1.2,0.2-2.4,0.5-3.5,0.8C-18.8,5.7-20,6.4-21,7.2s-1.8,1.6-2.6,2.5c-0.5,0.6-1.1,1.4-1.5,2.2
				c-0.3,0.5-0.5,1-0.7,1.5"/>
		</g>
		<g id="SPLINE-37" transform="translate(50.556 9.696)">
			<path id="Trazado_43" class="st1" d="M24.9,1.6c-3,0-6.1,0.2-9.1,0.3C11,2.1,6.1,2.3,1.3,2.6c-4.1,0.3-8.1,0.7-12.2,1
				c-1.6,0.1-3.2,0.3-4.7,0.6c-1.3,0.4-2.5,0.9-3.5,1.5c-0.7,0.4-1.4,0.8-2,1.3c-0.6,0.6-1.3,1.3-1.8,1.9c-0.5,0.6-1.5,1.3-2,1.8
				c-0.4,0.5-0.6,0.5-1,1"/>
		</g>
		<g id="SPLINE-38" transform="translate(46.171 342.876)">
			<path id="Trazado_44" class="st1" d="M29.3,39.5c-4,0-8.1,0.1-12.2,0c-4.4-0.1-8.7-0.4-13-0.7c-2.7-0.3-5.4-0.5-8.1-0.8
				c-2.6-0.2-5.4-0.6-7.9-1.5c-1.3-0.5-2.5-1.1-3.6-1.8c-1.3-0.7-2.5-1.5-3.5-2.5c-1.2-1-2.3-2.3-3.1-3.6c-0.8-1.4-1.5-2.8-2-4.4
				c-0.5-1.5-0.9-3.2-1.2-4.8c-0.2-1.6-0.2-3.3-0.2-4.9c0.3-13.2,1.2-26.1,0-39.3c0-0.5,0-1,0.1-1.5c0.1-0.3,0.2-0.5,0.3-0.7
				c0.2-0.3,0.4-0.5,0.5-0.8c0.3-0.3,0.6-0.5,1-0.7c0.5-0.2,1-0.4,1.5-0.4c0.5,0,0.9,0,1.4,0c4.2,0.1,8.4,0.3,12.5,0.8
				c5.5,0.5,11,0.8,16.4,0.9c7,0.2,13.9,0.1,20.9,0"/>
		</g>
		<g id="SPLINE-39" transform="translate(42.456 332.687)">
			<path id="Trazado_45" class="st1" d="M-25.2-28c1.7,0.1,3.5,0.3,5.2,0.4c6.5,0.5,13.1,0.7,19.6,1.1c5.1,0.3,10.3,0.6,15.4,0.7
				c6,0.2,12,0.1,18,0"/>
		</g>
		<g id="SPLINE-40" transform="translate(40.357 219.837)">
			<path id="Trazado_46" class="st1" d="M-25-13.9c0.7-0.1,1.5-0.2,2.2-0.3c1.6-0.2,3.3-0.5,4.9-0.6c5.4-0.6,10.7-1.2,16.1-1.5
				S9-16.9,14.3-17.1c6-0.3,12-0.5,18-0.5h2.7"/>
		</g>
		<g id="SPLINE-41" transform="translate(33.452 160.596)">
			<path id="Trazado_47" class="st1" d="M42,37.6c-5.5,0.1-11,0.3-16.4,0.5c-5.5,0.2-11.1,0.4-16.7,0.6c-4.5,0.2-9.1,0.5-13.5,1
				c-1.9,0.2-3.8,0.5-5.7,0.8c-0.5,0.1-1,0.2-1.5,0.2c-0.5-0.1-0.8-0.2-1.2-0.4c-0.5-0.2-0.9-0.5-1.3-0.8c-0.4-0.4-0.7-0.8-0.9-1.4
				c-0.3-0.7-0.5-1.5-0.6-2.4c-0.9-4.6-2.1-9.3-3.4-13.8c-0.7-3-1.5-6-2.3-8.9c-0.7-2.5-1.4-5.2-2.1-7.7c-0.3-0.9-0.5-1.8-0.5-2.7
				c0-0.5,0-1,0.1-1.5c0.1-0.6,0.3-1.4,0.5-2c0.2-0.6,0.5-1.2,0.9-1.7c0.4-0.5,0.8-0.9,1.3-1.3c0.6-0.4,1.3-0.6,1.9-0.9
				c1.2-0.5,2.5-0.8,3.6-1.1C-12.6-6.8-9.4-7.4-6-8c3.2-0.5,6.3-1.1,9.4-1.5c3.8-0.5,7.6-1,11.4-1.4c3.5-0.4,6.9-0.6,10.3-0.9
				c2.6-0.2,5.2-0.4,7.7-0.5c3.1,0,6.1,0,9.1,0"/>
		</g>
		<g id="SPLINE-42" transform="translate(21.121 142.883)">
			<path id="Trazado_48" class="st1" d="M-23.2,31.7c0.1-2.2,0.2-4.4,0.3-6.5c0.1-3.1,0.3-6.2,0.5-9.3c0.2-1.8,0.4-3.6,0.7-5.4
				c0.3-1.2,0.6-2.3,1.1-3.4c0.5-1,1.2-1.8,2-2.6c0.8-0.9,1.7-1.7,2.6-2.5C-14.6,1-13.2,0-11.9-1c1.3-0.9,2.6-1.7,4-2.5
				c1.7-0.9,3.5-1.6,5.4-2.2C0-6.5,2.7-7,5.2-7.6C7.4-8,9.7-8.5,11.8-8.9c3.5-0.5,7.2-0.7,10.7-0.9c3.6-0.2,7.4-0.5,11-0.6
				c4.5-0.1,8.7-0.2,13.1-0.2c2.5,0,5.1,0,7.7,0"/>
		</g>
		<g id="SPLINE-43" transform="translate(9.985 167.39)">
			<path id="Trazado_49" class="st1" d="M-11.7,110.4c0.8,0.7,1.5,1.5,2.5,2.1c1,0.7,2,1.5,3,2.1c0.7,0.5,1.5,0.9,2.3,1.4
				c0.5,0.3,1.1,0.5,1.7,0.8c0.4,0.2,0.8,0.3,1.2,0.4c0.4,0,0.7,0,1.1-0.2c0.3-0.2,0.5-0.4,0.8-0.6c0.4-0.4,0.6-0.7,0.9-1.1
				c0.2-0.5,0.3-0.9,0.4-1.4c0.1-1.1,0.3-2.2,0.4-3.2c0.6-8,0.7-16.2,1.1-24.3c0.2-4.2,0.5-8.3,0.5-12.4c0.1-4.9-0.1-9.8-0.5-14.7
				C3.4,55.3,3,51.1,2.4,47.1c-0.6-4.2-1.6-8.3-2.5-12.4c-2.2-9.4-4.3-18.9-7-27.9c-1.4-4-2.5-8.1-3.4-12.2
				c-0.1-0.8-0.4-1.6-0.9-2.3C-11.6-7.7-11.8-7.9-12-8c-2.4-1.5-4.7-2.6-7.1-3.6c-1-0.4-2.1-0.8-3.1-1.2"/>
		</g>
		<g id="SPLINE-44" transform="translate(20.184 17.685)">
			<path id="Trazado_50" class="st1" d="M-1.6,119.2c0.2-6,0.3-11.9,0.5-17.9c0.3-7.6,0.6-15.3,1.1-22.9C0.6,69.3,1.3,60.1,2.3,51
				c1-9,2.2-18,3.5-27c0.9-6.7,1.9-13.4,3.3-20c0.2-0.7,0.3-1.5,0.5-2.2c0.1-0.2,0.1-0.5,0-0.6c0-0.2-0.1-0.3-0.3-0.4
				C9,0.9,8.8,0.9,8.7,1C8.2,1.2,8,1.3,7.9,1.3C7.5,1.5-13.1,17.6-23.1,25"/>
		</g>
		<g id="SPLINE-45" transform="translate(23.042 181.464)">
			<path id="Trazado_51" class="st1" d="M-22.4-14.1c-0.3,0.7-0.5,1.5-0.6,2.4c-0.2,1.3-0.4,2.6-0.4,3.9l0,0"/>
		</g>
		<g id="LINE-2" transform="translate(22.194 200.402)">
			<line id="Línea_4" class="st1" x1="-15.3" y1="-10.5" x2="-23.3" y2="-15.9"/>
		</g>
		<g id="SPLINE-46" transform="translate(0.095 187.757)">
			<path id="Trazado_52" class="st1" d="M0.6-14.7c-1.9,1.1-3.7,2.1-5.6,3.2c-1.5,0.9-3.1,1.7-4.6,2.6c-1.5,0.8-2.8,1.8-4.2,2.8
				c-0.7,0.5-1.5,1.2-2.2,1.7c-0.8,0.6-1.6,1.3-2.4,2C-19-1.6-19.6-0.7-20,0.2c-0.3,0.7-0.5,1.5-0.8,2.2c-0.3,0.6-0.5,1.4-0.5,2.1
				c0.1,0.4,0.1,0.8,0.3,1.2c0,0.2,0.1,0.3,0.2,0.5c0.2,0.2,0.4,0.4,0.6,0.5c0.2,0.1,0.5,0.1,0.7,0.1c0.5,0,0.9-0.2,1.4-0.4
				c4.8-1.6,9.5-3,14-5c0.4-0.2,0.6-0.3,1-0.5c0.6-0.4,1.2-0.9,1.5-1.5c0.2-0.4,0.2-0.7,0.4-1.1c0.2-0.4,0.4-0.7,0.6-1.1"/>
		</g>
		<g id="SPLINE-47" transform="translate(0 191.035)">
			<path id="Trazado_53" class="st1" d="M-4.6-15c0.2,0,0.4,0.1,0.6,0.2c0.3,0.2,0.5,0.4,0.7,0.5c0.5,0.5,1.1,1.2,1.5,1.8
				c0.3,0.6,0.4,1.4,0.4,2c0.1,0.7,0.1,1.4,0.2,2c0,0.2,0.1,0.5,0.1,0.6C-1-7.5-1-7-1.1-6.6c-0.1,0.2-0.3,0.4-0.5,0.5
				C-2-5.9-2.5-5.7-3-5.5C-4.8-5-6.5-4.3-8.2-3.6C-10.5-2.7-12.7-1.9-15-1c-1.4,0.5-2.7,1.1-4.1,1.5c-0.3,0.1-0.5,0.2-0.8,0.3
				c-0.2,0-0.4,0.1-0.5,0.1s-0.3,0-0.5-0.1c-0.2-0.1-0.3-0.2-0.4-0.4"/>
		</g>
	</g>
	<g class="st2">
		<path class="st3" d="M171.7,583.3h-3.8l-0.9,2.6h-1.9l3.6-10.2h2.1l3.6,10.2h-1.9L171.7,583.3z M168.4,581.9h2.9l-1.4-4.4h0
			L168.4,581.9z"/>
		<path class="st3" d="M178.1,584.6L178.1,584.6l0,1.3h-1.7v-10.2h1.8v4h0c0.4-0.9,1.3-1.4,2.3-1.4c1.9,0,3.1,1.5,3.1,3.9
			s-1.2,3.9-3.1,3.9C179.4,586,178.6,585.5,178.1,584.6z M178.1,582.2c0,1.5,0.8,2.4,1.9,2.4c1.1,0,1.8-0.9,1.8-2.4
			c0-1.5-0.7-2.4-1.8-2.4C178.9,579.7,178.1,580.7,178.1,582.2z"/>
		<path class="st3" d="M185.6,576.3c0-0.5,0.4-1,1-1c0.5,0,1,0.4,1,1c0,0.5-0.4,1-1,1C186.1,577.3,185.6,576.8,185.6,576.3z
			 M185.7,578.4h1.8v7.5h-1.8V578.4z"/>
		<path class="st3" d="M189.9,578.4h1.7v1.3h0c0.3-0.9,0.9-1.4,1.8-1.4c0.2,0,0.4,0,0.6,0.1v1.6c-0.1-0.1-0.4-0.1-0.7-0.1
			c-1,0-1.6,0.6-1.6,1.7v4.4h-1.8V578.4z"/>
		<path class="st3" d="M195.7,576.3c0-0.5,0.4-1,1-1c0.5,0,1,0.4,1,1c0,0.5-0.4,1-1,1C196.2,577.3,195.7,576.8,195.7,576.3z
			 M195.8,578.4h1.8v7.5h-1.8V578.4z"/>
		<path class="st3" d="M200,578.4h1.7v1.3h0c0.3-0.9,0.9-1.4,1.8-1.4c0.2,0,0.4,0,0.6,0.1v1.6c-0.1-0.1-0.4-0.1-0.7-0.1
			c-1,0-1.6,0.6-1.6,1.7v4.4H200V578.4z"/>
	</g>
	<g class="st2">
		<path class="st3" d="M165.2,599.4c0,2.4-1.2,3.9-3.1,3.9c-1.1,0-1.9-0.5-2.4-1.4h0v3.7h-1.8v-10h1.7v1.3h0
			c0.4-0.9,1.3-1.4,2.4-1.4C164,595.5,165.2,597,165.2,599.4z M163.4,599.4c0-1.5-0.7-2.4-1.9-2.4c-1.1,0-1.8,1-1.8,2.4
			c0,1.5,0.7,2.4,1.8,2.4C162.7,601.9,163.4,600.9,163.4,599.4z"/>
		<path class="st3" d="M173.9,603.2h-1.7v-1.3h0c-0.4,0.9-1.2,1.4-2.3,1.4c-1.6,0-2.7-1.1-2.7-2.8v-4.9h1.8v4.5
			c0,1.1,0.5,1.7,1.5,1.7c1,0,1.7-0.7,1.7-1.8v-4.3h1.8V603.2z"/>
		<path class="st3" d="M182.9,600.9c-0.2,1.4-1.5,2.4-3.3,2.4c-2.3,0-3.6-1.5-3.6-3.9c0-2.4,1.4-3.9,3.5-3.9c2.1,0,3.5,1.5,3.5,3.8
			v0.6h-5.3v0.1c0,1.2,0.7,2,1.9,2c0.8,0,1.4-0.4,1.6-1H182.9z M177.7,598.7h3.5c0-1.1-0.7-1.8-1.7-1.8
			C178.5,596.9,177.8,597.6,177.7,598.7z"/>
		<path class="st3" d="M185,595.7h1.7v1.3h0c0.3-0.9,0.9-1.4,1.8-1.4c0.2,0,0.4,0,0.6,0.1v1.6c-0.1-0.1-0.4-0.1-0.7-0.1
			c-1,0-1.6,0.6-1.6,1.7v4.4H185V595.7z"/>
		<path class="st3" d="M193.4,593.9v1.8h1.4v1.4h-1.4v3.9c0,0.6,0.3,0.9,0.9,0.9c0.2,0,0.4,0,0.5,0v1.3c-0.2,0-0.5,0.1-0.9,0.1
			c-1.6,0-2.3-0.6-2.3-2V597h-1.1v-1.4h1.1v-1.8H193.4z"/>
		<path class="st3" d="M196.5,601c0-1.3,1-2.1,2.9-2.2l2-0.1v-0.5c0-0.8-0.5-1.2-1.4-1.2c-0.8,0-1.4,0.4-1.5,1h-1.6
			c0.1-1.4,1.3-2.4,3.2-2.4c1.9,0,3.1,1,3.1,2.5v5.2h-1.7V602h0c-0.4,0.8-1.4,1.3-2.3,1.3C197.6,603.3,196.5,602.4,196.5,601z
			 M201.4,600.4v-0.6l-1.7,0.1c-0.9,0.1-1.3,0.4-1.3,1c0,0.6,0.5,1,1.3,1C200.6,602,201.4,601.3,201.4,600.4z"/>
		<path class="st3" d="M208.3,595.5c1.8,0,3,1,3,2.4h-1.6c-0.1-0.7-0.6-1.1-1.4-1.1c-0.8,0-1.3,0.4-1.3,0.9c0,0.4,0.3,0.7,1.1,0.9
			l1.2,0.3c1.6,0.3,2.2,1,2.2,2c0,1.4-1.3,2.4-3.2,2.4c-2,0-3.1-0.9-3.3-2.4h1.7c0.1,0.7,0.6,1.1,1.5,1.1c0.9,0,1.4-0.4,1.4-0.9
			c0-0.5-0.3-0.7-1.1-0.9l-1.2-0.3c-1.4-0.3-2.2-1-2.2-2.1C205.3,596.4,206.5,595.5,208.3,595.5z"/>
	</g>
	<g class="st2">
		<path class="st4" d="M321.7,397.9c1.3,0,2.2,0.9,2.2,2.2c0,1.3-0.9,2.2-2.3,2.2h-1.2v2h-1.4v-6.4H321.7z M320.4,401.2h0.9
			c0.7,0,1.2-0.4,1.2-1.2c0-0.7-0.5-1.1-1.2-1.1h-0.9V401.2z"/>
		<path class="st4" d="M329.6,404.2h-1.3v-0.8l0,0c-0.3,0.6-0.7,0.9-1.5,0.9c-1,0-1.7-0.6-1.7-1.8v-3.1h1.3v2.8c0,0.6,0.3,1,0.9,1
			c0.5,0,0.9-0.5,0.9-1v-2.7h1.3L329.6,404.2L329.6,404.2z"/>
		<path class="st4" d="M335.4,402.8c-0.2,0.9-1,1.5-2.2,1.5c-1.5,0-2.4-0.9-2.4-2.5s0.9-2.5,2.3-2.5c1.4,0,2.3,0.9,2.3,2.4v0.4h-3.3
			v0.1c0,0.6,0.5,1.2,1.1,1.2c0.5,0,0.8-0.3,1-0.6L335.4,402.8L335.4,402.8z M332.2,401.3h2c0-0.6-0.5-1-1-1
			C332.6,400.3,332.2,400.8,332.2,401.3z"/>
		<path class="st4" d="M336.8,399.5h1.3v0.8l0,0c0.2-0.6,0.5-0.9,1.1-0.9c0.2,0,0.3,0,0.4,0.1v1.2c-0.1,0-0.3-0.1-0.5-0.1
			c-0.6,0-1,0.4-1,1.1v2.6h-1.3V399.5z"/>
		<path class="st4" d="M342.5,398.4v1.1h0.9v1h-0.9v2.3c0,0.4,0.2,0.5,0.5,0.5c0.1,0,0.3,0,0.3,0v0.9c-0.1,0-0.4,0.1-0.6,0.1
			c-1.1,0-1.5-0.4-1.5-1.3v-2.5h-0.6v-1h0.6v-1.1L342.5,398.4L342.5,398.4z"/>
		<path class="st4" d="M344.5,402.9c0-0.9,0.6-1.4,1.8-1.5l1.2-0.1v-0.3c0-0.5-0.3-0.7-0.8-0.7c-0.5,0-0.8,0.3-0.8,0.5h-1.2
			c0.1-0.9,0.8-1.5,2.1-1.5c1.2,0,2,0.6,2,1.5v3.3h-1.3v-0.7l0,0c-0.3,0.5-0.8,0.8-1.5,0.8C345.1,404.3,344.5,403.7,344.5,402.9z
			 M347.5,402.5v-0.4l-1,0.1c-0.5,0-0.7,0.3-0.7,0.5c0,0.4,0.3,0.5,0.7,0.5C347.1,403.4,347.5,403,347.5,402.5z"/>
	</g>
	<g class="st2">
		<path class="st4" d="M319.6,412.2c-0.1-0.5-0.4-0.8-0.9-0.8c-0.6,0-1,0.5-1,1.5s0.4,1.5,1,1.5c0.5,0,0.8-0.3,0.9-0.8h1.2
			c-0.1,1.1-0.9,1.8-2.2,1.8c-1.5,0-2.4-0.9-2.4-2.5s0.9-2.5,2.4-2.5c1.3,0,2.1,0.8,2.2,1.9L319.6,412.2L319.6,412.2z"/>
		<path class="st4" d="M326.4,413.7c-0.2,0.9-1,1.5-2.2,1.5c-1.5,0-2.4-0.9-2.4-2.5s0.9-2.5,2.3-2.5c1.4,0,2.3,0.9,2.3,2.4v0.4h-3.3
			v0.1c0,0.6,0.5,1.2,1.1,1.2c0.5,0,0.8-0.3,1-0.6L326.4,413.7L326.4,413.7z M323.2,412.2h2c0-0.6-0.5-1-1-1
			C323.6,411.2,323.3,411.7,323.2,412.2z"/>
		<path class="st4" d="M327.7,410.4h1.3v0.8l0,0c0.2-0.6,0.5-0.9,1.1-0.9c0.2,0,0.3,0,0.4,0.1v1.2c-0.1,0-0.3-0.1-0.5-0.1
			c-0.6,0-1,0.4-1,1.1v2.6h-1.3V410.4z"/>
		<path class="st4" d="M331.7,410.4h1.3v0.8l0,0c0.2-0.6,0.5-0.9,1.1-0.9c0.2,0,0.3,0,0.4,0.1v1.2c-0.1,0-0.3-0.1-0.5-0.1
			c-0.6,0-1,0.4-1,1.1v2.6h-1.3V410.4z"/>
		<path class="st4" d="M335.3,413.8c0-0.9,0.6-1.4,1.8-1.5l1.2-0.1V412c0-0.5-0.3-0.7-0.8-0.7c-0.5,0-0.8,0.3-0.8,0.5h-1.2
			c0.1-0.9,0.8-1.5,2.1-1.5c1.2,0,2,0.6,2,1.5v3.3h-1.2v-0.7l0,0c-0.3,0.5-0.8,0.8-1.5,0.8C336,415.2,335.3,414.6,335.3,413.8z
			 M338.3,413.4v-0.4l-1,0.1c-0.5,0-0.7,0.3-0.7,0.5c0,0.4,0.3,0.5,0.7,0.5C337.9,414.3,338.3,413.9,338.3,413.4z"/>
		<path class="st4" d="M341,412.8c0-1.5,0.7-2.5,1.9-2.5c0.7,0,1.2,0.4,1.5,0.9l0,0v-2.5h1.3v6.4h-1.3v-0.8l0,0
			c-0.3,0.5-0.8,0.9-1.5,0.9C341.7,415.2,341,414.2,341,412.8z M342.2,412.8c0,0.9,0.4,1.5,1.1,1.5c0.6,0,1.1-0.5,1.1-1.5
			c0-0.9-0.5-1.5-1.1-1.5S342.2,411.9,342.2,412.8z"/>
		<path class="st4" d="M347,413.8c0-0.9,0.6-1.4,1.8-1.5l1.2-0.1V412c0-0.5-0.3-0.7-0.8-0.7c-0.5,0-0.8,0.3-0.8,0.5h-1.2
			c0.1-0.9,0.8-1.5,2.1-1.5c1.2,0,2,0.6,2,1.5v3.3H350v-0.7l0,0c-0.3,0.5-0.8,0.8-1.5,0.8C347.7,415.2,347,414.6,347,413.8z
			 M350.1,413.4v-0.4l-1,0.1c-0.5,0-0.7,0.3-0.7,0.5c0,0.4,0.3,0.5,0.7,0.5C349.6,414.3,350.1,413.9,350.1,413.4z"/>
	</g>
	<g id="Grupo_11" transform="translate(354.271 351.947)">
		<g transform="matrix(1, 0, 0, 1, -345.27, -113.4)">
			<g id="Elipse_1-5" transform="translate(345 113.46)">
				<circle class="st4" cx="-20.1" cy="15.9" r="23.6"/>
				<circle class="st0" cx="-20.1" cy="15.9" r="23.2"/>
			</g>
		</g>
		<g transform="matrix(1, 0, 0, 1, -345.27, -113.4)">
			<path id="lock-2-5" class="st5" d="M324.8,114.5c-3.7,0-6.7,3-6.7,6.7l0,0v4.5c-2.5,0-4.5,2-4.5,4.5v9c0,2.5,2,4.5,4.5,4.5h13.5
				c2.5,0,4.5-2,4.5-4.5v-9c0-2.5-2-4.5-4.5-4.5v-4.5C331.5,117.5,328.5,114.5,324.8,114.5L324.8,114.5z M324.8,116.7
				c2.5-0.1,4.5,1.9,4.5,4.3c0,0.1,0,0.1,0,0.2v4.5h-9v-4.5c-0.1-2.5,1.9-4.5,4.3-4.5C324.7,116.7,324.7,116.7,324.8,116.7z
				 M324.8,131.3c1.3,0,2.3,1,2.3,2.3c0,0.8-0.5,1.5-1.1,1.9v2.6c0,0.6-0.5,1.1-1.1,1.1c-0.6,0-1.1-0.5-1.1-1.1v-2.6
				c-0.7-0.4-1.1-1.1-1.1-1.9C322.5,132.4,323.5,131.4,324.8,131.3z"/>
		</g>
	</g>
	<g class="st2">
		<path class="st4" d="M321.7,527.8c1.3,0,2.2,0.9,2.2,2.2c0,1.3-0.9,2.2-2.3,2.2h-1.2v2h-1.4v-6.4L321.7,527.8L321.7,527.8z
			 M320.4,531.1h0.9c0.7,0,1.2-0.4,1.2-1.2c0-0.7-0.5-1.1-1.2-1.1h-0.9V531.1z"/>
		<path class="st4" d="M329.6,534.1h-1.3v-0.8l0,0c-0.3,0.6-0.7,0.9-1.5,0.9c-1,0-1.7-0.6-1.7-1.8v-3.1h1.3v2.8c0,0.6,0.3,1,0.9,1
			c0.5,0,0.9-0.5,0.9-1v-2.7h1.3L329.6,534.1L329.6,534.1z"/>
		<path class="st4" d="M335.4,532.7c-0.2,0.9-1,1.5-2.2,1.5c-1.5,0-2.4-0.9-2.4-2.5s0.9-2.5,2.3-2.5c1.4,0,2.3,0.9,2.3,2.4v0.4h-3.3
			v0.1c0,0.6,0.5,1.2,1.1,1.2c0.5,0,0.8-0.3,1-0.6L335.4,532.7L335.4,532.7z M332.2,531.2h2c0-0.6-0.5-1-1-1
			C332.6,530.2,332.2,530.7,332.2,531.2z"/>
		<path class="st4" d="M336.8,529.4h1.3v0.8l0,0c0.2-0.6,0.5-0.9,1.1-0.9c0.2,0,0.3,0,0.4,0.1v1.2c-0.1,0-0.3-0.1-0.5-0.1
			c-0.6,0-1,0.4-1,1.1v2.6h-1.3V529.4z"/>
		<path class="st4" d="M342.5,528.3v1.1h0.9v1h-0.9v2.3c0,0.4,0.2,0.5,0.5,0.5c0.1,0,0.3,0,0.3,0v0.9c-0.1,0-0.4,0.1-0.6,0.1
			c-1.1,0-1.5-0.4-1.5-1.3v-2.5h-0.6v-1h0.6v-1.1L342.5,528.3L342.5,528.3z"/>
		<path class="st4" d="M344.5,532.8c0-0.9,0.6-1.4,1.8-1.5l1.2-0.1V531c0-0.5-0.3-0.7-0.8-0.7c-0.5,0-0.8,0.3-0.8,0.5h-1.2
			c0.1-0.9,0.8-1.5,2.1-1.5c1.2,0,2,0.6,2,1.5v3.3h-1.3v-0.7l0,0c-0.3,0.5-0.8,0.8-1.5,0.8C345.1,534.2,344.5,533.6,344.5,532.8z
			 M347.5,532.4v-0.4l-1,0.1c-0.5,0-0.7,0.3-0.7,0.5c0,0.4,0.3,0.5,0.7,0.5C347.1,533.3,347.5,532.9,347.5,532.4z"/>
	</g>
	<g class="st2">
		<path class="st4" d="M319.6,542c-0.1-0.5-0.4-0.8-0.9-0.8c-0.6,0-1,0.5-1,1.5s0.4,1.5,1,1.5c0.5,0,0.8-0.3,0.9-0.8h1.2
			c-0.1,1.1-0.9,1.8-2.2,1.8c-1.5,0-2.4-0.9-2.4-2.5s0.9-2.5,2.4-2.5c1.3,0,2.1,0.8,2.2,1.9L319.6,542L319.6,542z"/>
		<path class="st4" d="M326.4,543.6c-0.2,0.9-1,1.5-2.2,1.5c-1.5,0-2.4-0.9-2.4-2.5s0.9-2.5,2.3-2.5c1.4,0,2.3,0.9,2.3,2.4v0.4h-3.3
			v0.1c0,0.6,0.5,1.2,1.1,1.2c0.5,0,0.8-0.3,1-0.6L326.4,543.6L326.4,543.6z M323.2,542.1h2c0-0.6-0.5-1-1-1
			C323.6,541.1,323.3,541.6,323.2,542.1z"/>
		<path class="st4" d="M327.7,540.3h1.3v0.8l0,0c0.2-0.6,0.5-0.9,1.1-0.9c0.2,0,0.3,0,0.4,0.1v1.2c-0.1,0-0.3-0.1-0.5-0.1
			c-0.6,0-1,0.4-1,1.1v2.6h-1.3V540.3z"/>
		<path class="st4" d="M331.7,540.3h1.3v0.8l0,0c0.2-0.6,0.5-0.9,1.1-0.9c0.2,0,0.3,0,0.4,0.1v1.2c-0.1,0-0.3-0.1-0.5-0.1
			c-0.6,0-1,0.4-1,1.1v2.6h-1.3V540.3z"/>
		<path class="st4" d="M335.3,543.7c0-0.9,0.6-1.4,1.8-1.5l1.2-0.1v-0.3c0-0.5-0.3-0.7-0.8-0.7c-0.5,0-0.8,0.3-0.8,0.5h-1.2
			c0.1-0.9,0.8-1.5,2.1-1.5c1.2,0,2,0.6,2,1.5v3.3h-1.2v-0.7l0,0c-0.3,0.5-0.8,0.8-1.5,0.8C336,545.1,335.3,544.5,335.3,543.7z
			 M338.3,543.3V543l-1,0.1c-0.5,0-0.7,0.3-0.7,0.5c0,0.4,0.3,0.5,0.7,0.5C337.9,544.2,338.3,543.8,338.3,543.3z"/>
		<path class="st4" d="M341,542.7c0-1.5,0.7-2.5,1.9-2.5c0.7,0,1.2,0.4,1.5,0.9l0,0v-2.5h1.3v6.4h-1.3v-0.8l0,0
			c-0.3,0.5-0.8,0.9-1.5,0.9C341.7,545.1,341,544.1,341,542.7z M342.2,542.7c0,0.9,0.4,1.5,1.1,1.5c0.6,0,1.1-0.5,1.1-1.5
			s-0.5-1.5-1.1-1.5C342.7,541.2,342.2,541.8,342.2,542.7z"/>
		<path class="st4" d="M347,543.7c0-0.9,0.6-1.4,1.8-1.5l1.2-0.1v-0.3c0-0.5-0.3-0.7-0.8-0.7c-0.5,0-0.8,0.3-0.8,0.5h-1.2
			c0.1-0.9,0.8-1.5,2.1-1.5c1.2,0,2,0.6,2,1.5v3.3H350v-0.7l0,0c-0.3,0.5-0.8,0.8-1.5,0.8C347.7,545.1,347,544.5,347,543.7z
			 M350.1,543.3V543l-1,0.1c-0.5,0-0.7,0.3-0.7,0.5c0,0.4,0.3,0.5,0.7,0.5C349.6,544.2,350.1,543.8,350.1,543.3z"/>
	</g>
	<g id="Grupo_14" transform="translate(354.271 580.749)">
		<g transform="matrix(1, 0, 0, 1, -345.27, -342.21)">
			<g id="Elipse_1-6" transform="translate(345 342.46)">
				<ellipse class="st4" cx="-20.1" cy="-5.5" rx="23.6" ry="23.2"/>
				<ellipse class="st0" cx="-20.1" cy="-5.5" rx="23.2" ry="22.7"/>
			</g>
		</g>
		<g transform="matrix(1, 0, 0, 1, -345.27, -342.21)">
			<path id="lock-2-6" class="st5" d="M325.2,322.5c-3.7,0-6.7,3-6.7,6.7l0,0v4.5c-2.5,0-4.5,2-4.5,4.5v9c0,2.5,2,4.5,4.5,4.5H332
				c2.5,0,4.5-2,4.5-4.5v-9c0-2.5-2-4.5-4.5-4.5v-4.5C331.9,325.5,328.9,322.5,325.2,322.5L325.2,322.5z M325.2,324.8
				c2.5-0.1,4.5,1.9,4.5,4.3c0,0.1,0,0.1,0,0.2v4.5h-9v-4.5c-0.1-2.5,1.9-4.5,4.3-4.5C325,324.8,325.1,324.8,325.2,324.8z
				 M325.2,339.4c1.3,0,2.3,1,2.3,2.3c0,0.8-0.5,1.5-1.1,1.9v2.6c0,0.6-0.5,1.1-1.1,1.1c-0.6,0-1.1-0.5-1.1-1.1v-2.6
				c-0.7-0.4-1.1-1.1-1.1-1.9C322.9,340.4,323.9,339.4,325.2,339.4z"/>
		</g>
	</g>
	<g id="Grupo_958">
		<g class="st2">
			<path class="st4" d="M21.9,397.9c1.3,0,2.2,0.9,2.2,2.2c0,1.3-0.9,2.2-2.3,2.2h-1.2v2h-1.4v-6.4H21.9z M20.7,401.2h0.9
				c0.7,0,1.2-0.4,1.2-1.2c0-0.7-0.5-1.1-1.2-1.1h-0.9V401.2z"/>
			<path class="st4" d="M29.8,404.2h-1.3v-0.8l0,0c-0.3,0.6-0.7,0.9-1.5,0.9c-1,0-1.7-0.6-1.7-1.8v-3.1h1.3v2.8c0,0.6,0.3,1,0.9,1
				c0.5,0,0.9-0.5,0.9-1v-2.7h1.3L29.8,404.2L29.8,404.2z"/>
			<path class="st4" d="M35.7,402.8c-0.2,0.9-1,1.5-2.2,1.5c-1.5,0-2.4-0.9-2.4-2.5s0.9-2.5,2.3-2.5c1.4,0,2.3,0.9,2.3,2.4v0.4h-3.3
				v0.1c0,0.6,0.5,1.2,1.1,1.2c0.5,0,0.8-0.3,1-0.6L35.7,402.8L35.7,402.8z M32.4,401.3h2c0-0.6-0.5-1-1-1
				C32.8,400.3,32.5,400.8,32.4,401.3z"/>
			<path class="st4" d="M37,399.5h1.3v0.8l0,0c0.2-0.6,0.5-0.9,1.1-0.9c0.2,0,0.3,0,0.4,0.1v1.2c-0.1,0-0.3-0.1-0.5-0.1
				c-0.6,0-1,0.4-1,1.1v2.6H37C37,404.3,37,399.5,37,399.5z"/>
			<path class="st4" d="M42.7,398.4v1.1h0.9v1h-0.9v2.3c0,0.4,0.2,0.5,0.5,0.5c0.1,0,0.3,0,0.3,0v0.9c-0.1,0-0.4,0.1-0.6,0.1
				c-1.1,0-1.5-0.4-1.5-1.3v-2.5h-0.6v-1h0.6v-1.1L42.7,398.4L42.7,398.4z"/>
			<path class="st4" d="M44.7,402.9c0-0.9,0.6-1.4,1.8-1.5l1.2-0.1v-0.3c0-0.5-0.3-0.7-0.8-0.7c-0.5,0-0.8,0.3-0.8,0.5h-1.2
				c0.1-0.9,0.8-1.5,2.1-1.5c1.2,0,2,0.6,2,1.5v3.3h-1.3v-0.7l0,0c-0.3,0.5-0.8,0.8-1.5,0.8C45.4,404.3,44.7,403.7,44.7,402.9z
				 M47.7,402.5v-0.4l-1,0.1c-0.5,0-0.7,0.3-0.7,0.5c0,0.4,0.3,0.5,0.7,0.5C47.3,403.4,47.7,403,47.7,402.5z"/>
		</g>
		<g class="st2">
			<path class="st4" d="M19.9,412.2c-0.1-0.5-0.4-0.8-0.9-0.8c-0.6,0-1,0.5-1,1.5s0.4,1.5,1,1.5c0.5,0,0.8-0.3,0.9-0.8H21
				c-0.1,1.1-0.9,1.8-2.2,1.8c-1.5,0-2.4-0.9-2.4-2.5s0.9-2.5,2.4-2.5c1.3,0,2.1,0.8,2.2,1.9L19.9,412.2L19.9,412.2z"/>
			<path class="st4" d="M26.7,413.7c-0.2,0.9-1,1.5-2.2,1.5c-1.5,0-2.4-0.9-2.4-2.5s0.9-2.5,2.3-2.5s2.3,0.9,2.3,2.4v0.4h-3.3v0.1
				c0,0.6,0.5,1.2,1.1,1.2c0.5,0,0.8-0.3,1-0.6L26.7,413.7L26.7,413.7z M23.4,412.2h2c0-0.6-0.5-1-1-1
				C23.9,411.2,23.5,411.7,23.4,412.2z"/>
			<path class="st4" d="M27.9,410.4h1.3v0.8l0,0c0.2-0.6,0.5-0.9,1.1-0.9c0.2,0,0.3,0,0.4,0.1v1.2c-0.1,0-0.3-0.1-0.5-0.1
				c-0.6,0-1,0.4-1,1.1v2.6h-1.3C27.9,415.2,27.9,410.4,27.9,410.4z"/>
			<path class="st4" d="M31.9,410.4h1.3v0.8l0,0c0.2-0.6,0.5-0.9,1.1-0.9c0.2,0,0.3,0,0.4,0.1v1.2c-0.1,0-0.3-0.1-0.5-0.1
				c-0.6,0-1,0.4-1,1.1v2.6h-1.3C31.9,415.2,31.9,410.4,31.9,410.4z"/>
			<path class="st4" d="M35.6,413.8c0-0.9,0.6-1.4,1.8-1.5l1.2-0.1V412c0-0.5-0.3-0.7-0.8-0.7c-0.5,0-0.8,0.3-0.8,0.5h-1.2
				c0.1-0.9,0.8-1.5,2.1-1.5c1.2,0,2,0.6,2,1.5v3.3h-1.2v-0.7l0,0c-0.3,0.5-0.8,0.8-1.5,0.8C36.2,415.2,35.6,414.6,35.6,413.8z
				 M38.6,413.4v-0.4l-1,0.1c-0.5,0-0.7,0.3-0.7,0.5c0,0.4,0.3,0.5,0.7,0.5C38.1,414.3,38.6,413.9,38.6,413.4z"/>
			<path class="st4" d="M41.2,412.8c0-1.5,0.7-2.5,1.9-2.5c0.7,0,1.2,0.4,1.5,0.9l0,0v-2.5h1.4v6.4h-1.3v-0.8l0,0
				c-0.3,0.5-0.8,0.9-1.5,0.9C41.9,415.2,41.2,414.2,41.2,412.8z M42.5,412.8c0,0.9,0.4,1.5,1.1,1.5c0.6,0,1.1-0.5,1.1-1.5
				c0-0.9-0.5-1.5-1.1-1.5C42.9,411.3,42.5,411.9,42.5,412.8z"/>
			<path class="st4" d="M47.2,413.8c0-0.9,0.6-1.4,1.8-1.5l1.2-0.1V412c0-0.5-0.3-0.7-0.8-0.7c-0.5,0-0.8,0.3-0.8,0.5h-1.2
				c0.1-0.9,0.8-1.5,2.1-1.5c1.2,0,2,0.6,2,1.5v3.3h-1.3v-0.7l0,0c-0.3,0.5-0.8,0.8-1.5,0.8C47.9,415.2,47.2,414.6,47.2,413.8z
				 M50.3,413.4v-0.4l-1,0.1c-0.5,0-0.7,0.3-0.7,0.5c0,0.4,0.3,0.5,0.7,0.5C49.8,414.3,50.3,413.9,50.3,413.4z"/>
		</g>
	</g>
	<g id="Grupo_15" transform="translate(24 351.947)">
		<g transform="matrix(1, 0, 0, 1, -15, -113.4)">
			<g id="Elipse_1-7" transform="translate(15 113.46)">
				<circle class="st4" cx="10.1" cy="15.9" r="23.6"/>
				<circle class="st0" cx="10.1" cy="15.9" r="23.2"/>
			</g>
		</g>
		<g transform="matrix(1, 0, 0, 1, -15, -113.4)">
			<path id="lock-2-7" class="st5" d="M24.4,114.5c-3.7,0-6.7,3-6.7,6.7l0,0v4.5c-2.5,0-4.5,2-4.5,4.5v9c0,2.5,2,4.5,4.5,4.5h13.5
				c2.5,0,4.5-2,4.5-4.5v-9c0-2.5-2-4.5-4.5-4.5v-4.5C31.2,117.5,28.2,114.5,24.4,114.5L24.4,114.5z M24.4,116.7
				c2.5-0.1,4.5,1.9,4.5,4.3c0,0.1,0,0.1,0,0.2v4.5h-9v-4.5c-0.1-2.5,1.9-4.5,4.3-4.5C24.3,116.7,24.4,116.7,24.4,116.7z
				 M24.4,131.3c1.3,0,2.3,1,2.3,2.3c0,0.8-0.5,1.5-1.1,1.9v2.6c0,0.6-0.5,1.1-1.1,1.1c-0.6,0-1.1-0.5-1.1-1.1v-2.6
				c-0.7-0.4-1.1-1.1-1.1-1.9C22.1,132.4,23.2,131.4,24.4,131.3z"/>
		</g>
	</g>
	<g class="st2">
		<path class="st4" d="M21.9,527.8c1.3,0,2.2,0.9,2.2,2.2c0,1.3-0.9,2.2-2.3,2.2h-1.2v2h-1.4v-6.4L21.9,527.8L21.9,527.8z
			 M20.7,531.1h0.9c0.7,0,1.2-0.4,1.2-1.2c0-0.7-0.5-1.1-1.2-1.1h-0.9V531.1z"/>
		<path class="st4" d="M29.8,534.1h-1.3v-0.8l0,0c-0.3,0.6-0.7,0.9-1.5,0.9c-1,0-1.7-0.6-1.7-1.8v-3.1h1.3v2.8c0,0.6,0.3,1,0.9,1
			c0.5,0,0.9-0.5,0.9-1v-2.7h1.3L29.8,534.1L29.8,534.1z"/>
		<path class="st4" d="M35.7,532.7c-0.2,0.9-1,1.5-2.2,1.5c-1.5,0-2.4-0.9-2.4-2.5s0.9-2.5,2.3-2.5c1.4,0,2.3,0.9,2.3,2.4v0.4h-3.3
			v0.1c0,0.6,0.5,1.2,1.1,1.2c0.5,0,0.8-0.3,1-0.6L35.7,532.7L35.7,532.7z M32.4,531.2h2c0-0.6-0.5-1-1-1
			C32.8,530.2,32.5,530.7,32.4,531.2z"/>
		<path class="st4" d="M37,529.4h1.3v0.8l0,0c0.2-0.6,0.5-0.9,1.1-0.9c0.2,0,0.3,0,0.4,0.1v1.2c-0.1,0-0.3-0.1-0.5-0.1
			c-0.6,0-1,0.4-1,1.1v2.6H37C37,534.2,37,529.4,37,529.4z"/>
		<path class="st4" d="M42.7,528.3v1.1h0.9v1h-0.9v2.3c0,0.4,0.2,0.5,0.5,0.5c0.1,0,0.3,0,0.3,0v0.9c-0.1,0-0.4,0.1-0.6,0.1
			c-1.1,0-1.5-0.4-1.5-1.3v-2.5h-0.6v-1h0.6v-1.1L42.7,528.3L42.7,528.3z"/>
		<path class="st4" d="M44.7,532.8c0-0.9,0.6-1.4,1.8-1.5l1.2-0.1V531c0-0.5-0.3-0.7-0.8-0.7c-0.5,0-0.8,0.3-0.8,0.5h-1.2
			c0.1-0.9,0.8-1.5,2.1-1.5c1.2,0,2,0.6,2,1.5v3.3h-1.3v-0.7l0,0c-0.3,0.5-0.8,0.8-1.5,0.8C45.4,534.2,44.7,533.6,44.7,532.8z
			 M47.7,532.4v-0.4l-1,0.1c-0.5,0-0.7,0.3-0.7,0.5c0,0.4,0.3,0.5,0.7,0.5C47.3,533.3,47.7,532.9,47.7,532.4z"/>
	</g>
	<g class="st2">
		<path class="st4" d="M19.9,542c-0.1-0.5-0.4-0.8-0.9-0.8c-0.6,0-1,0.5-1,1.5s0.4,1.5,1,1.5c0.5,0,0.8-0.3,0.9-0.8H21
			c-0.1,1.1-0.9,1.8-2.2,1.8c-1.5,0-2.4-0.9-2.4-2.5s0.9-2.5,2.4-2.5c1.3,0,2.1,0.8,2.2,1.9L19.9,542L19.9,542z"/>
		<path class="st4" d="M26.7,543.6c-0.2,0.9-1,1.5-2.2,1.5c-1.5,0-2.4-0.9-2.4-2.5s0.9-2.5,2.3-2.5s2.3,0.9,2.3,2.4v0.4h-3.3v0.1
			c0,0.6,0.5,1.2,1.1,1.2c0.5,0,0.8-0.3,1-0.6L26.7,543.6L26.7,543.6z M23.4,542.1h2c0-0.6-0.5-1-1-1
			C23.9,541.1,23.5,541.6,23.4,542.1z"/>
		<path class="st4" d="M27.9,540.3h1.3v0.8l0,0c0.2-0.6,0.5-0.9,1.1-0.9c0.2,0,0.3,0,0.4,0.1v1.2c-0.1,0-0.3-0.1-0.5-0.1
			c-0.6,0-1,0.4-1,1.1v2.6h-1.3C27.9,545.1,27.9,540.3,27.9,540.3z"/>
		<path class="st4" d="M31.9,540.3h1.3v0.8l0,0c0.2-0.6,0.5-0.9,1.1-0.9c0.2,0,0.3,0,0.4,0.1v1.2c-0.1,0-0.3-0.1-0.5-0.1
			c-0.6,0-1,0.4-1,1.1v2.6h-1.3C31.9,545.1,31.9,540.3,31.9,540.3z"/>
		<path class="st4" d="M35.6,543.7c0-0.9,0.6-1.4,1.8-1.5l1.2-0.1v-0.3c0-0.5-0.3-0.7-0.8-0.7c-0.5,0-0.8,0.3-0.8,0.5h-1.2
			c0.1-0.9,0.8-1.5,2.1-1.5c1.2,0,2,0.6,2,1.5v3.3h-1.2v-0.7l0,0c-0.3,0.5-0.8,0.8-1.5,0.8C36.2,545.1,35.6,544.5,35.6,543.7z
			 M38.6,543.3V543l-1,0.1c-0.5,0-0.7,0.3-0.7,0.5c0,0.4,0.3,0.5,0.7,0.5C38.1,544.2,38.6,543.8,38.6,543.3z"/>
		<path class="st4" d="M41.2,542.7c0-1.5,0.7-2.5,1.9-2.5c0.7,0,1.2,0.4,1.5,0.9l0,0v-2.5h1.4v6.4h-1.3v-0.8l0,0
			c-0.3,0.5-0.8,0.9-1.5,0.9C41.9,545.1,41.2,544.1,41.2,542.7z M42.5,542.7c0,0.9,0.4,1.5,1.1,1.5c0.6,0,1.1-0.5,1.1-1.5
			s-0.5-1.5-1.1-1.5C42.9,541.2,42.5,541.8,42.5,542.7z"/>
		<path class="st4" d="M47.2,543.7c0-0.9,0.6-1.4,1.8-1.5l1.2-0.1v-0.3c0-0.5-0.3-0.7-0.8-0.7c-0.5,0-0.8,0.3-0.8,0.5h-1.2
			c0.1-0.9,0.8-1.5,2.1-1.5c1.2,0,2,0.6,2,1.5v3.3h-1.3v-0.7l0,0c-0.3,0.5-0.8,0.8-1.5,0.8C47.9,545.1,47.2,544.5,47.2,543.7z
			 M50.3,543.3V543l-1,0.1c-0.5,0-0.7,0.3-0.7,0.5c0,0.4,0.3,0.5,0.7,0.5C49.8,544.2,50.3,543.8,50.3,543.3z"/>
	</g>
	<g id="Grupo_16" transform="translate(24 580.749)">
		<g transform="matrix(1, 0, 0, 1, -15, -342.21)">
			<g id="Elipse_1-8" transform="translate(15 342.46)">
				<ellipse class="st4" cx="10.1" cy="-5.5" rx="23.6" ry="23.2"/>
				<ellipse class="st0" cx="10.1" cy="-5.5" rx="23.2" ry="22.7"/>
			</g>
		</g>
		<g transform="matrix(1, 0, 0, 1, -15, -342.21)">
			<path id="lock-2-8" class="st5" d="M24.8,322.5c-3.7,0-6.7,3-6.7,6.7l0,0v4.5c-2.5,0-4.5,2-4.5,4.5v9c0,2.5,2,4.5,4.5,4.5h13.4
				c2.5,0,4.5-2,4.5-4.5v-9c0-2.5-2-4.5-4.5-4.5v-4.5C31.5,325.5,28.5,322.5,24.8,322.5L24.8,322.5z M24.8,324.8
				c2.5-0.1,4.5,1.9,4.5,4.3c0,0.1,0,0.1,0,0.2v4.5h-9v-4.5c-0.1-2.5,1.9-4.5,4.3-4.5C24.6,324.8,24.7,324.8,24.8,324.8z
				 M24.8,339.4c1.3,0,2.3,1,2.3,2.3c0,0.8-0.5,1.5-1.1,1.9v2.6c0,0.6-0.5,1.1-1.1,1.1c-0.6,0-1.1-0.5-1.1-1.1v-2.6
				c-0.7-0.4-1.1-1.1-1.1-1.9C22.5,340.4,23.5,339.4,24.8,339.4z"/>
		</g>
	</g>
</g>
</svg>
