<svg xmlns="http://www.w3.org/2000/svg" xmlns:xlink="http://www.w3.org/1999/xlink" width="109" height="109" viewBox="0 0 109 109">
  <defs>
    <filter id="Elipse_1" x="0" y="0" width="109" height="109" filterUnits="userSpaceOnUse">
      <feOffset dy="10" input="SourceAlpha"/>
      <feGaussianBlur stdDeviation="5" result="blur"/>
      <feFlood flood-color="#fff" flood-opacity="0.082"/>
      <feComposite operator="in" in2="blur"/>
      <feComposite in="SourceGraphic"/>
    </filter>
    <filter id="unlock-2" x="30.594" y="19.262" width="46.802" height="59.105" filterUnits="userSpaceOnUse">
      <feOffset dy="5" input="SourceAlpha"/>
      <feGaussianBlur stdDeviation="1.5" result="blur-2"/>
      <feFlood flood-opacity="0.161"/>
      <feComposite operator="in" in2="blur-2"/>
      <feComposite in="SourceGraphic"/>
    </filter>
  </defs>
  <g id="Grupo_12" data-name="Grupo 12" transform="translate(15.198 5.301)">
    <g transform="matrix(1, 0, 0, 1, -15.2, -5.3)" filter="url(#Elipse_1)">
      <g id="Elipse_1-2" data-name="Elipse 1" transform="translate(15 5)" fill="#fff" stroke="#707070" stroke-width="1">
        <circle cx="39.5" cy="39.5" r="39.5" stroke="none"/>
        <circle cx="39.5" cy="39.5" r="39" fill="none"/>
      </g>
    </g>
    <g transform="matrix(1, 0, 0, 1, -15.2, -5.3)" filter="url(#unlock-2)">
      <path id="unlock-2-2" data-name="unlock-2" d="M21.9,0A11.369,11.369,0,0,0,10.56,11.447v7.632A7.62,7.62,0,0,0,3,26.71V41.974a7.62,7.62,0,0,0,7.56,7.632H33.242a7.62,7.62,0,0,0,7.56-7.632V26.71a7.62,7.62,0,0,0-7.56-7.632h-18.9V11.447A7.436,7.436,0,0,1,21.9,3.816a7.436,7.436,0,0,1,7.56,7.632v1.908h3.78V11.447A11.369,11.369,0,0,0,21.9,0Zm0,28.618a3.805,3.805,0,0,1,3.78,3.816,3.658,3.658,0,0,1-1.89,3.22v4.412a1.89,1.89,0,1,1-3.78,0V35.654a3.658,3.658,0,0,1-1.89-3.22A3.805,3.805,0,0,1,21.9,28.618Z" transform="translate(32.09 19.26)" fill="#54aeec"/>
    </g>
  </g>
</svg>
