<svg id="Icon_material-exit-to-app" data-name="Icon material-exit-to-app" xmlns="http://www.w3.org/2000/svg" width="29" height="29" viewBox="0 0 29 29">
  <path id="Icon_material-exit-to-app-2" data-name="Icon material-exit-to-app" d="M15.923,24.784l2.272,2.272L26.25,19l-8.056-8.056-2.272,2.272,4.157,4.173H4.5v3.222H20.079ZM30.278,4.5H7.722A3.221,3.221,0,0,0,4.5,7.722v6.444H7.722V7.722H30.278V30.278H7.722V23.833H4.5v6.444A3.221,3.221,0,0,0,7.722,33.5H30.278A3.232,3.232,0,0,0,33.5,30.278V7.722A3.232,3.232,0,0,0,30.278,4.5Z" transform="translate(-4.5 -4.5)" fill="#85fa42"/>
</svg>
