<svg id="Grupo_2" data-name="Grupo 2" xmlns="http://www.w3.org/2000/svg" xmlns:xlink="http://www.w3.org/1999/xlink" width="44.971" height="14.827" viewBox="0 0 44.971 14.827">
  <defs>
    <clipPath id="clip-path">
      <rect id="Rectángulo_2" data-name="Rectángulo 2" width="44.971" height="14.827" transform="translate(0 0)" fill="none"/>
    </clipPath>
  </defs>
  <g id="Grupo_1" data-name="Grupo 1" transform="translate(0 0)" clip-path="url(#clip-path)">
    <path id="Trazado_1" data-name="Trazado 1" d="M1176.894,21.838l-.006,2.832h3.357a.267.267,0,0,1,.276.256l0,.93a.267.267,0,0,1-.276.259h-3.33c0,2.551.008,4.447-.016,5.308a1.352,1.352,0,0,0,.269.937,1.638,1.638,0,0,0,.95.468,3.661,3.661,0,0,0,2.116-.182.286.286,0,0,1,.339.113l.582.959a.251.251,0,0,1-.116.358,4.367,4.367,0,0,1-1.458.411,4.629,4.629,0,0,1-3.3-.683,2.666,2.666,0,0,1-.882-1,2.427,2.427,0,0,1-.235-1.053c-.012-.88-.027-4.682-.005-9.91a.268.268,0,0,1,.276-.257h1.18a.267.267,0,0,1,.276.258" transform="translate(-1136.223 -20.865)" fill="#fff"/>
    <path id="Trazado_2" data-name="Trazado 2" d="M1076.675,124.7h1a.349.349,0,0,0,.36-.336V115.2a.349.349,0,0,0-.36-.336h-1a.349.349,0,0,0-.36.336v9.159a.349.349,0,0,0,.36.336" transform="translate(-1040.662 -111.061)" fill="#fff"/>
    <path id="Trazado_3" data-name="Trazado 3" d="M1077.67,21.671h-1a.352.352,0,0,0-.363.339v.935a.352.352,0,0,0,.363.339h1a.352.352,0,0,0,.363-.339V22.01a.352.352,0,0,0-.363-.339" transform="translate(-1040.657 -20.953)" fill="#fff"/>
    <path id="Trazado_4" data-name="Trazado 4" d="M575.1,115.078l-2.566,7.14-2.51-6.867a.765.765,0,0,0-.727-.485h-.716a.765.765,0,0,0-.728.488l-2.467,6.863-2.609-7.137a.339.339,0,0,0-.321-.214h-1.046a.321.321,0,0,0-.323.415c1.639,4.669,2.846,8.036,3.07,8.623a1.234,1.234,0,0,0,.446.6,1.39,1.39,0,0,0,.848.217,1.268,1.268,0,0,0,.492-.113,1.52,1.52,0,0,0,.718-.871c.263-.67,1.143-3.084,2.274-6.393,1.25,3.529,2.183,6.094,2.373,6.59a1.185,1.185,0,0,0,.4.548,1.287,1.287,0,0,0,.636.234,1.234,1.234,0,0,0,1.249-.557,2.033,2.033,0,0,0,.268-.587c.113-.473,1.263-3.7,2.925-8.292a.315.315,0,0,0-.316-.41h-1.054a.332.332,0,0,0-.316.212" transform="translate(-542.484 -111.061)" fill="#fff"/>
    <path id="Trazado_5" data-name="Trazado 5" d="M172.285,1.152a.663.663,0,0,1,.685.639V4.263a.687.687,0,0,1-1.37,0V1.79a.663.663,0,0,1,.685-.639m0-1.153a1.862,1.862,0,0,0-1.922,1.791V4.263a1.926,1.926,0,0,0,3.843,0V1.79A1.862,1.862,0,0,0,172.285,0" transform="translate(-164.72 0.001)" fill="#fff"/>
    <path id="Trazado_6" data-name="Trazado 6" d="M7.564,70.879A7.312,7.312,0,0,1,0,64.037a6.842,6.842,0,0,1,2.844-5.721l.352-.262a.415.415,0,0,1,.555.058l.563.657a.352.352,0,0,1-.062.518l-.352.262A5.309,5.309,0,0,0,1.7,64.072,5.71,5.71,0,0,0,7.423,69.3a5.7,5.7,0,0,0,6.014-5.472,5.322,5.322,0,0,0-2.211-4.28l-.352-.262a.352.352,0,0,1-.062-.518l.563-.657a.415.415,0,0,1,.555-.058l.352.262a6.853,6.853,0,0,1,2.847,5.512,7.33,7.33,0,0,1-7.564,7.051" transform="translate(0.001 -56.053)" fill="#fff"/>
  </g>
</svg>
